SplineFontDB: 3.0
FontName: DouarOutline
FullName: Douar
FamilyName: Douar
Weight: Medium
Copyright: Created by Frank ADEBIAYE with FontForge 2.0 (http://fontforge.sf.net)
Version: 001.000
ItalicAngle: 0
UnderlinePosition: -100
UnderlineWidth: 50
Ascent: 800
Descent: 200
InvalidEm: 0
sfntRevision: 0x00010000
LayerCount: 2
Layer: 0 1 "Back" 1
Layer: 1 1 "Fore" 0
XUID: [1021 591 -286901576 9540071]
FSType: 0
OS2Version: 1
OS2_WeightWidthSlopeOnly: 0
OS2_UseTypoMetrics: 1
CreationTime: 1284796036
ModificationTime: 1305090819
PfmFamily: 17
TTFWeight: 500
TTFWidth: 5
LineGap: 90
VLineGap: 0
Panose: 2 0 6 3 0 0 0 0 0 0
OS2TypoAscent: 800
OS2TypoAOffset: 0
OS2TypoDescent: -200
OS2TypoDOffset: 0
OS2TypoLinegap: 90
OS2WinAscent: 731
OS2WinAOffset: 0
OS2WinDescent: 18
OS2WinDOffset: 0
HheadAscent: 731
HheadAOffset: 0
HheadDescent: -18
HheadDOffset: 0
OS2SubXSize: 650
OS2SubYSize: 699
OS2SubXOff: 0
OS2SubYOff: 140
OS2SupXSize: 650
OS2SupYSize: 699
OS2SupXOff: 0
OS2SupYOff: 479
OS2StrikeYSize: 49
OS2StrikeYPos: 258
OS2CapHeight: 0
OS2XHeight: 0
OS2Vendor: 'PfEd'
OS2CodePages: 00000093.00000000
OS2UnicodeRanges: 0000001f.00000000.00000000.00000000
DEI: 91125
TtTable: prep
PUSHW_1
 511
SCANCTRL
PUSHB_1
 1
SCANTYPE
SVTCA[y-axis]
MPPEM
PUSHB_1
 8
LT
IF
PUSHB_2
 1
 1
INSTCTRL
EIF
PUSHB_2
 70
 6
CALL
IF
POP
PUSHB_1
 16
EIF
MPPEM
PUSHB_1
 20
GT
IF
POP
PUSHB_1
 128
EIF
SCVTCI
PUSHB_1
 6
CALL
NOT
IF
EIF
PUSHB_1
 20
CALL
EndTTInstrs
TtTable: fpgm
PUSHB_1
 0
FDEF
PUSHB_1
 0
SZP0
MPPEM
PUSHB_1
 42
LT
IF
PUSHB_1
 74
SROUND
EIF
PUSHB_1
 0
SWAP
MIAP[rnd]
RTG
PUSHB_1
 6
CALL
IF
RTDG
EIF
MPPEM
PUSHB_1
 42
LT
IF
RDTG
EIF
DUP
MDRP[rp0,rnd,grey]
PUSHB_1
 1
SZP0
MDAP[no-rnd]
RTG
ENDF
PUSHB_1
 1
FDEF
DUP
MDRP[rp0,min,white]
PUSHB_1
 12
CALL
ENDF
PUSHB_1
 2
FDEF
MPPEM
GT
IF
RCVT
SWAP
EIF
POP
ENDF
PUSHB_1
 3
FDEF
ROUND[Black]
RTG
DUP
PUSHB_1
 64
LT
IF
POP
PUSHB_1
 64
EIF
ENDF
PUSHB_1
 4
FDEF
PUSHB_1
 6
CALL
IF
POP
SWAP
POP
ROFF
IF
MDRP[rp0,min,rnd,black]
ELSE
MDRP[min,rnd,black]
EIF
ELSE
MPPEM
GT
IF

StartChar: .notdef
Encoding: 65536 -1 0
Width: 364
Flags: W
LayerCount: 2
Back
Fore
SplineSet
33 0 m 1,0,-1
 33 666 l 1,1,-1
 298 666 l 1,2,-1
 298 0 l 1,3,-1
 33 0 l 1,0,-1
66 33 m 1,4,-1
 265 33 l 1,5,-1
 265 633 l 1,6,-1
 66 633 l 1,7,-1
 66 33 l 1,4,-1
EndSplineSet
EndChar

StartChar: exclam
Encoding: 33 33 4
Width: 813
GlyphClass: 2
Flags: W
LayerCount: 2
Back
Fore
SplineSet
50 728 m 1,0,-1
 763 728 l 1,1,-1
 778 713 l 1,2,-1
 778 212 l 1,3,-1
 763 197 l 1,4,-1
 616 197 l 1,5,-1
 601 212 l 1,6,-1
 601 552 l 1,7,-1
 50 552 l 1,8,-1
 35 567 l 1,9,-1
 35 713 l 1,10,-1
 50 728 l 1,0,-1
748 698 m 1,11,-1
 65 698 l 1,12,-1
 65 582 l 1,13,-1
 616 582 l 1,14,-1
 631 567 l 1,15,-1
 631 227 l 1,16,-1
 748 227 l 1,17,-1
 748 698 l 1,11,-1
616 162 m 1,18,-1
 763 162 l 1,19,-1
 778 147 l 1,20,-1
 778 0 l 1,21,-1
 763 -15 l 1,22,-1
 616 -15 l 1,23,-1
 601 0 l 1,24,-1
 601 147 l 1,25,-1
 616 162 l 1,18,-1
748 132 m 1,26,-1
 631 132 l 1,27,-1
 631 15 l 1,28,-1
 748 15 l 1,29,-1
 748 132 l 1,26,-1
EndSplineSet
EndChar

StartChar: quotedbl
Encoding: 34 34 5
Width: 813
GlyphClass: 2
Flags: W
LayerCount: 2
Back
Fore
SplineSet
50 729 m 1,0,-1
 196 729 l 1,1,-1
 212 714 l 1,2,-1
 212 567 l 1,3,-1
 196 552 l 1,4,-1
 50 552 l 1,5,-1
 34 567 l 1,6,-1
 34 714 l 1,7,-1
 50 729 l 1,0,-1
182 699 m 1,8,-1
 64 699 l 1,9,-1
 64 582 l 1,10,-1
 182 582 l 1,11,-1
 182 699 l 1,8,-1
332 729 m 1,12,-1
 480 729 l 1,13,-1
 494 714 l 1,14,-1
 494 446 l 1,15,-1
 764 446 l 1,16,-1
 778 431 l 1,17,-1
 778 284 l 1,18,-1
 764 269 l 1,19,-1
 494 269 l 1,20,-1
 494 0 l 1,21,-1
 480 -15 l 1,22,-1
 332 -15 l 1,23,-1
 318 0 l 1,24,-1
 318 269 l 1,25,-1
 50 269 l 1,26,-1
 34 284 l 1,27,-1
 34 431 l 1,28,-1
 50 446 l 1,29,-1
 318 446 l 1,30,-1
 318 714 l 1,31,-1
 332 729 l 1,12,-1
464 699 m 1,32,-1
 348 699 l 1,33,-1
 348 431 l 1,34,-1
 332 416 l 1,35,-1
 64 416 l 1,36,-1
 64 299 l 1,37,-1
 332 299 l 1,38,-1
 348 284 l 1,39,-1
 348 15 l 1,40,-1
 464 15 l 1,41,-1
 464 284 l 1,42,-1
 480 299 l 1,43,-1
 748 299 l 1,44,-1
 748 416 l 1,45,-1
 480 416 l 1,46,-1
 464 431 l 1,47,-1
 464 699 l 1,32,-1
616 729 m 1,48,-1
 764 729 l 1,49,-1
 778 714 l 1,50,-1
 778 567 l 1,51,-1
 764 552 l 1,52,-1
 616 552 l 1,53,-1
 602 567 l 1,54,-1
 602 714 l 1,55,-1
 616 729 l 1,48,-1
748 699 m 1,56,-1
 632 699 l 1,57,-1
 632 582 l 1,58,-1
 748 582 l 1,59,-1
 748 699 l 1,56,-1
50 162 m 1,60,-1
 196 162 l 1,61,-1
 212 147 l 1,62,-1
 212 0 l 1,63,-1
 196 -15 l 1,64,-1
 50 -15 l 1,65,-1
 34 0 l 1,66,-1
 34 147 l 1,67,-1
 50 162 l 1,60,-1
182 132 m 1,68,-1
 64 132 l 1,69,-1
 64 15 l 1,70,-1
 182 15 l 1,71,-1
 182 132 l 1,68,-1
616 162 m 1,72,-1
 764 162 l 1,73,-1
 778 147 l 1,74,-1
 778 0 l 1,75,-1
 764 -15 l 1,76,-1
 616 -15 l 1,77,-1
 602 0 l 1,78,-1
 602 147 l 1,79,-1
 616 162 l 1,72,-1
748 132 m 1,80,-1
 632 132 l 1,81,-1
 632 15 l 1,82,-1
 748 15 l 1,83,-1
 748 132 l 1,80,-1
EndSplineSet
EndChar

StartChar: numbersign
Encoding: 35 35 6
Width: 813
GlyphClass: 2
Flags: W
LayerCount: 2
Back
Fore
SplineSet
50 729 m 1,0,-1
 196 729 l 1,1,-1
 212 714 l 1,2,-1
 212 567 l 1,3,-1
 196 552 l 1,4,-1
 50 552 l 1,5,-1
 34 567 l 1,6,-1
 34 714 l 1,7,-1
 50 729 l 1,0,-1
182 699 m 1,8,-1
 64 699 l 1,9,-1
 64 582 l 1,10,-1
 182 582 l 1,11,-1
 182 699 l 1,8,-1
332 729 m 1,12,-1
 480 729 l 1,13,-1
 494 714 l 1,14,-1
 494 446 l 1,15,-1
 764 446 l 1,16,-1
 778 431 l 1,17,-1
 778 284 l 1,18,-1
 764 269 l 1,19,-1
 494 269 l 1,20,-1
 494 0 l 1,21,-1
 480 -15 l 1,22,-1
 332 -15 l 1,23,-1
 318 0 l 1,24,-1
 318 269 l 1,25,-1
 50 269 l 1,26,-1
 34 284 l 1,27,-1
 34 431 l 1,28,-1
 50 446 l 1,29,-1
 318 446 l 1,30,-1
 318 714 l 1,31,-1
 332 729 l 1,12,-1
464 699 m 1,32,-1
 348 699 l 1,33,-1
 348 431 l 1,34,-1
 332 416 l 1,35,-1
 64 416 l 1,36,-1
 64 299 l 1,37,-1
 332 299 l 1,38,-1
 348 284 l 1,39,-1
 348 15 l 1,40,-1
 464 15 l 1,41,-1
 464 284 l 1,42,-1
 480 299 l 1,43,-1
 748 299 l 1,44,-1
 748 416 l 1,45,-1
 480 416 l 1,46,-1
 464 431 l 1,47,-1
 464 699 l 1,32,-1
616 729 m 1,48,-1
 764 729 l 1,49,-1
 778 714 l 1,50,-1
 778 567 l 1,51,-1
 764 552 l 1,52,-1
 616 552 l 1,53,-1
 602 567 l 1,54,-1
 602 714 l 1,55,-1
 616 729 l 1,48,-1
748 699 m 1,56,-1
 632 699 l 1,57,-1
 632 582 l 1,58,-1
 748 582 l 1,59,-1
 748 699 l 1,56,-1
50 162 m 1,60,-1
 196 162 l 1,61,-1
 212 147 l 1,62,-1
 212 0 l 1,63,-1
 196 -15 l 1,64,-1
 50 -15 l 1,65,-1
 34 0 l 1,66,-1
 34 147 l 1,67,-1
 50 162 l 1,60,-1
182 132 m 1,68,-1
 64 132 l 1,69,-1
 64 15 l 1,70,-1
 182 15 l 1,71,-1
 182 132 l 1,68,-1
616 162 m 1,72,-1
 764 162 l 1,73,-1
 778 147 l 1,74,-1
 778 0 l 1,75,-1
 764 -15 l 1,76,-1
 616 -15 l 1,77,-1
 602 0 l 1,78,-1
 602 147 l 1,79,-1
 616 162 l 1,72,-1
748 132 m 1,80,-1
 632 132 l 1,81,-1
 632 15 l 1,82,-1
 748 15 l 1,83,-1
 748 132 l 1,80,-1
EndSplineSet
EndChar

StartChar: dollar
Encoding: 36 36 7
Width: 813
GlyphClass: 2
Flags: W
LayerCount: 2
Back
Fore
SplineSet
404 729 m 2,0,-1
 763 729 l 1,1,-1
 778 714 l 1,2,-1
 778 0 l 1,3,-1
 763 -15 l 1,4,-1
 50 -15 l 1,5,-1
 35 0 l 1,6,-1
 35 147 l 1,7,-1
 50 162 l 1,8,-1
 602 162 l 1,9,-1
 602 552 l 1,10,-1
 404 552 l 2,11,12
 322 551 322 551 266.5 495.5 c 128,-1,13
 211 440 211 440 211 358 c 1,14,-1
 194 340 l 1,15,-1
 52 340 l 1,16,-1
 35 358 l 1,17,18
 35 461 35 461 83 546 c 128,-1,19
 131 631 131 631 216 679.5 c 128,-1,20
 301 728 301 728 404 729 c 2,0,-1
748 699 m 1,21,-1
 404 699 l 2,22,23
 263 698 263 698 166.5 604.5 c 128,-1,24
 70 511 70 511 65 370 c 1,25,-1
 181 370 l 1,26,27
 186 460 186 460 249.5 520.5 c 128,-1,28
 313 581 313 581 404 582 c 2,29,-1
 617 582 l 1,30,-1
 632 567 l 1,31,-1
 632 147 l 1,32,-1
 617 132 l 1,33,-1
 65 132 l 1,34,-1
 65 15 l 1,35,-1
 748 15 l 1,36,-1
 748 699 l 1,21,-1
EndSplineSet
EndChar

StartChar: percent
Encoding: 37 37 8
Width: 813
GlyphClass: 2
Flags: W
LayerCount: 2
Back
Fore
SplineSet
748 370 m 1,0,1
 744 511 744 511 646 605.5 c 128,-1,2
 548 700 548 700 406 700 c 128,-1,3
 264 700 264 700 166.5 605.5 c 128,-1,4
 69 511 69 511 65 370 c 1,5,-1
 182 370 l 1,6,7
 186 462 186 462 250 522.5 c 128,-1,8
 314 583 314 583 406 583 c 0,9,10
 499 583 499 583 563 522 c 128,-1,11
 627 461 627 461 631 370 c 1,12,-1
 748 370 l 1,0,1
52 340 m 1,13,-1
 34 358 l 1,14,15
 34 461 34 461 83 546.5 c 128,-1,16
 132 632 132 632 217 681 c 128,-1,17
 302 730 302 730 406 730 c 128,-1,18
 510 730 510 730 595.5 681 c 128,-1,19
 681 632 681 632 729.5 546.5 c 128,-1,20
 778 461 778 461 778 358 c 1,21,-1
 761 340 l 1,22,-1
 619 340 l 1,23,-1
 602 358 l 1,24,25
 602 441 602 441 545.5 497 c 128,-1,26
 489 553 489 553 406 553 c 256,27,28
 323 553 323 553 267.5 497 c 128,-1,29
 212 441 212 441 212 358 c 1,30,-1
 194 340 l 1,31,-1
 52 340 l 1,13,-1
748 16 m 1,32,33
 744 157 744 157 646 251 c 128,-1,34
 548 345 548 345 406 345 c 256,35,36
 264 345 264 345 166.5 251 c 128,-1,37
 69 157 69 157 65 16 c 1,38,-1
 182 16 l 1,39,40
 186 107 186 107 250 168 c 128,-1,41
 314 229 314 229 406 229 c 256,42,43
 498 229 498 229 562.5 168 c 128,-1,44
 627 107 627 107 631 16 c 1,45,-1
 748 16 l 1,32,33
52 -14 m 1,46,-1
 34 4 l 1,47,48
 34 107 34 107 83 192.5 c 128,-1,49
 132 278 132 278 217 326.5 c 128,-1,50
 302 375 302 375 406 375 c 128,-1,51
 510 375 510 375 595.5 326.5 c 128,-1,52
 681 278 681 278 729.5 192.5 c 128,-1,53
 778 107 778 107 778 4 c 1,54,-1
 761 -14 l 1,55,-1
 619 -14 l 1,56,-1
 602 4 l 1,57,58
 602 86 602 86 546 142.5 c 128,-1,59
 490 199 490 199 406 199 c 0,60,61
 323 199 323 199 267.5 142.5 c 128,-1,62
 212 86 212 86 212 4 c 1,63,-1
 194 -14 l 1,64,-1
 52 -14 l 1,46,-1
EndSplineSet
EndChar

StartChar: ampersand
Encoding: 38 38 9
Width: 813
GlyphClass: 2
Flags: W
LayerCount: 2
Back
Fore
SplineSet
334 726 m 1,0,-1
 480 726 l 1,1,-1
 489 718 l 1,2,3
 617 691 617 691 697.5 590.5 c 128,-1,4
 778 490 778 490 778 354 c 1,5,-1
 761 336 l 1,6,-1
 619 336 l 1,7,-1
 602 354 l 1,8,9
 602 413 602 413 573 459.5 c 128,-1,10
 544 506 544 506 496 529 c 1,11,-1
 496 361 l 1,12,13
 621 333 621 333 699.5 233.5 c 128,-1,14
 778 134 778 134 778 0 c 1,15,-1
 761 -18 l 1,16,-1
 619 -18 l 1,17,-1
 602 0 l 1,18,19
 602 58 602 58 573 104.5 c 128,-1,20
 544 151 544 151 496 175 c 1,21,-1
 496 -2 l 1,22,-1
 480 -18 l 1,23,-1
 334 -18 l 1,24,-1
 318 -2 l 1,25,-1
 318 175 l 1,26,27
 269 152 269 152 240.5 105 c 128,-1,28
 212 58 212 58 212 0 c 1,29,-1
 194 -18 l 1,30,-1
 52 -18 l 1,31,-1
 34 0 l 1,32,33
 34 134 34 134 113.5 233.5 c 128,-1,34
 193 333 193 333 318 361 c 1,35,-1
 318 530 l 1,36,37
 269 506 269 506 240.5 459.5 c 128,-1,38
 212 413 212 413 212 354 c 1,39,-1
 194 336 l 1,40,-1
 52 336 l 1,41,-1
 34 354 l 1,42,43
 34 489 34 489 115.5 590 c 128,-1,44
 197 691 197 691 325 718 c 1,45,-1
 334 726 l 1,0,-1
472 696 m 1,46,-1
 342 696 l 1,47,-1
 336 690 l 1,48,49
 220 667 220 667 144.5 578 c 128,-1,50
 69 489 69 489 65 366 c 1,51,-1
 182 366 l 1,52,53
 185 436 185 436 225 490 c 128,-1,54
 265 544 265 544 329 566 c 1,55,-1
 348 552 l 1,56,-1
 348 349 l 1,57,-1
 336 335 l 1,58,59
 220 312 220 312 144.5 223.5 c 128,-1,60
 69 135 69 135 65 12 c 1,61,-1
 182 12 l 1,62,63
 185 82 185 82 225 136 c 128,-1,64
 265 190 265 190 328 212 c 1,65,-1
 348 198 l 1,66,-1
 348 12 l 1,67,-1
 466 12 l 1,68,-1
 466 198 l 1,69,-1
 486 212 l 1,70,71
 548 190 548 190 588 136 c 128,-1,72
 628 82 628 82 631 12 c 1,73,-1
 748 12 l 1,74,75
 744 135 744 135 669 223.5 c 128,-1,76
 594 312 594 312 478 335 c 1,77,-1
 466 349 l 1,78,-1
 466 552 l 1,79,-1
 486 566 l 1,80,81
 548 544 548 544 588 490 c 128,-1,82
 628 436 628 436 631 366 c 1,83,-1
 748 366 l 1,84,85
 744 489 744 489 669 578 c 128,-1,86
 594 667 594 667 478 690 c 1,87,-1
 472 696 l 1,46,-1
345 712 m 1,88,-1
 346 699 l 1,89,-1
 348 701 l 1,90,-1
 349 692 l 2,91,92
 348 691 348 691 344.5 690.5 c 128,-1,93
 341 690 341 690 341 690 c 1,94,-1
 340 692 l 1,95,-1
 338 692 l 1,96,-1
 339 692 l 1,97,-1
 324 705 l 1,98,-1
 324 706 l 1,99,-1
 336 719 l 1,100,-1
 336 720 l 1,101,-1
 337 720 l 1,102,-1
 338 722 l 1,103,-1
 347 722 l 1,104,-1
 348 710 l 1,105,-1
 345 712 l 1,88,-1
353 706 m 1,106,-1
 348 710 l 1,107,-1
 348 701 l 1,108,-1
 353 706 l 1,106,-1
353 706 m 1,109,-1
 354 706 l 1,110,-1
 354 705 l 1,111,-1
 353 706 l 1,109,-1
461 706 m 1,112,-1
 465 702 l 1,113,-1
 466 710 l 1,114,-1
 461 706 l 1,112,-1
461 706 m 1,115,-1
 460 705 l 1,116,-1
 460 706 l 1,117,-1
 461 706 l 1,115,-1
468 699 m 1,118,-1
 469 712 l 1,119,-1
 466 710 l 1,120,-1
 467 722 l 1,121,-1
 476 722 l 1,122,-1
 477 720 l 1,123,-1
 478 720 l 1,124,-1
 478 719 l 1,125,-1
 490 706 l 1,126,-1
 490 705 l 1,127,-1
 475 692 l 1,128,-1
 476 692 l 1,129,-1
 474 692 l 1,130,-1
 473 690 l 1,131,132
 467 691 467 691 465 692 c 2,133,-1
 465 702 l 1,134,-1
 468 699 l 1,118,-1
EndSplineSet
EndChar

StartChar: quotesingle
Encoding: 39 39 10
Width: 813
GlyphClass: 2
Flags: W
LayerCount: 2
Back
Fore
SplineSet
50 729 m 1,0,-1
 196 729 l 1,1,-1
 212 714 l 1,2,-1
 212 567 l 1,3,-1
 196 552 l 1,4,-1
 50 552 l 1,5,-1
 34 567 l 1,6,-1
 34 714 l 1,7,-1
 50 729 l 1,0,-1
182 699 m 1,8,-1
 64 699 l 1,9,-1
 64 582 l 1,10,-1
 182 582 l 1,11,-1
 182 699 l 1,8,-1
332 729 m 1,12,-1
 480 729 l 1,13,-1
 494 714 l 1,14,-1
 494 446 l 1,15,-1
 764 446 l 1,16,-1
 778 431 l 1,17,-1
 778 284 l 1,18,-1
 764 269 l 1,19,-1
 494 269 l 1,20,-1
 494 0 l 1,21,-1
 480 -15 l 1,22,-1
 332 -15 l 1,23,-1
 318 0 l 1,24,-1
 318 269 l 1,25,-1
 50 269 l 1,26,-1
 34 284 l 1,27,-1
 34 431 l 1,28,-1
 50 446 l 1,29,-1
 318 446 l 1,30,-1
 318 714 l 1,31,-1
 332 729 l 1,12,-1
464 699 m 1,32,-1
 348 699 l 1,33,-1
 348 431 l 1,34,-1
 332 416 l 1,35,-1
 64 416 l 1,36,-1
 64 299 l 1,37,-1
 332 299 l 1,38,-1
 348 284 l 1,39,-1
 348 15 l 1,40,-1
 464 15 l 1,41,-1
 464 284 l 1,42,-1
 480 299 l 1,43,-1
 748 299 l 1,44,-1
 748 416 l 1,45,-1
 480 416 l 1,46,-1
 464 431 l 1,47,-1
 464 699 l 1,32,-1
616 729 m 1,48,-1
 764 729 l 1,49,-1
 778 714 l 1,50,-1
 778 567 l 1,51,-1
 764 552 l 1,52,-1
 616 552 l 1,53,-1
 602 567 l 1,54,-1
 602 714 l 1,55,-1
 616 729 l 1,48,-1
748 699 m 1,56,-1
 632 699 l 1,57,-1
 632 582 l 1,58,-1
 748 582 l 1,59,-1
 748 699 l 1,56,-1
50 162 m 1,60,-1
 196 162 l 1,61,-1
 212 147 l 1,62,-1
 212 0 l 1,63,-1
 196 -15 l 1,64,-1
 50 -15 l 1,65,-1
 34 0 l 1,66,-1
 34 147 l 1,67,-1
 50 162 l 1,60,-1
182 132 m 1,68,-1
 64 132 l 1,69,-1
 64 15 l 1,70,-1
 182 15 l 1,71,-1
 182 132 l 1,68,-1
616 162 m 1,72,-1
 764 162 l 1,73,-1
 778 147 l 1,74,-1
 778 0 l 1,75,-1
 764 -15 l 1,76,-1
 616 -15 l 1,77,-1
 602 0 l 1,78,-1
 602 147 l 1,79,-1
 616 162 l 1,72,-1
748 132 m 1,80,-1
 632 132 l 1,81,-1
 632 15 l 1,82,-1
 748 15 l 1,83,-1
 748 132 l 1,80,-1
EndSplineSet
EndChar

StartChar: parenleft
Encoding: 40 40 11
Width: 813
GlyphClass: 2
Flags: W
LayerCount: 2
Back
Fore
SplineSet
50 729 m 1,0,-1
 196 729 l 1,1,-1
 212 714 l 1,2,-1
 212 567 l 1,3,-1
 196 552 l 1,4,-1
 50 552 l 1,5,-1
 34 567 l 1,6,-1
 34 714 l 1,7,-1
 50 729 l 1,0,-1
182 699 m 1,8,-1
 64 699 l 1,9,-1
 64 582 l 1,10,-1
 182 582 l 1,11,-1
 182 699 l 1,8,-1
332 729 m 1,12,-1
 480 729 l 1,13,-1
 494 714 l 1,14,-1
 494 446 l 1,15,-1
 764 446 l 1,16,-1
 778 431 l 1,17,-1
 778 284 l 1,18,-1
 764 269 l 1,19,-1
 494 269 l 1,20,-1
 494 0 l 1,21,-1
 480 -15 l 1,22,-1
 332 -15 l 1,23,-1
 318 0 l 1,24,-1
 318 269 l 1,25,-1
 50 269 l 1,26,-1
 34 284 l 1,27,-1
 34 431 l 1,28,-1
 50 446 l 1,29,-1
 318 446 l 1,30,-1
 318 714 l 1,31,-1
 332 729 l 1,12,-1
464 699 m 1,32,-1
 348 699 l 1,33,-1
 348 431 l 1,34,-1
 332 416 l 1,35,-1
 64 416 l 1,36,-1
 64 299 l 1,37,-1
 332 299 l 1,38,-1
 348 284 l 1,39,-1
 348 15 l 1,40,-1
 464 15 l 1,41,-1
 464 284 l 1,42,-1
 480 299 l 1,43,-1
 748 299 l 1,44,-1
 748 416 l 1,45,-1
 480 416 l 1,46,-1
 464 431 l 1,47,-1
 464 699 l 1,32,-1
616 729 m 1,48,-1
 764 729 l 1,49,-1
 778 714 l 1,50,-1
 778 567 l 1,51,-1
 764 552 l 1,52,-1
 616 552 l 1,53,-1
 602 567 l 1,54,-1
 602 714 l 1,55,-1
 616 729 l 1,48,-1
748 699 m 1,56,-1
 632 699 l 1,57,-1
 632 582 l 1,58,-1
 748 582 l 1,59,-1
 748 699 l 1,56,-1
50 162 m 1,60,-1
 196 162 l 1,61,-1
 212 147 l 1,62,-1
 212 0 l 1,63,-1
 196 -15 l 1,64,-1
 50 -15 l 1,65,-1
 34 0 l 1,66,-1
 34 147 l 1,67,-1
 50 162 l 1,60,-1
182 132 m 1,68,-1
 64 132 l 1,69,-1
 64 15 l 1,70,-1
 182 15 l 1,71,-1
 182 132 l 1,68,-1
616 162 m 1,72,-1
 764 162 l 1,73,-1
 778 147 l 1,74,-1
 778 0 l 1,75,-1
 764 -15 l 1,76,-1
 616 -15 l 1,77,-1
 602 0 l 1,78,-1
 602 147 l 1,79,-1
 616 162 l 1,72,-1
748 132 m 1,80,-1
 632 132 l 1,81,-1
 632 15 l 1,82,-1
 748 15 l 1,83,-1
 748 132 l 1,80,-1
EndSplineSet
EndChar

StartChar: parenright
Encoding: 41 41 12
Width: 813
GlyphClass: 2
Flags: W
LayerCount: 2
Back
Fore
SplineSet
50 729 m 1,0,-1
 196 729 l 1,1,-1
 212 714 l 1,2,-1
 212 567 l 1,3,-1
 196 552 l 1,4,-1
 50 552 l 1,5,-1
 34 567 l 1,6,-1
 34 714 l 1,7,-1
 50 729 l 1,0,-1
182 699 m 1,8,-1
 64 699 l 1,9,-1
 64 582 l 1,10,-1
 182 582 l 1,11,-1
 182 699 l 1,8,-1
332 729 m 1,12,-1
 480 729 l 1,13,-1
 494 714 l 1,14,-1
 494 446 l 1,15,-1
 764 446 l 1,16,-1
 778 431 l 1,17,-1
 778 284 l 1,18,-1
 764 269 l 1,19,-1
 494 269 l 1,20,-1
 494 0 l 1,21,-1
 480 -15 l 1,22,-1
 332 -15 l 1,23,-1
 318 0 l 1,24,-1
 318 269 l 1,25,-1
 50 269 l 1,26,-1
 34 284 l 1,27,-1
 34 431 l 1,28,-1
 50 446 l 1,29,-1
 318 446 l 1,30,-1
 318 714 l 1,31,-1
 332 729 l 1,12,-1
464 699 m 1,32,-1
 348 699 l 1,33,-1
 348 431 l 1,34,-1
 332 416 l 1,35,-1
 64 416 l 1,36,-1
 64 299 l 1,37,-1
 332 299 l 1,38,-1
 348 284 l 1,39,-1
 348 15 l 1,40,-1
 464 15 l 1,41,-1
 464 284 l 1,42,-1
 480 299 l 1,43,-1
 748 299 l 1,44,-1
 748 416 l 1,45,-1
 480 416 l 1,46,-1
 464 431 l 1,47,-1
 464 699 l 1,32,-1
616 729 m 1,48,-1
 764 729 l 1,49,-1
 778 714 l 1,50,-1
 778 567 l 1,51,-1
 764 552 l 1,52,-1
 616 552 l 1,53,-1
 602 567 l 1,54,-1
 602 714 l 1,55,-1
 616 729 l 1,48,-1
748 699 m 1,56,-1
 632 699 l 1,57,-1
 632 582 l 1,58,-1
 748 582 l 1,59,-1
 748 699 l 1,56,-1
50 162 m 1,60,-1
 196 162 l 1,61,-1
 212 147 l 1,62,-1
 212 0 l 1,63,-1
 196 -15 l 1,64,-1
 50 -15 l 1,65,-1
 34 0 l 1,66,-1
 34 147 l 1,67,-1
 50 162 l 1,60,-1
182 132 m 1,68,-1
 64 132 l 1,69,-1
 64 15 l 1,70,-1
 182 15 l 1,71,-1
 182 132 l 1,68,-1
616 162 m 1,72,-1
 764 162 l 1,73,-1
 778 147 l 1,74,-1
 778 0 l 1,75,-1
 764 -15 l 1,76,-1
 616 -15 l 1,77,-1
 602 0 l 1,78,-1
 602 147 l 1,79,-1
 616 162 l 1,72,-1
748 132 m 1,80,-1
 632 132 l 1,81,-1
 632 15 l 1,82,-1
 748 15 l 1,83,-1
 748 132 l 1,80,-1
EndSplineSet
EndChar

StartChar: asterisk
Encoding: 42 42 13
Width: 813
GlyphClass: 2
Flags: W
LayerCount: 2
Back
Fore
SplineSet
182 700 m 1,0,-1
 65 700 l 1,1,2
 67 621 67 621 100.5 554.5 c 128,-1,3
 134 488 134 488 191 443 c 1,4,-1
 182 416 l 1,5,-1
 64 416 l 1,6,-1
 64 300 l 1,7,-1
 182 300 l 1,8,-1
 192 273 l 1,9,10
 134 227 134 227 100.5 160.5 c 128,-1,11
 67 94 67 94 65 16 c 1,12,-1
 182 16 l 1,13,14
 185 85 185 85 225 139 c 128,-1,15
 265 193 265 193 327 215 c 1,16,-1
 348 201 l 1,17,-1
 348 16 l 1,18,-1
 464 16 l 1,19,-1
 464 201 l 1,20,-1
 484 215 l 1,21,22
 548 193 548 193 588 139 c 128,-1,23
 628 85 628 85 631 16 c 1,24,-1
 748 16 l 1,25,26
 746 94 746 94 712.5 160.5 c 128,-1,27
 679 227 679 227 621 273 c 1,28,-1
 630 300 l 1,29,-1
 748 300 l 1,30,-1
 748 416 l 1,31,-1
 631 416 l 1,32,-1
 621 443 l 1,33,34
 679 488 679 488 712.5 554.5 c 128,-1,35
 746 621 746 621 748 700 c 1,36,-1
 631 700 l 1,37,38
 628 630 628 630 588 576 c 128,-1,39
 548 522 548 522 485 500 c 1,40,-1
 464 514 l 1,41,-1
 464 700 l 1,42,-1
 348 700 l 1,43,-1
 348 514 l 1,44,-1
 327 500 l 1,45,46
 265 522 265 522 225 576 c 128,-1,47
 185 630 185 630 182 700 c 1,0,-1
34 712 m 1,48,-1
 52 730 l 1,49,-1
 194 730 l 1,50,-1
 212 712 l 1,51,52
 212 654 212 654 240.5 607.5 c 128,-1,53
 269 561 269 561 318 537 c 1,54,-1
 318 714 l 1,55,-1
 332 730 l 1,56,-1
 480 730 l 1,57,-1
 494 714 l 1,58,-1
 494 537 l 1,59,60
 544 560 544 560 573 607 c 128,-1,61
 602 654 602 654 602 712 c 1,62,-1
 619 730 l 1,63,-1
 761 730 l 1,64,-1
 778 712 l 1,65,66
 778 634 778 634 750 565.5 c 128,-1,67
 722 497 722 497 670 446 c 1,68,-1
 764 446 l 1,69,-1
 778 432 l 1,70,-1
 778 284 l 1,71,-1
 764 270 l 1,72,-1
 670 270 l 1,73,74
 721 218 721 218 749.5 149.5 c 128,-1,75
 778 81 778 81 778 3 c 1,76,-1
 761 -14 l 1,77,-1
 619 -14 l 1,78,-1
 602 3 l 1,79,80
 602 62 602 62 573 108.5 c 128,-1,81
 544 155 544 155 494 179 c 1,82,-1
 494 0 l 1,83,-1
 480 -14 l 1,84,-1
 332 -14 l 1,85,-1
 318 0 l 1,86,-1
 318 178 l 1,87,88
 269 155 269 155 240.5 108.5 c 128,-1,89
 212 62 212 62 212 3 c 1,90,-1
 194 -14 l 1,91,-1
 52 -14 l 1,92,-1
 34 3 l 1,93,94
 34 81 34 81 62.5 149.5 c 128,-1,95
 91 218 91 218 143 270 c 1,96,-1
 50 270 l 1,97,-1
 34 284 l 1,98,-1
 34 432 l 1,99,-1
 50 446 l 1,100,-1
 142 446 l 1,101,102
 91 497 91 497 62.5 565.5 c 128,-1,103
 34 634 34 634 34 712 c 1,48,-1
EndSplineSet
EndChar

StartChar: plus
Encoding: 43 43 14
Width: 813
GlyphClass: 2
Flags: W
LayerCount: 2
Back
Fore
SplineSet
332 728 m 1,0,-1
 480 728 l 1,1,-1
 494 714 l 1,2,-1
 494 446 l 1,3,-1
 764 446 l 1,4,-1
 778 430 l 1,5,-1
 778 284 l 1,6,-1
 764 268 l 1,7,-1
 494 268 l 1,8,-1
 494 0 l 1,9,-1
 480 -14 l 1,10,-1
 332 -14 l 1,11,-1
 318 0 l 1,12,-1
 318 268 l 1,13,-1
 50 268 l 1,14,-1
 34 284 l 1,15,-1
 34 430 l 1,16,-1
 50 446 l 1,17,-1
 318 446 l 1,18,-1
 318 714 l 1,19,-1
 332 728 l 1,0,-1
464 698 m 1,20,-1
 348 698 l 1,21,-1
 348 430 l 1,22,-1
 332 416 l 1,23,-1
 64 416 l 1,24,-1
 64 298 l 1,25,-1
 332 298 l 1,26,-1
 348 284 l 1,27,-1
 348 16 l 1,28,-1
 464 16 l 1,29,-1
 464 284 l 1,30,-1
 480 298 l 1,31,-1
 748 298 l 1,32,-1
 748 416 l 1,33,-1
 480 416 l 1,34,-1
 464 430 l 1,35,-1
 464 698 l 1,20,-1
EndSplineSet
EndChar

StartChar: comma
Encoding: 44 44 15
Width: 813
GlyphClass: 2
Flags: W
LayerCount: 2
Back
Fore
SplineSet
50 729 m 1,0,-1
 196 729 l 1,1,-1
 212 714 l 1,2,-1
 212 567 l 1,3,-1
 196 552 l 1,4,-1
 50 552 l 1,5,-1
 34 567 l 1,6,-1
 34 714 l 1,7,-1
 50 729 l 1,0,-1
182 699 m 1,8,-1
 64 699 l 1,9,-1
 64 582 l 1,10,-1
 182 582 l 1,11,-1
 182 699 l 1,8,-1
332 729 m 1,12,-1
 480 729 l 1,13,-1
 494 714 l 1,14,-1
 494 446 l 1,15,-1
 764 446 l 1,16,-1
 778 431 l 1,17,-1
 778 284 l 1,18,-1
 764 269 l 1,19,-1
 494 269 l 1,20,-1
 494 0 l 1,21,-1
 480 -15 l 1,22,-1
 332 -15 l 1,23,-1
 318 0 l 1,24,-1
 318 269 l 1,25,-1
 50 269 l 1,26,-1
 34 284 l 1,27,-1
 34 431 l 1,28,-1
 50 446 l 1,29,-1
 318 446 l 1,30,-1
 318 714 l 1,31,-1
 332 729 l 1,12,-1
464 699 m 1,32,-1
 348 699 l 1,33,-1
 348 431 l 1,34,-1
 332 416 l 1,35,-1
 64 416 l 1,36,-1
 64 299 l 1,37,-1
 332 299 l 1,38,-1
 348 284 l 1,39,-1
 348 15 l 1,40,-1
 464 15 l 1,41,-1
 464 284 l 1,42,-1
 480 299 l 1,43,-1
 748 299 l 1,44,-1
 748 416 l 1,45,-1
 480 416 l 1,46,-1
 464 431 l 1,47,-1
 464 699 l 1,32,-1
616 729 m 1,48,-1
 764 729 l 1,49,-1
 778 714 l 1,50,-1
 778 567 l 1,51,-1
 764 552 l 1,52,-1
 616 552 l 1,53,-1
 602 567 l 1,54,-1
 602 714 l 1,55,-1
 616 729 l 1,48,-1
748 699 m 1,56,-1
 632 699 l 1,57,-1
 632 582 l 1,58,-1
 748 582 l 1,59,-1
 748 699 l 1,56,-1
50 162 m 1,60,-1
 196 162 l 1,61,-1
 212 147 l 1,62,-1
 212 0 l 1,63,-1
 196 -15 l 1,64,-1
 50 -15 l 1,65,-1
 34 0 l 1,66,-1
 34 147 l 1,67,-1
 50 162 l 1,60,-1
182 132 m 1,68,-1
 64 132 l 1,69,-1
 64 15 l 1,70,-1
 182 15 l 1,71,-1
 182 132 l 1,68,-1
616 162 m 1,72,-1
 764 162 l 1,73,-1
 778 147 l 1,74,-1
 778 0 l 1,75,-1
 764 -15 l 1,76,-1
 616 -15 l 1,77,-1
 602 0 l 1,78,-1
 602 147 l 1,79,-1
 616 162 l 1,72,-1
748 132 m 1,80,-1
 632 132 l 1,81,-1
 632 15 l 1,82,-1
 748 15 l 1,83,-1
 748 132 l 1,80,-1
EndSplineSet
EndChar

StartChar: hyphen
Encoding: 45 45 16
Width: 813
GlyphClass: 2
Flags: W
LayerCount: 2
Back
Fore
SplineSet
50 729 m 1,0,-1
 196 729 l 1,1,-1
 212 714 l 1,2,-1
 212 567 l 1,3,-1
 196 552 l 1,4,-1
 50 552 l 1,5,-1
 34 567 l 1,6,-1
 34 714 l 1,7,-1
 50 729 l 1,0,-1
182 699 m 1,8,-1
 64 699 l 1,9,-1
 64 582 l 1,10,-1
 182 582 l 1,11,-1
 182 699 l 1,8,-1
332 729 m 1,12,-1
 480 729 l 1,13,-1
 494 714 l 1,14,-1
 494 446 l 1,15,-1
 764 446 l 1,16,-1
 778 431 l 1,17,-1
 778 284 l 1,18,-1
 764 269 l 1,19,-1
 494 269 l 1,20,-1
 494 0 l 1,21,-1
 480 -15 l 1,22,-1
 332 -15 l 1,23,-1
 318 0 l 1,24,-1
 318 269 l 1,25,-1
 50 269 l 1,26,-1
 34 284 l 1,27,-1
 34 431 l 1,28,-1
 50 446 l 1,29,-1
 318 446 l 1,30,-1
 318 714 l 1,31,-1
 332 729 l 1,12,-1
464 699 m 1,32,-1
 348 699 l 1,33,-1
 348 431 l 1,34,-1
 332 416 l 1,35,-1
 64 416 l 1,36,-1
 64 299 l 1,37,-1
 332 299 l 1,38,-1
 348 284 l 1,39,-1
 348 15 l 1,40,-1
 464 15 l 1,41,-1
 464 284 l 1,42,-1
 480 299 l 1,43,-1
 748 299 l 1,44,-1
 748 416 l 1,45,-1
 480 416 l 1,46,-1
 464 431 l 1,47,-1
 464 699 l 1,32,-1
616 729 m 1,48,-1
 764 729 l 1,49,-1
 778 714 l 1,50,-1
 778 567 l 1,51,-1
 764 552 l 1,52,-1
 616 552 l 1,53,-1
 602 567 l 1,54,-1
 602 714 l 1,55,-1
 616 729 l 1,48,-1
748 699 m 1,56,-1
 632 699 l 1,57,-1
 632 582 l 1,58,-1
 748 582 l 1,59,-1
 748 699 l 1,56,-1
50 162 m 1,60,-1
 196 162 l 1,61,-1
 212 147 l 1,62,-1
 212 0 l 1,63,-1
 196 -15 l 1,64,-1
 50 -15 l 1,65,-1
 34 0 l 1,66,-1
 34 147 l 1,67,-1
 50 162 l 1,60,-1
182 132 m 1,68,-1
 64 132 l 1,69,-1
 64 15 l 1,70,-1
 182 15 l 1,71,-1
 182 132 l 1,68,-1
616 162 m 1,72,-1
 764 162 l 1,73,-1
 778 147 l 1,74,-1
 778 0 l 1,75,-1
 764 -15 l 1,76,-1
 616 -15 l 1,77,-1
 602 0 l 1,78,-1
 602 147 l 1,79,-1
 616 162 l 1,72,-1
748 132 m 1,80,-1
 632 132 l 1,81,-1
 632 15 l 1,82,-1
 748 15 l 1,83,-1
 748 132 l 1,80,-1
EndSplineSet
EndChar

StartChar: period
Encoding: 46 46 17
Width: 813
GlyphClass: 2
Flags: W
LayerCount: 2
Back
Fore
SplineSet
50 729 m 1,0,-1
 196 729 l 1,1,-1
 212 714 l 1,2,-1
 212 567 l 1,3,-1
 196 552 l 1,4,-1
 50 552 l 1,5,-1
 34 567 l 1,6,-1
 34 714 l 1,7,-1
 50 729 l 1,0,-1
182 699 m 1,8,-1
 64 699 l 1,9,-1
 64 582 l 1,10,-1
 182 582 l 1,11,-1
 182 699 l 1,8,-1
332 729 m 1,12,-1
 480 729 l 1,13,-1
 494 714 l 1,14,-1
 494 446 l 1,15,-1
 764 446 l 1,16,-1
 778 431 l 1,17,-1
 778 284 l 1,18,-1
 764 269 l 1,19,-1
 494 269 l 1,20,-1
 494 0 l 1,21,-1
 480 -15 l 1,22,-1
 332 -15 l 1,23,-1
 318 0 l 1,24,-1
 318 269 l 1,25,-1
 50 269 l 1,26,-1
 34 284 l 1,27,-1
 34 431 l 1,28,-1
 50 446 l 1,29,-1
 318 446 l 1,30,-1
 318 714 l 1,31,-1
 332 729 l 1,12,-1
464 699 m 1,32,-1
 348 699 l 1,33,-1
 348 431 l 1,34,-1
 332 416 l 1,35,-1
 64 416 l 1,36,-1
 64 299 l 1,37,-1
 332 299 l 1,38,-1
 348 284 l 1,39,-1
 348 15 l 1,40,-1
 464 15 l 1,41,-1
 464 284 l 1,42,-1
 480 299 l 1,43,-1
 748 299 l 1,44,-1
 748 416 l 1,45,-1
 480 416 l 1,46,-1
 464 431 l 1,47,-1
 464 699 l 1,32,-1
616 729 m 1,48,-1
 764 729 l 1,49,-1
 778 714 l 1,50,-1
 778 567 l 1,51,-1
 764 552 l 1,52,-1
 616 552 l 1,53,-1
 602 567 l 1,54,-1
 602 714 l 1,55,-1
 616 729 l 1,48,-1
748 699 m 1,56,-1
 632 699 l 1,57,-1
 632 582 l 1,58,-1
 748 582 l 1,59,-1
 748 699 l 1,56,-1
50 162 m 1,60,-1
 196 162 l 1,61,-1
 212 147 l 1,62,-1
 212 0 l 1,63,-1
 196 -15 l 1,64,-1
 50 -15 l 1,65,-1
 34 0 l 1,66,-1
 34 147 l 1,67,-1
 50 162 l 1,60,-1
182 132 m 1,68,-1
 64 132 l 1,69,-1
 64 15 l 1,70,-1
 182 15 l 1,71,-1
 182 132 l 1,68,-1
616 162 m 1,72,-1
 764 162 l 1,73,-1
 778 147 l 1,74,-1
 778 0 l 1,75,-1
 764 -15 l 1,76,-1
 616 -15 l 1,77,-1
 602 0 l 1,78,-1
 602 147 l 1,79,-1
 616 162 l 1,72,-1
748 132 m 1,80,-1
 632 132 l 1,81,-1
 632 15 l 1,82,-1
 748 15 l 1,83,-1
 748 132 l 1,80,-1
EndSplineSet
EndChar

StartChar: slash
Encoding: 47 47 18
Width: 813
GlyphClass: 2
Flags: W
LayerCount: 2
Back
Fore
SplineSet
50 729 m 1,0,-1
 196 729 l 1,1,-1
 212 714 l 1,2,-1
 212 567 l 1,3,-1
 196 552 l 1,4,-1
 50 552 l 1,5,-1
 34 567 l 1,6,-1
 34 714 l 1,7,-1
 50 729 l 1,0,-1
182 699 m 1,8,-1
 64 699 l 1,9,-1
 64 582 l 1,10,-1
 182 582 l 1,11,-1
 182 699 l 1,8,-1
332 729 m 1,12,-1
 480 729 l 1,13,-1
 494 714 l 1,14,-1
 494 446 l 1,15,-1
 764 446 l 1,16,-1
 778 431 l 1,17,-1
 778 284 l 1,18,-1
 764 269 l 1,19,-1
 494 269 l 1,20,-1
 494 0 l 1,21,-1
 480 -15 l 1,22,-1
 332 -15 l 1,23,-1
 318 0 l 1,24,-1
 318 269 l 1,25,-1
 50 269 l 1,26,-1
 34 284 l 1,27,-1
 34 431 l 1,28,-1
 50 446 l 1,29,-1
 318 446 l 1,30,-1
 318 714 l 1,31,-1
 332 729 l 1,12,-1
464 699 m 1,32,-1
 348 699 l 1,33,-1
 348 431 l 1,34,-1
 332 416 l 1,35,-1
 64 416 l 1,36,-1
 64 299 l 1,37,-1
 332 299 l 1,38,-1
 348 284 l 1,39,-1
 348 15 l 1,40,-1
 464 15 l 1,41,-1
 464 284 l 1,42,-1
 480 299 l 1,43,-1
 748 299 l 1,44,-1
 748 416 l 1,45,-1
 480 416 l 1,46,-1
 464 431 l 1,47,-1
 464 699 l 1,32,-1
616 729 m 1,48,-1
 764 729 l 1,49,-1
 778 714 l 1,50,-1
 778 567 l 1,51,-1
 764 552 l 1,52,-1
 616 552 l 1,53,-1
 602 567 l 1,54,-1
 602 714 l 1,55,-1
 616 729 l 1,48,-1
748 699 m 1,56,-1
 632 699 l 1,57,-1
 632 582 l 1,58,-1
 748 582 l 1,59,-1
 748 699 l 1,56,-1
50 162 m 1,60,-1
 196 162 l 1,61,-1
 212 147 l 1,62,-1
 212 0 l 1,63,-1
 196 -15 l 1,64,-1
 50 -15 l 1,65,-1
 34 0 l 1,66,-1
 34 147 l 1,67,-1
 50 162 l 1,60,-1
182 132 m 1,68,-1
 64 132 l 1,69,-1
 64 15 l 1,70,-1
 182 15 l 1,71,-1
 182 132 l 1,68,-1
616 162 m 1,72,-1
 764 162 l 1,73,-1
 778 147 l 1,74,-1
 778 0 l 1,75,-1
 764 -15 l 1,76,-1
 616 -15 l 1,77,-1
 602 0 l 1,78,-1
 602 147 l 1,79,-1
 616 162 l 1,72,-1
748 132 m 1,80,-1
 632 132 l 1,81,-1
 632 15 l 1,82,-1
 748 15 l 1,83,-1
 748 132 l 1,80,-1
EndSplineSet
EndChar

StartChar: zero
Encoding: 48 48 19
Width: 813
GlyphClass: 2
Flags: W
LayerCount: 2
Back
Fore
SplineSet
50 729 m 1,0,-1
 409 729 l 2,1,2
 512 728 512 728 597 679.5 c 128,-1,3
 682 631 682 631 730 546 c 128,-1,4
 778 461 778 461 778 358 c 2,5,-1
 778 1 l 1,6,-1
 764 -14 l 1,7,-1
 406 -14 l 2,8,9
 303 -14 303 -14 218 34 c 128,-1,10
 133 82 133 82 84 167 c 128,-1,11
 35 252 35 252 34 355 c 2,12,-1
 34 714 l 1,13,-1
 50 729 l 1,0,-1
748 16 m 1,14,-1
 748 358 l 2,15,16
 748 502 748 502 650.5 600 c 128,-1,17
 553 698 553 698 408 699 c 2,18,-1
 64 699 l 1,19,-1
 64 355 l 2,20,21
 65 211 65 211 163 113.5 c 128,-1,22
 261 16 261 16 406 16 c 2,23,-1
 748 16 l 1,14,-1
212 552 m 1,24,-1
 212 358 l 2,25,26
 212 274 212 274 267.5 218 c 128,-1,27
 323 162 323 162 406 162 c 2,28,-1
 602 162 l 1,29,-1
 602 358 l 2,30,31
 602 440 602 440 546.5 495.5 c 128,-1,32
 491 551 491 551 408 552 c 2,33,-1
 212 552 l 1,24,-1
196 582 m 1,34,-1
 409 582 l 2,35,36
 504 581 504 581 568 516.5 c 128,-1,37
 632 452 632 452 632 358 c 2,38,-1
 632 147 l 1,39,-1
 616 132 l 1,40,-1
 406 132 l 2,41,42
 311 132 311 132 246.5 196.5 c 128,-1,43
 182 261 182 261 182 358 c 2,44,-1
 182 567 l 1,45,-1
 196 582 l 1,34,-1
528 487 m 1,46,-1
 413 487 l 1,47,-1
 284 228 l 1,48,-1
 398 228 l 1,49,-1
 528 487 l 1,46,-1
406 225 m 1,50,-1
 402 224 l 1,51,-1
 398 220 l 1,52,-1
 406 225 l 1,50,-1
407 491 m 1,53,-1
 411 492 l 1,54,-1
 414 495 l 1,55,-1
 407 491 l 1,53,-1
400 511 m 1,56,-1
 406 517 l 1,57,-1
 548 517 l 1,58,-1
 558 507 l 1,59,-1
 564 492 l 1,60,-1
 422 208 l 1,61,-1
 413 205 l 1,62,-1
 406 198 l 1,63,-1
 264 198 l 1,64,-1
 254 208 l 1,65,-1
 248 223 l 1,66,-1
 390 507 l 1,67,-1
 400 511 l 1,56,-1
254 208 m 1024,68,-1
254 208 m 1,69,-1
 258 202 l 1,70,-1
 256 203 l 1,71,-1
 254 208 l 1,69,-1
254 208 m 1,72,-1
 249 213 l 1,73,-1
 249 216 l 1,74,-1
 254 208 l 1,72,-1
558 507 m 1024,75,-1
558 507 m 1,76,-1
 554 513 l 1,77,-1
 556 512 l 1,78,-1
 558 507 l 1,76,-1
558 507 m 1,79,-1
 563 502 l 1,80,-1
 563 500 l 1,81,-1
 558 507 l 1,79,-1
EndSplineSet
EndChar

StartChar: one
Encoding: 49 49 20
Width: 813
GlyphClass: 2
Flags: W
LayerCount: 2
Back
Fore
SplineSet
403 730 m 2,0,-1
 764 730 l 1,1,-1
 778 714 l 1,2,-1
 778 3 l 1,3,-1
 761 -14 l 1,4,-1
 619 -14 l 1,5,-1
 602 3 l 1,6,-1
 602 552 l 1,7,-1
 404 552 l 2,8,9
 322 552 322 552 267 496 c 128,-1,10
 212 440 212 440 212 358 c 1,11,-1
 194 340 l 1,12,-1
 52 340 l 1,13,-1
 34 358 l 1,14,15
 34 461 34 461 82.5 546 c 128,-1,16
 131 631 131 631 216 680 c 128,-1,17
 301 729 301 729 403 730 c 2,0,-1
748 700 m 1,18,-1
 404 700 l 2,19,20
 262 699 262 699 165.5 604.5 c 128,-1,21
 69 510 69 510 65 370 c 1,22,-1
 182 370 l 1,23,24
 186 460 186 460 249 521 c 128,-1,25
 312 582 312 582 403 582 c 2,26,-1
 616 582 l 1,27,-1
 632 568 l 1,28,-1
 632 16 l 1,29,-1
 748 16 l 1,30,-1
 748 700 l 1,18,-1
EndSplineSet
EndChar

StartChar: two
Encoding: 50 50 21
Width: 813
GlyphClass: 2
Flags: W
LayerCount: 2
Back
Fore
SplineSet
50 729 m 1,0,-1
 410 729 l 2,1,2
 512 728 512 728 597 679 c 128,-1,3
 682 630 682 630 730 545 c 128,-1,4
 778 460 778 460 778 358 c 1,5,-1
 761 340 l 1,6,-1
 619 340 l 1,7,-1
 602 358 l 1,8,9
 602 440 602 440 546.5 495.5 c 128,-1,10
 491 551 491 551 409 552 c 2,11,-1
 50 552 l 1,12,-1
 34 567 l 1,13,-1
 34 714 l 1,14,-1
 50 729 l 1,0,-1
748 370 m 1,15,16
 744 510 744 510 647.5 604 c 128,-1,17
 551 698 551 698 409 699 c 2,18,-1
 64 699 l 1,19,-1
 64 582 l 1,20,-1
 410 582 l 2,21,22
 501 581 501 581 564 520.5 c 128,-1,23
 627 460 627 460 631 370 c 1,24,-1
 748 370 l 1,15,16
182 345 m 1,25,-1
 65 345 l 1,26,27
 69 204 69 204 167 109.5 c 128,-1,28
 265 15 265 15 407 15 c 2,29,-1
 748 15 l 1,30,-1
 748 132 l 1,31,-1
 407 132 l 2,32,33
 314 132 314 132 250 193 c 128,-1,34
 186 254 186 254 182 345 c 1,25,-1
34 358 m 1,35,-1
 52 375 l 1,36,-1
 194 375 l 1,37,-1
 212 358 l 1,38,39
 212 274 212 274 268 218 c 128,-1,40
 324 162 324 162 407 162 c 2,41,-1
 764 162 l 1,42,-1
 778 147 l 1,43,-1
 778 0 l 1,44,-1
 764 -15 l 1,45,-1
 407 -15 l 2,46,47
 303 -15 303 -15 217.5 34 c 128,-1,48
 132 83 132 83 83 168.5 c 128,-1,49
 34 254 34 254 34 358 c 1,35,-1
EndSplineSet
EndChar

StartChar: three
Encoding: 51 51 22
Width: 813
GlyphClass: 2
Flags: W
LayerCount: 2
Back
Fore
SplineSet
50 729 m 1,0,-1
 409 729 l 2,1,2
 544 728 544 728 643.5 647 c 128,-1,3
 743 566 743 566 770 438 c 1,4,-1
 778 430 l 1,5,-1
 778 284 l 1,6,-1
 770 276 l 1,7,8
 743 147 743 147 642.5 66 c 128,-1,9
 542 -15 542 -15 406 -15 c 2,10,-1
 50 -15 l 1,11,-1
 35 0 l 1,12,-1
 35 147 l 1,13,-1
 50 162 l 1,14,-1
 406 162 l 2,15,16
 465 162 465 162 511.5 191 c 128,-1,17
 558 220 558 220 582 269 c 1,18,-1
 262 269 l 1,19,-1
 247 284 l 1,20,-1
 247 430 l 1,21,-1
 262 445 l 1,22,-1
 582 445 l 1,23,24
 559 494 559 494 513 522.5 c 128,-1,25
 467 551 467 551 409 552 c 2,26,-1
 50 552 l 1,27,-1
 35 567 l 1,28,-1
 35 714 l 1,29,-1
 50 729 l 1,0,-1
748 422 m 1,30,-1
 741 427 l 1,31,32
 718 546 718 546 626.5 622 c 128,-1,33
 535 698 535 698 409 699 c 2,34,-1
 65 699 l 1,35,-1
 65 582 l 1,36,-1
 409 582 l 2,37,38
 482 581 482 581 539 540.5 c 128,-1,39
 596 500 596 500 619 435 c 1,40,-1
 605 415 l 1,41,-1
 277 415 l 1,42,-1
 277 299 l 1,43,-1
 604 299 l 1,44,-1
 619 279 l 1,45,46
 595 213 595 213 537.5 172.5 c 128,-1,47
 480 132 480 132 406 132 c 2,48,-1
 65 132 l 1,49,-1
 65 15 l 1,50,-1
 406 15 l 2,51,52
 533 15 533 15 625.5 91 c 128,-1,53
 718 167 718 167 741 287 c 1,54,-1
 748 292 l 1,55,-1
 748 422 l 1,30,-1
749 419 m 1,56,-1
 751 417 l 1,57,-1
 743 416 l 2,58,59
 743 417 743 417 742.5 419 c 128,-1,60
 742 421 742 421 742 422 c 2,61,-1
 743 423 l 1,62,-1
 743 425 l 1,63,-1
 744 424 l 1,64,-1
 757 440 l 1,65,-1
 758 440 l 1,66,-1
 771 427 l 1,67,-1
 772 428 l 2,68,69
 772 427 772 427 772 426 c 2,70,-1
 773 425 l 1,71,-1
 773 419 l 1,72,-1
 764 418 l 1,73,-1
 766 421 l 1,74,-1
 749 419 l 1,56,-1
757 411 m 1,75,-1
 758 410 l 1,76,-1
 757 410 l 1,77,-1
 757 411 l 1,75,-1
757 411 m 1,78,-1
 764 418 l 1,79,-1
 751 417 l 1,80,-1
 757 411 l 1,78,-1
757 303 m 1,81,-1
 752 298 l 1,82,-1
 763 297 l 1,83,-1
 757 303 l 1,81,-1
757 303 m 1,84,-1
 757 304 l 1,85,-1
 758 304 l 1,86,-1
 757 303 l 1,84,-1
749 295 m 1,87,-1
 765 294 l 1,88,-1
 763 297 l 1,89,-1
 773 296 l 1,90,-1
 773 289 l 1,91,-1
 772 288 l 1,92,-1
 772 286 l 1,93,-1
 771 287 l 1,94,-1
 758 274 l 1,95,-1
 757 274 l 1,96,-1
 744 290 l 1,97,-1
 743 289 l 1,98,-1
 743 291 l 1,99,-1
 742 292 l 1,100,101
 743 297 743 297 743 298 c 2,102,-1
 752 298 l 1,103,-1
 749 295 l 1,87,-1
EndSplineSet
EndChar

StartChar: four
Encoding: 52 52 23
Width: 813
GlyphClass: 2
Flags: W
LayerCount: 2
Back
Fore
SplineSet
404 700 m 2,0,1
 260 699 260 699 162.5 601.5 c 128,-1,2
 65 504 65 504 64 360 c 2,3,-1
 64 228 l 1,4,-1
 616 228 l 1,5,-1
 632 214 l 1,6,-1
 632 16 l 1,7,-1
 748 16 l 1,8,-1
 748 700 l 1,9,-1
 404 700 l 2,0,1
403 730 m 2,10,-1
 764 730 l 1,11,-1
 778 714 l 1,12,-1
 778 3 l 1,13,-1
 761 -14 l 1,14,-1
 619 -14 l 1,15,-1
 602 3 l 1,16,-1
 602 198 l 1,17,-1
 50 198 l 1,18,-1
 34 214 l 1,19,-1
 34 361 l 2,20,21
 35 463 35 463 83.5 547.5 c 128,-1,22
 132 632 132 632 216.5 680.5 c 128,-1,23
 301 729 301 729 403 730 c 2,10,-1
212 376 m 1,24,-1
 602 376 l 1,25,-1
 602 552 l 1,26,-1
 404 552 l 2,27,28
 326 552 326 552 272 501.5 c 128,-1,29
 218 451 218 451 212 376 c 1,24,-1
403 582 m 2,30,-1
 616 582 l 1,31,-1
 632 568 l 1,32,-1
 632 360 l 1,33,-1
 616 346 l 1,34,-1
 196 346 l 1,35,-1
 182 361 l 1,36,37
 183 454 183 454 246.5 518 c 128,-1,38
 310 582 310 582 403 582 c 2,30,-1
EndSplineSet
EndChar

StartChar: five
Encoding: 53 53 24
Width: 813
GlyphClass: 2
Flags: W
LayerCount: 2
Back
Fore
SplineSet
404 729 m 2,0,-1
 763 729 l 1,1,-1
 778 714 l 1,2,-1
 778 567 l 1,3,-1
 763 552 l 1,4,-1
 404 552 l 2,5,6
 322 551 322 551 266.5 495.5 c 128,-1,7
 211 440 211 440 211 358 c 1,8,-1
 194 340 l 1,9,-1
 52 340 l 1,10,-1
 35 358 l 1,11,12
 35 460 35 460 83.5 545 c 128,-1,13
 132 630 132 630 216.5 679 c 128,-1,14
 301 728 301 728 404 729 c 2,0,-1
748 699 m 1,15,-1
 404 699 l 2,16,17
 263 698 263 698 166.5 604 c 128,-1,18
 70 510 70 510 65 370 c 1,19,-1
 181 370 l 1,20,21
 186 460 186 460 249 520.5 c 128,-1,22
 312 581 312 581 404 582 c 2,23,-1
 748 582 l 1,24,-1
 748 699 l 1,15,-1
748 345 m 1,25,-1
 631 345 l 1,26,27
 626 253 626 253 562 192.5 c 128,-1,28
 498 132 498 132 406 132 c 2,29,-1
 65 132 l 1,30,-1
 65 15 l 1,31,-1
 406 15 l 2,32,33
 549 15 549 15 646 109.5 c 128,-1,34
 743 204 743 204 748 345 c 1,25,-1
601 358 m 1,35,-1
 618 375 l 1,36,-1
 760 375 l 1,37,-1
 778 358 l 1,38,39
 778 199 778 199 671 92 c 128,-1,40
 564 -15 564 -15 406 -15 c 2,41,-1
 50 -15 l 1,42,-1
 35 0 l 1,43,-1
 35 147 l 1,44,-1
 50 162 l 1,45,-1
 406 162 l 2,46,47
 489 162 489 162 545 218 c 128,-1,48
 601 274 601 274 601 358 c 1,35,-1
EndSplineSet
EndChar

StartChar: six
Encoding: 54 54 25
Width: 813
GlyphClass: 2
Flags: W
LayerCount: 2
Back
Fore
SplineSet
404 699 m 2,0,1
 260 698 260 698 162.5 600.5 c 128,-1,2
 65 503 65 503 64 360 c 2,3,-1
 64 15 l 1,4,-1
 406 15 l 2,5,6
 548 15 548 15 646 109.5 c 128,-1,7
 744 204 744 204 748 345 c 1,8,-1
 631 345 l 1,9,10
 627 253 627 253 562.5 192.5 c 128,-1,11
 498 132 498 132 406 132 c 2,12,-1
 196 132 l 1,13,-1
 182 147 l 1,14,-1
 182 360 l 2,15,16
 183 454 183 454 246.5 517.5 c 128,-1,17
 310 581 310 581 403 582 c 2,18,-1
 748 582 l 1,19,-1
 748 699 l 1,20,-1
 404 699 l 2,0,1
403 729 m 2,21,-1
 764 729 l 1,22,-1
 778 714 l 1,23,-1
 778 567 l 1,24,-1
 764 552 l 1,25,-1
 404 552 l 2,26,27
 322 551 322 551 267 496 c 128,-1,28
 212 441 212 441 212 360 c 2,29,-1
 212 162 l 1,30,-1
 406 162 l 2,31,32
 489 162 489 162 545.5 218 c 128,-1,33
 602 274 602 274 602 358 c 1,34,-1
 619 375 l 1,35,-1
 761 375 l 1,36,-1
 778 358 l 1,37,38
 778 254 778 254 729.5 168.5 c 128,-1,39
 681 83 681 83 595.5 34 c 128,-1,40
 510 -15 510 -15 406 -15 c 2,41,-1
 50 -15 l 1,42,-1
 34 0 l 1,43,-1
 34 360 l 2,44,45
 35 462 35 462 83.5 546.5 c 128,-1,46
 132 631 132 631 216.5 679.5 c 128,-1,47
 301 728 301 728 403 729 c 2,21,-1
EndSplineSet
EndChar

StartChar: seven
Encoding: 55 55 26
Width: 813
GlyphClass: 2
Flags: W
LayerCount: 2
Back
Fore
SplineSet
50 728 m 1,0,-1
 409 728 l 2,1,2
 511 728 511 728 596 679.5 c 128,-1,3
 681 631 681 631 729.5 546.5 c 128,-1,4
 778 462 778 462 778 360 c 2,5,-1
 778 0 l 1,6,-1
 764 -14 l 1,7,-1
 616 -14 l 1,8,-1
 602 0 l 1,9,-1
 602 359 l 2,10,11
 601 442 601 442 545.5 497 c 128,-1,12
 490 552 490 552 408 552 c 2,13,-1
 50 552 l 1,14,-1
 34 568 l 1,15,-1
 34 714 l 1,16,-1
 50 728 l 1,0,-1
748 16 m 1,17,-1
 748 359 l 2,18,19
 748 503 748 503 650 600.5 c 128,-1,20
 552 698 552 698 408 698 c 2,21,-1
 64 698 l 1,22,-1
 64 582 l 1,23,-1
 409 582 l 2,24,25
 503 581 503 581 567 517.5 c 128,-1,26
 631 454 631 454 632 360 c 2,27,-1
 632 16 l 1,28,-1
 748 16 l 1,17,-1
EndSplineSet
EndChar

StartChar: eight
Encoding: 56 56 27
Width: 813
GlyphClass: 2
Flags: W
LayerCount: 2
Back
Fore
SplineSet
405 698 m 2,0,1
 279 697 279 697 187 621.5 c 128,-1,2
 95 546 95 546 71 427 c 1,3,-1
 64 422 l 1,4,-1
 64 15 l 1,5,-1
 407 15 l 2,6,7
 533 15 533 15 625.5 91 c 128,-1,8
 718 167 718 167 742 286 c 1,9,-1
 748 291 l 1,10,-1
 748 698 l 1,11,-1
 405 698 l 2,0,1
404 728 m 2,12,-1
 764 728 l 1,13,-1
 778 713 l 1,14,-1
 778 283 l 1,15,-1
 770 275 l 1,16,17
 743 147 743 147 643 66 c 128,-1,18
 543 -15 543 -15 407 -15 c 2,19,-1
 50 -15 l 1,20,-1
 34 0 l 1,21,-1
 34 430 l 1,22,-1
 43 438 l 1,23,24
 70 565 70 565 170 646 c 128,-1,25
 270 727 270 727 404 728 c 2,12,-1
405 552 m 2,26,27
 347 551 347 551 301 522.5 c 128,-1,28
 255 494 255 494 231 445 c 1,29,-1
 602 445 l 1,30,-1
 602 552 l 1,31,-1
 405 552 l 2,26,27
404 582 m 2,32,-1
 616 582 l 1,33,-1
 632 567 l 1,34,-1
 632 430 l 1,35,-1
 616 415 l 1,36,-1
 209 415 l 1,37,-1
 195 435 l 1,38,39
 218 501 218 501 274.5 541 c 128,-1,40
 331 581 331 581 404 582 c 2,32,-1
212 268 m 1,41,-1
 212 162 l 1,42,-1
 407 162 l 2,43,44
 465 162 465 162 511.5 190.5 c 128,-1,45
 558 219 558 219 582 268 c 1,46,-1
 212 268 l 1,41,-1
196 298 m 1,47,-1
 604 298 l 1,48,-1
 618 278 l 1,49,50
 595 212 595 212 537.5 172 c 128,-1,51
 480 132 480 132 407 132 c 2,52,-1
 196 132 l 1,53,-1
 182 147 l 1,54,-1
 182 283 l 1,55,-1
 196 298 l 1,47,-1
47 420 m 1,56,-1
 50 417 l 1,57,-1
 40 418 l 1,58,-1
 40 425 l 1,59,-1
 41 426 l 1,60,-1
 41 428 l 1,61,-1
 42 427 l 1,62,-1
 54 440 l 1,63,-1
 56 440 l 1,64,-1
 69 424 l 1,65,-1
 70 425 l 1,66,-1
 70 423 l 1,67,-1
 71 422 l 2,68,69
 70 422 70 422 69.5 419.5 c 128,-1,70
 69 417 69 417 69 416 c 2,71,-1
 61 416 l 1,72,-1
 63 419 l 1,73,-1
 47 420 l 1,56,-1
55 411 m 1,74,-1
 56 410 l 1,75,-1
 54 410 l 1,76,-1
 55 411 l 1,74,-1
55 411 m 1,77,-1
 61 416 l 1,78,-1
 50 417 l 1,79,-1
 55 411 l 1,77,-1
596 288 m 128,-1,81
 596 303 596 303 611 303 c 128,-1,82
 626 303 626 303 626 288 c 128,-1,83
 626 273 626 273 611 273 c 128,-1,80
 596 273 596 273 596 288 c 128,-1,81
758 302 m 1,84,-1
 752 297 l 1,85,-1
 763 296 l 1,86,-1
 758 302 l 1,84,-1
758 302 m 1,87,-1
 757 303 l 1,88,-1
 758 303 l 1,89,-1
 758 302 l 1,87,-1
750 294 m 1,90,-1
 765 293 l 1,91,-1
 763 296 l 1,92,-1
 774 295 l 1,93,-1
 774 288 l 1,94,-1
 772 287 l 1,95,-1
 772 285 l 1,96,-1
 771 286 l 1,97,-1
 758 273 l 1,98,-1
 757 273 l 1,99,-1
 744 289 l 1,100,-1
 744 288 l 1,101,-1
 744 290 l 1,102,-1
 742 291 l 1,103,104
 743 296 743 296 744 297 c 2,105,-1
 752 297 l 1,106,-1
 750 294 l 1,90,-1
EndSplineSet
EndChar

StartChar: nine
Encoding: 57 57 28
Width: 813
GlyphClass: 2
Flags: W
LayerCount: 2
Back
Fore
SplineSet
404 728 m 2,0,-1
 763 728 l 1,1,-1
 778 713 l 1,2,-1
 778 356 l 2,3,4
 778 199 778 199 671 92 c 128,-1,5
 564 -15 564 -15 406 -15 c 2,6,-1
 50 -15 l 1,7,-1
 35 0 l 1,8,-1
 35 147 l 1,9,-1
 50 162 l 1,10,-1
 406 162 l 2,11,12
 489 162 489 162 545 217 c 128,-1,13
 601 272 601 272 602 354 c 2,14,-1
 602 552 l 1,15,-1
 404 552 l 2,16,17
 322 551 322 551 266.5 495 c 128,-1,18
 211 439 211 439 211 356 c 1,19,-1
 194 339 l 1,20,-1
 52 339 l 1,21,-1
 35 356 l 1,22,23
 35 460 35 460 83 545 c 128,-1,24
 131 630 131 630 216 678.5 c 128,-1,25
 301 727 301 727 404 728 c 2,0,-1
748 698 m 1,26,-1
 404 698 l 2,27,28
 263 697 263 697 166.5 603.5 c 128,-1,29
 70 510 70 510 65 369 c 1,30,-1
 181 369 l 1,31,32
 186 460 186 460 249.5 520.5 c 128,-1,33
 313 581 313 581 404 582 c 2,34,-1
 617 582 l 1,35,-1
 632 567 l 1,36,-1
 632 354 l 2,37,38
 631 260 631 260 566.5 196 c 128,-1,39
 502 132 502 132 406 132 c 2,40,-1
 65 132 l 1,41,-1
 65 15 l 1,42,-1
 406 15 l 2,43,44
 552 15 552 15 650 113 c 128,-1,45
 748 211 748 211 748 356 c 2,46,-1
 748 698 l 1,26,-1
EndSplineSet
EndChar

StartChar: colon
Encoding: 58 58 29
Width: 813
GlyphClass: 2
Flags: W
LayerCount: 2
Back
Fore
SplineSet
50 729 m 1,0,-1
 196 729 l 1,1,-1
 212 714 l 1,2,-1
 212 567 l 1,3,-1
 196 552 l 1,4,-1
 50 552 l 1,5,-1
 34 567 l 1,6,-1
 34 714 l 1,7,-1
 50 729 l 1,0,-1
182 699 m 1,8,-1
 64 699 l 1,9,-1
 64 582 l 1,10,-1
 182 582 l 1,11,-1
 182 699 l 1,8,-1
332 729 m 1,12,-1
 480 729 l 1,13,-1
 494 714 l 1,14,-1
 494 446 l 1,15,-1
 764 446 l 1,16,-1
 778 431 l 1,17,-1
 778 284 l 1,18,-1
 764 269 l 1,19,-1
 494 269 l 1,20,-1
 494 0 l 1,21,-1
 480 -15 l 1,22,-1
 332 -15 l 1,23,-1
 318 0 l 1,24,-1
 318 269 l 1,25,-1
 50 269 l 1,26,-1
 34 284 l 1,27,-1
 34 431 l 1,28,-1
 50 446 l 1,29,-1
 318 446 l 1,30,-1
 318 714 l 1,31,-1
 332 729 l 1,12,-1
464 699 m 1,32,-1
 348 699 l 1,33,-1
 348 431 l 1,34,-1
 332 416 l 1,35,-1
 64 416 l 1,36,-1
 64 299 l 1,37,-1
 332 299 l 1,38,-1
 348 284 l 1,39,-1
 348 15 l 1,40,-1
 464 15 l 1,41,-1
 464 284 l 1,42,-1
 480 299 l 1,43,-1
 748 299 l 1,44,-1
 748 416 l 1,45,-1
 480 416 l 1,46,-1
 464 431 l 1,47,-1
 464 699 l 1,32,-1
616 729 m 1,48,-1
 764 729 l 1,49,-1
 778 714 l 1,50,-1
 778 567 l 1,51,-1
 764 552 l 1,52,-1
 616 552 l 1,53,-1
 602 567 l 1,54,-1
 602 714 l 1,55,-1
 616 729 l 1,48,-1
748 699 m 1,56,-1
 632 699 l 1,57,-1
 632 582 l 1,58,-1
 748 582 l 1,59,-1
 748 699 l 1,56,-1
50 162 m 1,60,-1
 196 162 l 1,61,-1
 212 147 l 1,62,-1
 212 0 l 1,63,-1
 196 -15 l 1,64,-1
 50 -15 l 1,65,-1
 34 0 l 1,66,-1
 34 147 l 1,67,-1
 50 162 l 1,60,-1
182 132 m 1,68,-1
 64 132 l 1,69,-1
 64 15 l 1,70,-1
 182 15 l 1,71,-1
 182 132 l 1,68,-1
616 162 m 1,72,-1
 764 162 l 1,73,-1
 778 147 l 1,74,-1
 778 0 l 1,75,-1
 764 -15 l 1,76,-1
 616 -15 l 1,77,-1
 602 0 l 1,78,-1
 602 147 l 1,79,-1
 616 162 l 1,72,-1
748 132 m 1,80,-1
 632 132 l 1,81,-1
 632 15 l 1,82,-1
 748 15 l 1,83,-1
 748 132 l 1,80,-1
EndSplineSet
EndChar

StartChar: semicolon
Encoding: 59 59 30
Width: 813
GlyphClass: 2
Flags: W
LayerCount: 2
Back
Fore
SplineSet
50 729 m 1,0,-1
 196 729 l 1,1,-1
 212 714 l 1,2,-1
 212 567 l 1,3,-1
 196 552 l 1,4,-1
 50 552 l 1,5,-1
 34 567 l 1,6,-1
 34 714 l 1,7,-1
 50 729 l 1,0,-1
182 699 m 1,8,-1
 64 699 l 1,9,-1
 64 582 l 1,10,-1
 182 582 l 1,11,-1
 182 699 l 1,8,-1
332 729 m 1,12,-1
 480 729 l 1,13,-1
 494 714 l 1,14,-1
 494 446 l 1,15,-1
 764 446 l 1,16,-1
 778 431 l 1,17,-1
 778 284 l 1,18,-1
 764 269 l 1,19,-1
 494 269 l 1,20,-1
 494 0 l 1,21,-1
 480 -15 l 1,22,-1
 332 -15 l 1,23,-1
 318 0 l 1,24,-1
 318 269 l 1,25,-1
 50 269 l 1,26,-1
 34 284 l 1,27,-1
 34 431 l 1,28,-1
 50 446 l 1,29,-1
 318 446 l 1,30,-1
 318 714 l 1,31,-1
 332 729 l 1,12,-1
464 699 m 1,32,-1
 348 699 l 1,33,-1
 348 431 l 1,34,-1
 332 416 l 1,35,-1
 64 416 l 1,36,-1
 64 299 l 1,37,-1
 332 299 l 1,38,-1
 348 284 l 1,39,-1
 348 15 l 1,40,-1
 464 15 l 1,41,-1
 464 284 l 1,42,-1
 480 299 l 1,43,-1
 748 299 l 1,44,-1
 748 416 l 1,45,-1
 480 416 l 1,46,-1
 464 431 l 1,47,-1
 464 699 l 1,32,-1
616 729 m 1,48,-1
 764 729 l 1,49,-1
 778 714 l 1,50,-1
 778 567 l 1,51,-1
 764 552 l 1,52,-1
 616 552 l 1,53,-1
 602 567 l 1,54,-1
 602 714 l 1,55,-1
 616 729 l 1,48,-1
748 699 m 1,56,-1
 632 699 l 1,57,-1
 632 582 l 1,58,-1
 748 582 l 1,59,-1
 748 699 l 1,56,-1
50 162 m 1,60,-1
 196 162 l 1,61,-1
 212 147 l 1,62,-1
 212 0 l 1,63,-1
 196 -15 l 1,64,-1
 50 -15 l 1,65,-1
 34 0 l 1,66,-1
 34 147 l 1,67,-1
 50 162 l 1,60,-1
182 132 m 1,68,-1
 64 132 l 1,69,-1
 64 15 l 1,70,-1
 182 15 l 1,71,-1
 182 132 l 1,68,-1
616 162 m 1,72,-1
 764 162 l 1,73,-1
 778 147 l 1,74,-1
 778 0 l 1,75,-1
 764 -15 l 1,76,-1
 616 -15 l 1,77,-1
 602 0 l 1,78,-1
 602 147 l 1,79,-1
 616 162 l 1,72,-1
748 132 m 1,80,-1
 632 132 l 1,81,-1
 632 15 l 1,82,-1
 748 15 l 1,83,-1
 748 132 l 1,80,-1
EndSplineSet
EndChar

StartChar: less
Encoding: 60 60 31
Width: 813
GlyphClass: 2
Flags: W
LayerCount: 2
Back
Fore
SplineSet
50 729 m 1,0,-1
 196 729 l 1,1,-1
 212 714 l 1,2,-1
 212 567 l 1,3,-1
 196 552 l 1,4,-1
 50 552 l 1,5,-1
 34 567 l 1,6,-1
 34 714 l 1,7,-1
 50 729 l 1,0,-1
182 699 m 1,8,-1
 64 699 l 1,9,-1
 64 582 l 1,10,-1
 182 582 l 1,11,-1
 182 699 l 1,8,-1
332 729 m 1,12,-1
 480 729 l 1,13,-1
 494 714 l 1,14,-1
 494 446 l 1,15,-1
 764 446 l 1,16,-1
 778 431 l 1,17,-1
 778 284 l 1,18,-1
 764 269 l 1,19,-1
 494 269 l 1,20,-1
 494 0 l 1,21,-1
 480 -15 l 1,22,-1
 332 -15 l 1,23,-1
 318 0 l 1,24,-1
 318 269 l 1,25,-1
 50 269 l 1,26,-1
 34 284 l 1,27,-1
 34 431 l 1,28,-1
 50 446 l 1,29,-1
 318 446 l 1,30,-1
 318 714 l 1,31,-1
 332 729 l 1,12,-1
464 699 m 1,32,-1
 348 699 l 1,33,-1
 348 431 l 1,34,-1
 332 416 l 1,35,-1
 64 416 l 1,36,-1
 64 299 l 1,37,-1
 332 299 l 1,38,-1
 348 284 l 1,39,-1
 348 15 l 1,40,-1
 464 15 l 1,41,-1
 464 284 l 1,42,-1
 480 299 l 1,43,-1
 748 299 l 1,44,-1
 748 416 l 1,45,-1
 480 416 l 1,46,-1
 464 431 l 1,47,-1
 464 699 l 1,32,-1
616 729 m 1,48,-1
 764 729 l 1,49,-1
 778 714 l 1,50,-1
 778 567 l 1,51,-1
 764 552 l 1,52,-1
 616 552 l 1,53,-1
 602 567 l 1,54,-1
 602 714 l 1,55,-1
 616 729 l 1,48,-1
748 699 m 1,56,-1
 632 699 l 1,57,-1
 632 582 l 1,58,-1
 748 582 l 1,59,-1
 748 699 l 1,56,-1
50 162 m 1,60,-1
 196 162 l 1,61,-1
 212 147 l 1,62,-1
 212 0 l 1,63,-1
 196 -15 l 1,64,-1
 50 -15 l 1,65,-1
 34 0 l 1,66,-1
 34 147 l 1,67,-1
 50 162 l 1,60,-1
182 132 m 1,68,-1
 64 132 l 1,69,-1
 64 15 l 1,70,-1
 182 15 l 1,71,-1
 182 132 l 1,68,-1
616 162 m 1,72,-1
 764 162 l 1,73,-1
 778 147 l 1,74,-1
 778 0 l 1,75,-1
 764 -15 l 1,76,-1
 616 -15 l 1,77,-1
 602 0 l 1,78,-1
 602 147 l 1,79,-1
 616 162 l 1,72,-1
748 132 m 1,80,-1
 632 132 l 1,81,-1
 632 15 l 1,82,-1
 748 15 l 1,83,-1
 748 132 l 1,80,-1
EndSplineSet
EndChar

StartChar: equal
Encoding: 61 61 32
Width: 813
GlyphClass: 2
Flags: W
LayerCount: 2
Back
Fore
SplineSet
50 729 m 1,0,-1
 196 729 l 1,1,-1
 212 714 l 1,2,-1
 212 567 l 1,3,-1
 196 552 l 1,4,-1
 50 552 l 1,5,-1
 34 567 l 1,6,-1
 34 714 l 1,7,-1
 50 729 l 1,0,-1
182 699 m 1,8,-1
 64 699 l 1,9,-1
 64 582 l 1,10,-1
 182 582 l 1,11,-1
 182 699 l 1,8,-1
332 729 m 1,12,-1
 480 729 l 1,13,-1
 494 714 l 1,14,-1
 494 446 l 1,15,-1
 764 446 l 1,16,-1
 778 431 l 1,17,-1
 778 284 l 1,18,-1
 764 269 l 1,19,-1
 494 269 l 1,20,-1
 494 0 l 1,21,-1
 480 -15 l 1,22,-1
 332 -15 l 1,23,-1
 318 0 l 1,24,-1
 318 269 l 1,25,-1
 50 269 l 1,26,-1
 34 284 l 1,27,-1
 34 431 l 1,28,-1
 50 446 l 1,29,-1
 318 446 l 1,30,-1
 318 714 l 1,31,-1
 332 729 l 1,12,-1
464 699 m 1,32,-1
 348 699 l 1,33,-1
 348 431 l 1,34,-1
 332 416 l 1,35,-1
 64 416 l 1,36,-1
 64 299 l 1,37,-1
 332 299 l 1,38,-1
 348 284 l 1,39,-1
 348 15 l 1,40,-1
 464 15 l 1,41,-1
 464 284 l 1,42,-1
 480 299 l 1,43,-1
 748 299 l 1,44,-1
 748 416 l 1,45,-1
 480 416 l 1,46,-1
 464 431 l 1,47,-1
 464 699 l 1,32,-1
616 729 m 1,48,-1
 764 729 l 1,49,-1
 778 714 l 1,50,-1
 778 567 l 1,51,-1
 764 552 l 1,52,-1
 616 552 l 1,53,-1
 602 567 l 1,54,-1
 602 714 l 1,55,-1
 616 729 l 1,48,-1
748 699 m 1,56,-1
 632 699 l 1,57,-1
 632 582 l 1,58,-1
 748 582 l 1,59,-1
 748 699 l 1,56,-1
50 162 m 1,60,-1
 196 162 l 1,61,-1
 212 147 l 1,62,-1
 212 0 l 1,63,-1
 196 -15 l 1,64,-1
 50 -15 l 1,65,-1
 34 0 l 1,66,-1
 34 147 l 1,67,-1
 50 162 l 1,60,-1
182 132 m 1,68,-1
 64 132 l 1,69,-1
 64 15 l 1,70,-1
 182 15 l 1,71,-1
 182 132 l 1,68,-1
616 162 m 1,72,-1
 764 162 l 1,73,-1
 778 147 l 1,74,-1
 778 0 l 1,75,-1
 764 -15 l 1,76,-1
 616 -15 l 1,77,-1
 602 0 l 1,78,-1
 602 147 l 1,79,-1
 616 162 l 1,72,-1
748 132 m 1,80,-1
 632 132 l 1,81,-1
 632 15 l 1,82,-1
 748 15 l 1,83,-1
 748 132 l 1,80,-1
EndSplineSet
EndChar

StartChar: greater
Encoding: 62 62 33
Width: 813
GlyphClass: 2
Flags: W
LayerCount: 2
Back
Fore
SplineSet
50 729 m 1,0,-1
 196 729 l 1,1,-1
 212 714 l 1,2,-1
 212 567 l 1,3,-1
 196 552 l 1,4,-1
 50 552 l 1,5,-1
 34 567 l 1,6,-1
 34 714 l 1,7,-1
 50 729 l 1,0,-1
182 699 m 1,8,-1
 64 699 l 1,9,-1
 64 582 l 1,10,-1
 182 582 l 1,11,-1
 182 699 l 1,8,-1
332 729 m 1,12,-1
 480 729 l 1,13,-1
 494 714 l 1,14,-1
 494 446 l 1,15,-1
 764 446 l 1,16,-1
 778 431 l 1,17,-1
 778 284 l 1,18,-1
 764 269 l 1,19,-1
 494 269 l 1,20,-1
 494 0 l 1,21,-1
 480 -15 l 1,22,-1
 332 -15 l 1,23,-1
 318 0 l 1,24,-1
 318 269 l 1,25,-1
 50 269 l 1,26,-1
 34 284 l 1,27,-1
 34 431 l 1,28,-1
 50 446 l 1,29,-1
 318 446 l 1,30,-1
 318 714 l 1,31,-1
 332 729 l 1,12,-1
464 699 m 1,32,-1
 348 699 l 1,33,-1
 348 431 l 1,34,-1
 332 416 l 1,35,-1
 64 416 l 1,36,-1
 64 299 l 1,37,-1
 332 299 l 1,38,-1
 348 284 l 1,39,-1
 348 15 l 1,40,-1
 464 15 l 1,41,-1
 464 284 l 1,42,-1
 480 299 l 1,43,-1
 748 299 l 1,44,-1
 748 416 l 1,45,-1
 480 416 l 1,46,-1
 464 431 l 1,47,-1
 464 699 l 1,32,-1
616 729 m 1,48,-1
 764 729 l 1,49,-1
 778 714 l 1,50,-1
 778 567 l 1,51,-1
 764 552 l 1,52,-1
 616 552 l 1,53,-1
 602 567 l 1,54,-1
 602 714 l 1,55,-1
 616 729 l 1,48,-1
748 699 m 1,56,-1
 632 699 l 1,57,-1
 632 582 l 1,58,-1
 748 582 l 1,59,-1
 748 699 l 1,56,-1
50 162 m 1,60,-1
 196 162 l 1,61,-1
 212 147 l 1,62,-1
 212 0 l 1,63,-1
 196 -15 l 1,64,-1
 50 -15 l 1,65,-1
 34 0 l 1,66,-1
 34 147 l 1,67,-1
 50 162 l 1,60,-1
182 132 m 1,68,-1
 64 132 l 1,69,-1
 64 15 l 1,70,-1
 182 15 l 1,71,-1
 182 132 l 1,68,-1
616 162 m 1,72,-1
 764 162 l 1,73,-1
 778 147 l 1,74,-1
 778 0 l 1,75,-1
 764 -15 l 1,76,-1
 616 -15 l 1,77,-1
 602 0 l 1,78,-1
 602 147 l 1,79,-1
 616 162 l 1,72,-1
748 132 m 1,80,-1
 632 132 l 1,81,-1
 632 15 l 1,82,-1
 748 15 l 1,83,-1
 748 132 l 1,80,-1
EndSplineSet
EndChar

StartChar: question
Encoding: 63 63 34
Width: 813
GlyphClass: 2
Flags: W
LayerCount: 2
Back
Fore
SplineSet
403 728 m 2,0,-1
 764 728 l 1,1,-1
 778 713 l 1,2,-1
 778 212 l 1,3,-1
 764 197 l 1,4,-1
 616 197 l 1,5,-1
 602 212 l 1,6,-1
 602 552 l 1,7,-1
 404 552 l 2,8,9
 321 551 321 551 266.5 495 c 128,-1,10
 212 439 212 439 212 356 c 1,11,-1
 194 339 l 1,12,-1
 52 339 l 1,13,-1
 34 356 l 1,14,15
 34 460 34 460 82.5 545 c 128,-1,16
 131 630 131 630 215.5 678.5 c 128,-1,17
 300 727 300 727 403 728 c 2,0,-1
748 698 m 1,18,-1
 404 698 l 2,19,20
 263 697 263 697 166 603.5 c 128,-1,21
 69 510 69 510 65 369 c 1,22,-1
 182 369 l 1,23,24
 186 460 186 460 249 520.5 c 128,-1,25
 312 581 312 581 403 582 c 2,26,-1
 616 582 l 1,27,-1
 632 567 l 1,28,-1
 632 227 l 1,29,-1
 748 227 l 1,30,-1
 748 698 l 1,18,-1
616 162 m 1,31,-1
 764 162 l 1,32,-1
 778 147 l 1,33,-1
 778 0 l 1,34,-1
 764 -15 l 1,35,-1
 616 -15 l 1,36,-1
 602 0 l 1,37,-1
 602 147 l 1,38,-1
 616 162 l 1,31,-1
748 132 m 1,39,-1
 632 132 l 1,40,-1
 632 15 l 1,41,-1
 748 15 l 1,42,-1
 748 132 l 1,39,-1
EndSplineSet
EndChar

StartChar: at
Encoding: 64 64 35
Width: 813
GlyphClass: 2
Flags: W
LayerCount: 2
Back
Fore
SplineSet
50 729 m 1,0,-1
 196 729 l 1,1,-1
 212 714 l 1,2,-1
 212 567 l 1,3,-1
 196 552 l 1,4,-1
 50 552 l 1,5,-1
 34 567 l 1,6,-1
 34 714 l 1,7,-1
 50 729 l 1,0,-1
182 699 m 1,8,-1
 64 699 l 1,9,-1
 64 582 l 1,10,-1
 182 582 l 1,11,-1
 182 699 l 1,8,-1
332 729 m 1,12,-1
 480 729 l 1,13,-1
 494 714 l 1,14,-1
 494 446 l 1,15,-1
 764 446 l 1,16,-1
 778 431 l 1,17,-1
 778 284 l 1,18,-1
 764 269 l 1,19,-1
 494 269 l 1,20,-1
 494 0 l 1,21,-1
 480 -15 l 1,22,-1
 332 -15 l 1,23,-1
 318 0 l 1,24,-1
 318 269 l 1,25,-1
 50 269 l 1,26,-1
 34 284 l 1,27,-1
 34 431 l 1,28,-1
 50 446 l 1,29,-1
 318 446 l 1,30,-1
 318 714 l 1,31,-1
 332 729 l 1,12,-1
464 699 m 1,32,-1
 348 699 l 1,33,-1
 348 431 l 1,34,-1
 332 416 l 1,35,-1
 64 416 l 1,36,-1
 64 299 l 1,37,-1
 332 299 l 1,38,-1
 348 284 l 1,39,-1
 348 15 l 1,40,-1
 464 15 l 1,41,-1
 464 284 l 1,42,-1
 480 299 l 1,43,-1
 748 299 l 1,44,-1
 748 416 l 1,45,-1
 480 416 l 1,46,-1
 464 431 l 1,47,-1
 464 699 l 1,32,-1
616 729 m 1,48,-1
 764 729 l 1,49,-1
 778 714 l 1,50,-1
 778 567 l 1,51,-1
 764 552 l 1,52,-1
 616 552 l 1,53,-1
 602 567 l 1,54,-1
 602 714 l 1,55,-1
 616 729 l 1,48,-1
748 699 m 1,56,-1
 632 699 l 1,57,-1
 632 582 l 1,58,-1
 748 582 l 1,59,-1
 748 699 l 1,56,-1
50 162 m 1,60,-1
 196 162 l 1,61,-1
 212 147 l 1,62,-1
 212 0 l 1,63,-1
 196 -15 l 1,64,-1
 50 -15 l 1,65,-1
 34 0 l 1,66,-1
 34 147 l 1,67,-1
 50 162 l 1,60,-1
182 132 m 1,68,-1
 64 132 l 1,69,-1
 64 15 l 1,70,-1
 182 15 l 1,71,-1
 182 132 l 1,68,-1
616 162 m 1,72,-1
 764 162 l 1,73,-1
 778 147 l 1,74,-1
 778 0 l 1,75,-1
 764 -15 l 1,76,-1
 616 -15 l 1,77,-1
 602 0 l 1,78,-1
 602 147 l 1,79,-1
 616 162 l 1,72,-1
748 132 m 1,80,-1
 632 132 l 1,81,-1
 632 15 l 1,82,-1
 748 15 l 1,83,-1
 748 132 l 1,80,-1
EndSplineSet
EndChar

StartChar: A
Encoding: 65 65 36
Width: 813
GlyphClass: 2
Flags: W
LayerCount: 2
Back
Fore
SplineSet
404 700 m 2,0,1
 259 699 259 699 162 600.5 c 128,-1,2
 65 502 65 502 65 357 c 2,3,-1
 65 16 l 1,4,-1
 181 16 l 1,5,-1
 181 214 l 1,6,-1
 196 228 l 1,7,-1
 617 228 l 1,8,-1
 632 214 l 1,9,-1
 632 16 l 1,10,-1
 748 16 l 1,11,-1
 748 700 l 1,12,-1
 404 700 l 2,0,1
404 730 m 2,13,-1
 763 730 l 1,14,-1
 778 714 l 1,15,-1
 778 3 l 1,16,-1
 760 -14 l 1,17,-1
 620 -14 l 1,18,-1
 602 3 l 1,19,-1
 602 198 l 1,20,-1
 211 198 l 1,21,-1
 211 3 l 1,22,-1
 194 -14 l 1,23,-1
 52 -14 l 1,24,-1
 35 3 l 1,25,-1
 35 357 l 2,26,27
 35 460 35 460 83.5 545.5 c 128,-1,28
 132 631 132 631 216.5 680 c 128,-1,29
 301 729 301 729 404 730 c 2,13,-1
212 374 m 1,30,-1
 602 374 l 1,31,-1
 602 552 l 1,32,-1
 404 552 l 2,33,34
 327 552 327 552 272.5 501.5 c 128,-1,35
 218 451 218 451 212 374 c 1,30,-1
404 582 m 2,36,-1
 617 582 l 1,37,-1
 632 568 l 1,38,-1
 632 360 l 1,39,-1
 617 344 l 1,40,-1
 196 344 l 1,41,-1
 181 360 l 1,42,43
 182 454 182 454 246 518 c 128,-1,44
 310 582 310 582 404 582 c 2,36,-1
38 357 m 128,-1,46
 38 363 38 363 42 367.5 c 128,-1,47
 46 372 46 372 52.5 372 c 128,-1,48
 59 372 59 372 63.5 367.5 c 128,-1,49
 68 363 68 363 68 357 c 128,-1,50
 68 351 68 351 63.5 346.5 c 128,-1,51
 59 342 59 342 52.5 342 c 128,-1,52
 46 342 46 342 42 346.5 c 128,-1,45
 38 351 38 351 38 357 c 128,-1,46
EndSplineSet
EndChar

StartChar: B
Encoding: 66 66 37
Width: 813
GlyphClass: 2
Flags: W
LayerCount: 2
Back
Fore
SplineSet
548 728 m 2,0,1
 643 728 643 728 710.5 660.5 c 128,-1,2
 778 593 778 593 778 498 c 0,3,4
 778 419 778 419 729 356 c 1,5,6
 778 294 778 294 778 214 c 0,7,8
 778 120 778 120 710.5 52.5 c 128,-1,9
 643 -15 643 -15 548 -15 c 2,10,-1
 52 -15 l 1,11,-1
 35 2 l 1,12,-1
 35 710 l 1,13,-1
 52 728 l 1,14,-1
 548 728 l 2,0,1
65 698 m 1,15,-1
 65 15 l 1,16,-1
 548 15 l 2,17,18
 631 15 631 15 689.5 73.5 c 128,-1,19
 748 132 748 132 748 214 c 0,20,21
 748 290 748 290 698 347 c 1,22,-1
 698 366 l 1,23,24
 748 423 748 423 748 498 c 0,25,26
 748 581 748 581 689.5 639.5 c 128,-1,27
 631 698 631 698 548 698 c 2,28,-1
 65 698 l 1,15,-1
211 552 m 1,29,-1
 211 445 l 1,30,-1
 548 445 l 2,31,32
 570 445 570 445 586 461 c 128,-1,33
 602 477 602 477 602 498.5 c 128,-1,34
 602 520 602 520 586 536 c 128,-1,35
 570 552 570 552 548 552 c 2,36,-1
 211 552 l 1,29,-1
548 582 m 2,37,38
 583 582 583 582 607.5 557.5 c 128,-1,39
 632 533 632 533 632 498.5 c 128,-1,40
 632 464 632 464 607.5 439.5 c 128,-1,41
 583 415 583 415 548 415 c 2,42,-1
 196 415 l 1,43,-1
 181 430 l 1,44,-1
 181 567 l 1,45,-1
 196 582 l 1,46,-1
 548 582 l 2,37,38
211 268 m 1,47,-1
 211 161 l 1,48,-1
 548 161 l 2,49,50
 570 161 570 161 586 177 c 128,-1,51
 602 193 602 193 602 214.5 c 128,-1,52
 602 236 602 236 586 252 c 128,-1,53
 570 268 570 268 548 268 c 2,54,-1
 211 268 l 1,47,-1
548 298 m 2,55,56
 583 298 583 298 607.5 273.5 c 128,-1,57
 632 249 632 249 632 214.5 c 128,-1,58
 632 180 632 180 607.5 155.5 c 128,-1,59
 583 131 583 131 548 131 c 2,60,-1
 196 131 l 1,61,-1
 181 146 l 1,62,-1
 181 283 l 1,63,-1
 196 298 l 1,64,-1
 548 298 l 2,55,56
EndSplineSet
EndChar

StartChar: C
Encoding: 67 67 38
Width: 813
GlyphClass: 2
Flags: W
LayerCount: 2
Back
Fore
SplineSet
404 699 m 2,0,1
 260 698 260 698 162.5 600 c 128,-1,2
 65 502 65 502 65 358 c 0,3,4
 65 212 65 212 163 113.5 c 128,-1,5
 261 15 261 15 406 15 c 2,6,-1
 748 15 l 1,7,-1
 748 132 l 1,8,-1
 406 132 l 2,9,10
 405 132 405 132 405 132 c 2,11,12
 404 132 404 132 404 132 c 2,13,14
 309 133 309 133 245 198 c 128,-1,15
 181 263 181 263 181 358 c 0,16,17
 181 452 181 452 245 516.5 c 128,-1,18
 309 581 309 581 404 582 c 2,19,-1
 748 582 l 1,20,-1
 748 699 l 1,21,-1
 404 699 l 2,0,1
404 729 m 2,22,-1
 763 729 l 1,23,-1
 778 714 l 1,24,-1
 778 567 l 1,25,-1
 763 552 l 1,26,-1
 404 552 l 2,27,28
 322 551 322 551 266.5 495.5 c 128,-1,29
 211 440 211 440 211 358 c 0,30,31
 211 275 211 275 266.5 219 c 128,-1,32
 322 163 322 163 404 162 c 0,33,34
 405 162 405 162 405 162 c 129,-1,35
 405 162 405 162 406 162 c 2,36,-1
 763 162 l 1,37,-1
 778 147 l 1,38,-1
 778 0 l 1,39,-1
 763 -15 l 1,40,-1
 406 -15 l 2,41,42
 249 -15 249 -15 142 92 c 128,-1,43
 35 199 35 199 35 358 c 0,44,45
 35 461 35 461 83 546 c 128,-1,46
 131 631 131 631 216 679.5 c 128,-1,47
 301 728 301 728 404 729 c 2,22,-1
EndSplineSet
EndChar

StartChar: D
Encoding: 68 68 39
Width: 813
GlyphClass: 2
Flags: W
LayerCount: 2
Back
Fore
SplineSet
52 728 m 1,0,-1
 406 728 l 2,1,2
 510 728 510 728 595.5 679.5 c 128,-1,3
 681 631 681 631 729.5 545.5 c 128,-1,4
 778 460 778 460 778 356 c 0,5,6
 778 253 778 253 730 168 c 128,-1,7
 682 83 682 83 597 34.5 c 128,-1,8
 512 -14 512 -14 409 -15 c 2,9,-1
 52 -15 l 1,10,-1
 34 2 l 1,11,-1
 34 710 l 1,12,-1
 52 728 l 1,0,-1
64 698 m 1,13,-1
 64 15 l 1,14,-1
 408 15 l 2,15,16
 553 16 553 16 650.5 114 c 128,-1,17
 748 212 748 212 748 356 c 0,18,19
 748 502 748 502 649.5 600 c 128,-1,20
 551 698 551 698 406 698 c 2,21,-1
 64 698 l 1,13,-1
212 552 m 1,22,-1
 212 161 l 1,23,-1
 406 161 l 1,24,25
 406 161 406 161 406.5 161 c 128,-1,26
 407 161 407 161 408 161 c 0,27,28
 491 162 491 162 546.5 218 c 128,-1,29
 602 274 602 274 602 356 c 0,30,31
 602 440 602 440 546 496 c 128,-1,32
 490 552 490 552 406 552 c 2,33,-1
 212 552 l 1,22,-1
196 582 m 1,34,-1
 406 582 l 2,35,36
 502 582 502 582 567 517.5 c 128,-1,37
 632 453 632 453 632 356 c 0,38,39
 632 262 632 262 567.5 197 c 128,-1,40
 503 132 503 132 409 131 c 0,41,42
 408 131 408 131 408 131 c 2,43,44
 407 131 407 131 406.5 131 c 128,-1,45
 406 131 406 131 406 131 c 1,46,-1
 196 131 l 1,47,-1
 182 146 l 1,48,-1
 182 567 l 1,49,-1
 196 582 l 1,34,-1
EndSplineSet
EndChar

StartChar: E
Encoding: 69 69 40
Width: 813
GlyphClass: 2
Flags: W
LayerCount: 2
Back
Fore
SplineSet
748 698 m 1,0,-1
 64 698 l 1,1,-1
 64 15 l 1,2,-1
 748 15 l 1,3,-1
 748 131 l 1,4,-1
 196 131 l 1,5,-1
 182 146 l 1,6,-1
 182 283 l 1,7,-1
 196 298 l 1,8,-1
 536 298 l 1,9,-1
 536 415 l 1,10,-1
 196 415 l 1,11,-1
 182 430 l 1,12,-1
 182 567 l 1,13,-1
 196 582 l 1,14,-1
 748 582 l 1,15,-1
 748 698 l 1,0,-1
34 710 m 1,16,-1
 52 728 l 1,17,-1
 761 728 l 1,18,-1
 778 710 l 1,19,-1
 778 570 l 1,20,-1
 761 552 l 1,21,-1
 212 552 l 1,22,-1
 212 445 l 1,23,-1
 548 445 l 1,24,-1
 566 428 l 1,25,-1
 566 286 l 1,26,-1
 548 268 l 1,27,-1
 212 268 l 1,28,-1
 212 161 l 1,29,-1
 761 161 l 1,30,-1
 778 144 l 1,31,-1
 778 2 l 1,32,-1
 761 -15 l 1,33,-1
 52 -15 l 1,34,-1
 34 2 l 1,35,-1
 34 710 l 1,16,-1
EndSplineSet
EndChar

StartChar: F
Encoding: 70 70 41
Width: 813
GlyphClass: 2
Flags: W
LayerCount: 2
Back
Fore
SplineSet
748 700 m 1,0,-1
 64 700 l 1,1,-1
 64 16 l 1,2,-1
 182 16 l 1,3,-1
 182 284 l 1,4,-1
 196 300 l 1,5,-1
 536 300 l 1,6,-1
 536 416 l 1,7,-1
 196 416 l 1,8,-1
 182 432 l 1,9,-1
 182 568 l 1,10,-1
 196 582 l 1,11,-1
 748 582 l 1,12,-1
 748 700 l 1,0,-1
34 712 m 1,13,-1
 52 730 l 1,14,-1
 761 730 l 1,15,-1
 778 712 l 1,16,-1
 778 570 l 1,17,-1
 761 552 l 1,18,-1
 212 552 l 1,19,-1
 212 446 l 1,20,-1
 548 446 l 1,21,-1
 566 429 l 1,22,-1
 566 287 l 1,23,-1
 548 270 l 1,24,-1
 212 270 l 1,25,-1
 212 3 l 1,26,-1
 194 -14 l 1,27,-1
 52 -14 l 1,28,-1
 34 3 l 1,29,-1
 34 712 l 1,13,-1
EndSplineSet
EndChar

StartChar: G
Encoding: 71 71 42
Width: 813
GlyphClass: 2
Flags: W
LayerCount: 2
Back
Fore
SplineSet
404 699 m 2,0,1
 259 698 259 698 161.5 599.5 c 128,-1,2
 64 501 64 501 64 356 c 0,3,4
 64 212 64 212 161.5 114 c 128,-1,5
 259 16 259 16 404 15 c 0,6,7
 405 15 405 15 405.5 15 c 128,-1,8
 406 15 406 15 406 15 c 1,9,-1
 748 15 l 1,10,-1
 748 415 l 1,11,-1
 418 415 l 1,12,-1
 418 298 l 1,13,-1
 616 298 l 1,14,-1
 632 283 l 1,15,-1
 632 147 l 1,16,-1
 616 132 l 1,17,-1
 406 132 l 2,18,19
 311 132 311 132 246.5 196.5 c 128,-1,20
 182 261 182 261 182 356.5 c 128,-1,21
 182 452 182 452 245.5 516.5 c 128,-1,22
 309 581 309 581 403 582 c 2,23,-1
 748 582 l 1,24,-1
 748 699 l 1,25,-1
 404 699 l 2,0,1
403 729 m 2,26,-1
 764 729 l 1,27,-1
 778 714 l 1,28,-1
 778 567 l 1,29,-1
 764 552 l 1,30,-1
 404 552 l 2,31,32
 321 551 321 551 266.5 495 c 128,-1,33
 212 439 212 439 212 356.5 c 128,-1,34
 212 274 212 274 267.5 218 c 128,-1,35
 323 162 323 162 406 162 c 2,36,-1
 602 162 l 1,37,-1
 602 268 l 1,38,-1
 404 268 l 1,39,-1
 388 283 l 1,40,-1
 388 430 l 1,41,-1
 404 445 l 1,42,-1
 764 445 l 1,43,-1
 778 430 l 1,44,-1
 778 0 l 1,45,-1
 764 -15 l 1,46,-1
 406 -15 l 1,47,48
 406 -15 406 -15 405.5 -15 c 128,-1,49
 405 -15 405 -15 404.5 -15 c 128,-1,50
 404 -15 404 -15 403 -15 c 0,51,52
 300 -14 300 -14 215.5 34.5 c 128,-1,53
 131 83 131 83 82.5 168 c 128,-1,54
 34 253 34 253 34 356 c 0,55,56
 34 460 34 460 82.5 545 c 128,-1,57
 131 630 131 630 215.5 679 c 128,-1,58
 300 728 300 728 403 729 c 2,26,-1
EndSplineSet
EndChar

StartChar: H
Encoding: 72 72 43
Width: 813
GlyphClass: 2
Flags: W
LayerCount: 2
Back
Fore
SplineSet
182 698 m 1,0,-1
 64 698 l 1,1,-1
 64 16 l 1,2,-1
 182 16 l 1,3,-1
 182 284 l 1,4,-1
 196 298 l 1,5,-1
 616 298 l 1,6,-1
 632 284 l 1,7,-1
 632 16 l 1,8,-1
 748 16 l 1,9,-1
 748 698 l 1,10,-1
 632 698 l 1,11,-1
 632 430 l 1,12,-1
 616 416 l 1,13,-1
 196 416 l 1,14,-1
 182 430 l 1,15,-1
 182 698 l 1,0,-1
34 711 m 1,16,-1
 52 728 l 1,17,-1
 194 728 l 1,18,-1
 212 711 l 1,19,-1
 212 446 l 1,20,-1
 602 446 l 1,21,-1
 602 711 l 1,22,-1
 619 728 l 1,23,-1
 761 728 l 1,24,-1
 778 711 l 1,25,-1
 778 3 l 1,26,-1
 761 -14 l 1,27,-1
 619 -14 l 1,28,-1
 602 3 l 1,29,-1
 602 268 l 1,30,-1
 212 268 l 1,31,-1
 212 3 l 1,32,-1
 194 -14 l 1,33,-1
 52 -14 l 1,34,-1
 34 3 l 1,35,-1
 34 711 l 1,16,-1
EndSplineSet
EndChar

StartChar: I
Encoding: 73 73 44
Width: 813
GlyphClass: 2
Flags: W
LayerCount: 2
Back
Fore
SplineSet
748 699 m 1,0,-1
 64 699 l 1,1,-1
 64 582 l 1,2,-1
 334 582 l 1,3,-1
 348 567 l 1,4,-1
 348 147 l 1,5,-1
 334 132 l 1,6,-1
 64 132 l 1,7,-1
 64 15 l 1,8,-1
 748 15 l 1,9,-1
 748 132 l 1,10,-1
 480 132 l 1,11,-1
 466 147 l 1,12,-1
 466 567 l 1,13,-1
 480 582 l 1,14,-1
 748 582 l 1,15,-1
 748 699 l 1,0,-1
34 712 m 1,16,-1
 52 729 l 1,17,-1
 761 729 l 1,18,-1
 778 712 l 1,19,-1
 778 570 l 1,20,-1
 761 552 l 1,21,-1
 496 552 l 1,22,-1
 496 162 l 1,23,-1
 761 162 l 1,24,-1
 778 144 l 1,25,-1
 778 2 l 1,26,-1
 761 -15 l 1,27,-1
 52 -15 l 1,28,-1
 34 2 l 1,29,-1
 34 144 l 1,30,-1
 52 162 l 1,31,-1
 318 162 l 1,32,-1
 318 552 l 1,33,-1
 52 552 l 1,34,-1
 34 570 l 1,35,-1
 34 712 l 1,16,-1
EndSplineSet
EndChar

StartChar: J
Encoding: 74 74 45
Width: 813
GlyphClass: 2
Flags: W
LayerCount: 2
Back
Fore
SplineSet
748 698 m 1,0,-1
 632 698 l 1,1,-1
 632 146 l 1,2,-1
 616 132 l 1,3,-1
 407 132 l 2,4,5
 314 132 314 132 250 192.5 c 128,-1,6
 186 253 186 253 182 344 c 1,7,-1
 65 344 l 1,8,9
 69 203 69 203 167 109.5 c 128,-1,10
 265 16 265 16 407 16 c 2,11,-1
 748 16 l 1,12,-1
 748 698 l 1,0,-1
602 711 m 1,13,-1
 619 728 l 1,14,-1
 761 728 l 1,15,-1
 778 711 l 1,16,-1
 778 0 l 1,17,-1
 764 -14 l 1,18,-1
 407 -14 l 2,19,20
 303 -14 303 -14 217.5 34.5 c 128,-1,21
 132 83 132 83 83 168 c 128,-1,22
 34 253 34 253 34 357 c 1,23,-1
 52 374 l 1,24,-1
 194 374 l 1,25,-1
 212 357 l 1,26,27
 212 273 212 273 268 217.5 c 128,-1,28
 324 162 324 162 407 162 c 2,29,-1
 602 162 l 1,30,-1
 602 711 l 1,13,-1
EndSplineSet
EndChar

StartChar: K
Encoding: 75 75 46
Width: 813
GlyphClass: 2
Flags: W
LayerCount: 2
Back
Fore
SplineSet
50 728 m 1,0,-1
 196 728 l 1,1,-1
 211 713 l 1,2,-1
 211 445 l 1,3,-1
 467 445 l 1,4,-1
 604 718 l 1,5,-1
 613 722 l 1,6,-1
 620 728 l 1,7,-1
 761 728 l 1,8,-1
 771 717 l 1,9,-1
 776 703 l 1,10,-1
 637 423 l 1,11,-1
 637 290 l 1,12,-1
 776 10 l 1,13,-1
 772 -4 l 1,14,-1
 761 -15 l 1,15,-1
 620 -15 l 1,16,-1
 613 -8 l 1,17,-1
 604 -5 l 1,18,-1
 467 268 l 1,19,-1
 211 268 l 1,20,-1
 211 0 l 1,21,-1
 196 -15 l 1,22,-1
 50 -15 l 1,23,-1
 35 0 l 1,24,-1
 35 713 l 1,25,-1
 50 728 l 1,0,-1
181 698 m 1,26,-1
 65 698 l 1,27,-1
 65 15 l 1,28,-1
 181 15 l 1,29,-1
 181 283 l 1,30,-1
 196 298 l 1,31,-1
 476 298 l 1,32,-1
 489 290 l 1,33,-1
 627 15 l 1,34,-1
 740 15 l 1,35,-1
 609 279 l 1,36,-1
 607 286 l 1,37,-1
 607 427 l 1,38,-1
 609 433 l 1,39,-1
 740 698 l 1,40,-1
 628 698 l 1,41,-1
 489 423 l 1,42,-1
 476 415 l 1,43,-1
 196 415 l 1,44,-1
 181 430 l 1,45,-1
 181 698 l 1,26,-1
620 701 m 1,46,-1
 624 702 l 1,47,-1
 628 706 l 1,48,-1
 620 701 l 1,46,-1
629 6 m 1,49,-1
 625 10 l 1,50,-1
 619 12 l 1,51,-1
 629 6 l 1,49,-1
773 -3 m 1,52,-1
 772 -4 l 1,53,-1
 773 -3 l 1,52,-1
773 -3 m 1,54,-1
 776 2 l 1,55,-1
 776 0 l 1,56,-1
 773 -3 l 1,54,-1
772 -4 m 1,57,-1
 771 -9 l 1,58,-1
 769 -10 l 1,59,-1
 772 -4 l 1,57,-1
771 718 m 1,60,-1
 771 717 l 1,61,-1
 772 717 l 1,62,-1
 771 718 l 1,60,-1
771 718 m 1,63,-1
 767 724 l 1,64,-1
 769 723 l 1,65,-1
 771 718 l 1,63,-1
772 717 m 1,66,-1
 776 713 l 1,67,-1
 776 710 l 1,68,-1
 772 717 l 1,66,-1
EndSplineSet
EndChar

StartChar: L
Encoding: 76 76 47
Width: 813
GlyphClass: 2
Flags: W
LayerCount: 2
Back
Fore
SplineSet
182 700 m 1,0,-1
 64 700 l 1,1,-1
 64 16 l 1,2,-1
 748 16 l 1,3,-1
 748 132 l 1,4,-1
 196 132 l 1,5,-1
 182 148 l 1,6,-1
 182 700 l 1,0,-1
34 712 m 1,7,-1
 52 730 l 1,8,-1
 194 730 l 1,9,-1
 212 712 l 1,10,-1
 212 162 l 1,11,-1
 761 162 l 1,12,-1
 778 145 l 1,13,-1
 778 3 l 1,14,-1
 761 -14 l 1,15,-1
 52 -14 l 1,16,-1
 34 3 l 1,17,-1
 34 712 l 1,7,-1
EndSplineSet
EndChar

StartChar: M
Encoding: 77 77 48
Width: 813
GlyphClass: 2
Flags: W
LayerCount: 2
Back
Fore
SplineSet
50 728 m 1,0,-1
 409 728 l 2,1,2
 512 727 512 727 597 678.5 c 128,-1,3
 682 630 682 630 730 545 c 128,-1,4
 778 460 778 460 778 356 c 2,5,-1
 778 2 l 1,6,-1
 760 -15 l 1,7,-1
 618 -15 l 1,8,-1
 601 2 l 1,9,-1
 601 356 l 2,10,11
 601 415 601 415 572.5 461.5 c 128,-1,12
 544 508 544 508 495 532 c 1,13,-1
 495 0 l 1,14,-1
 480 -15 l 1,15,-1
 333 -15 l 1,16,-1
 318 0 l 1,17,-1
 318 552 l 1,18,-1
 211 552 l 1,19,-1
 211 2 l 1,20,-1
 194 -15 l 1,21,-1
 52 -15 l 1,22,-1
 35 2 l 1,23,-1
 35 713 l 1,24,-1
 50 728 l 1,0,-1
748 15 m 1,25,-1
 748 356 l 2,26,27
 748 501 748 501 650.5 599 c 128,-1,28
 553 697 553 697 409 698 c 2,29,-1
 65 698 l 1,30,-1
 65 15 l 1,31,-1
 181 15 l 1,32,-1
 181 567 l 1,33,-1
 196 582 l 1,34,-1
 333 582 l 1,35,-1
 348 567 l 1,36,-1
 348 15 l 1,37,-1
 465 15 l 1,38,-1
 465 555 l 1,39,-1
 485 569 l 1,40,41
 551 545 551 545 591 487.5 c 128,-1,42
 631 430 631 430 631 356 c 2,43,-1
 631 15 l 1,44,-1
 748 15 l 1,25,-1
EndSplineSet
EndChar

StartChar: N
Encoding: 78 78 49
Width: 813
GlyphClass: 2
Flags: W
LayerCount: 2
Back
Fore
SplineSet
50 730 m 1,0,-1
 409 730 l 2,1,2
 512 729 512 729 596.5 680 c 128,-1,3
 681 631 681 631 729.5 545.5 c 128,-1,4
 778 460 778 460 778 357 c 2,5,-1
 778 3 l 1,6,-1
 760 -14 l 1,7,-1
 618 -14 l 1,8,-1
 601 3 l 1,9,-1
 601 357 l 2,10,11
 601 440 601 440 546 496 c 128,-1,12
 491 552 491 552 409 552 c 2,13,-1
 211 552 l 1,14,-1
 211 3 l 1,15,-1
 194 -14 l 1,16,-1
 52 -14 l 1,17,-1
 35 3 l 1,18,-1
 35 714 l 1,19,-1
 50 730 l 1,0,-1
748 16 m 1,20,-1
 748 357 l 2,21,22
 748 502 748 502 651 600.5 c 128,-1,23
 554 699 554 699 409 700 c 2,24,-1
 65 700 l 1,25,-1
 65 16 l 1,26,-1
 181 16 l 1,27,-1
 181 568 l 1,28,-1
 196 582 l 1,29,-1
 409 582 l 2,30,31
 503 581 503 581 567 516.5 c 128,-1,32
 631 452 631 452 631 357 c 2,33,-1
 631 16 l 1,34,-1
 748 16 l 1,20,-1
EndSplineSet
EndChar

StartChar: O
Encoding: 79 79 50
Width: 813
GlyphClass: 2
Flags: W
LayerCount: 2
Back
Fore
SplineSet
778 356 m 0,0,1
 778 253 778 253 729.5 167.5 c 128,-1,2
 681 82 681 82 596 33.5 c 128,-1,3
 511 -15 511 -15 407 -15 c 128,-1,4
 303 -15 303 -15 217.5 33.5 c 128,-1,5
 132 82 132 82 83 167.5 c 128,-1,6
 34 253 34 253 34 356.5 c 128,-1,7
 34 460 34 460 83 545.5 c 128,-1,8
 132 631 132 631 217.5 680 c 128,-1,9
 303 729 303 729 407 729 c 256,10,11
 511 729 511 729 596 680 c 128,-1,12
 681 631 681 631 729.5 545.5 c 128,-1,13
 778 460 778 460 778 356 c 0,0,1
407 699 m 256,14,15
 262 699 262 699 163 600.5 c 128,-1,16
 64 502 64 502 64 356.5 c 128,-1,17
 64 211 64 211 163 113 c 128,-1,18
 262 15 262 15 407 15 c 0,19,20
 553 15 553 15 650.5 113 c 128,-1,21
 748 211 748 211 748 356.5 c 128,-1,22
 748 502 748 502 650 600.5 c 128,-1,23
 552 699 552 699 407 699 c 256,14,15
407 552 m 256,24,25
 324 552 324 552 268 496 c 128,-1,26
 212 440 212 440 212 356 c 0,27,28
 212 274 212 274 268 218 c 128,-1,29
 324 162 324 162 407 162 c 0,30,31
 489 162 489 162 545.5 218 c 128,-1,32
 602 274 602 274 602 356 c 0,33,34
 602 440 602 440 546 496 c 128,-1,35
 490 552 490 552 407 552 c 256,24,25
632 356 m 0,36,37
 632 261 632 261 567 196.5 c 128,-1,38
 502 132 502 132 407 132 c 0,39,40
 311 132 311 132 246.5 196.5 c 128,-1,41
 182 261 182 261 182 356 c 0,42,43
 182 452 182 452 246.5 517 c 128,-1,44
 311 582 311 582 407 582 c 0,45,46
 502 582 502 582 567 517.5 c 128,-1,47
 632 453 632 453 632 356 c 0,36,37
EndSplineSet
EndChar

StartChar: P
Encoding: 80 80 51
Width: 813
GlyphClass: 2
Flags: W
LayerCount: 2
Back
Fore
SplineSet
516 728 m 2,0,1
 625 727 625 727 701.5 649.5 c 128,-1,2
 778 572 778 572 778 463 c 0,3,4
 778 353 778 353 700.5 275.5 c 128,-1,5
 623 198 623 198 513 198 c 2,6,-1
 212 198 l 1,7,-1
 212 3 l 1,8,-1
 194 -14 l 1,9,-1
 52 -14 l 1,10,-1
 34 3 l 1,11,-1
 34 711 l 1,12,-1
 52 728 l 1,13,-1
 516 728 l 2,0,1
182 16 m 1,14,-1
 182 212 l 1,15,-1
 196 228 l 1,16,-1
 513 228 l 2,17,18
 611 228 611 228 679.5 296.5 c 128,-1,19
 748 365 748 365 748 463 c 0,20,21
 748 560 748 560 680.5 628.5 c 128,-1,22
 613 697 613 697 516 698 c 2,23,-1
 64 698 l 1,24,-1
 64 16 l 1,25,-1
 182 16 l 1,14,-1
212 552 m 1,26,-1
 212 374 l 1,27,-1
 513 374 l 2,28,29
 549 374 549 374 575.5 400.5 c 128,-1,30
 602 427 602 427 602 463 c 0,31,32
 602 500 602 500 575.5 526 c 128,-1,33
 549 552 549 552 513 552 c 2,34,-1
 212 552 l 1,26,-1
513 582 m 2,35,36
 562 582 562 582 597 547 c 128,-1,37
 632 512 632 512 632 463 c 256,38,39
 632 414 632 414 597 379 c 128,-1,40
 562 344 562 344 513 344 c 2,41,-1
 196 344 l 1,42,-1
 182 360 l 1,43,-1
 182 566 l 1,44,-1
 196 582 l 1,45,-1
 513 582 l 2,35,36
EndSplineSet
EndChar

StartChar: Q
Encoding: 81 81 52
Width: 813
GlyphClass: 2
Flags: W
LayerCount: 2
Back
Fore
SplineSet
406.5 698 m 128,-1,1
 261 698 261 698 163 600 c 128,-1,2
 65 502 65 502 65 356.5 c 128,-1,3
 65 211 65 211 163 113 c 128,-1,4
 261 15 261 15 406 15 c 0,5,6
 504 15 504 15 585 62 c 1,7,-1
 606 56 l 1,8,-1
 626 15 l 1,9,-1
 741 15 l 1,10,-1
 680 135 l 1,11,-1
 682 150 l 1,12,13
 748 240 748 240 748 356 c 0,14,15
 748 502 748 502 650 600 c 128,-1,0
 552 698 552 698 406.5 698 c 128,-1,1
778 356 m 0,16,17
 778 235 778 235 711 140 c 1,18,-1
 776 10 l 1,19,-1
 772 -4 l 1,20,-1
 776 2 l 1,21,-1
 776 0 l 1,22,-1
 772 -4 l 1,23,-1
 770 -10 l 1,24,-1
 767 -11 l 1,25,-1
 771 -4 l 1,26,-1
 760 -15 l 1,27,-1
 618 -15 l 1,28,-1
 612 -8 l 1,29,-1
 603 -5 l 1,30,-1
 586 29 l 1,31,32
 504 -15 504 -15 406 -15 c 0,33,34
 249 -15 249 -15 142 92 c 128,-1,35
 35 199 35 199 35 356.5 c 128,-1,36
 35 514 35 514 142 621 c 128,-1,37
 249 728 249 728 406.5 728 c 128,-1,38
 564 728 564 728 671 621 c 128,-1,39
 778 514 778 514 778 356 c 0,16,17
627 6 m 1,40,-1
 624 10 l 1,41,-1
 618 11 l 1,42,-1
 627 6 l 1,40,-1
631 356 m 0,43,44
 631 319 631 319 620 283 c 1,45,-1
 605 273 l 1,46,-1
 498 273 l 1,47,-1
 540 189 l 1,48,-1
 535 170 l 1,49,50
 478 131 478 131 406 131 c 0,51,52
 311 131 311 131 246 195.5 c 128,-1,53
 181 260 181 260 181 356 c 256,54,55
 181 452 181 452 245.5 516.5 c 128,-1,56
 310 581 310 581 406 581 c 256,57,58
 502 581 502 581 566.5 516.5 c 128,-1,59
 631 452 631 452 631 356 c 0,43,44
406 551 m 256,60,61
 323 551 323 551 267 495 c 128,-1,62
 211 439 211 439 211 356 c 256,63,64
 211 273 211 273 267 217 c 128,-1,65
 323 161 323 161 406 161 c 0,66,67
 462 161 462 161 507 187 c 1,68,-1
 462 278 l 1,69,-1
 467 292 l 1,70,-1
 478 303 l 1,71,-1
 594 303 l 1,72,73
 601 329 601 329 601 356 c 0,74,75
 601 439 601 439 545 495 c 128,-1,76
 489 551 489 551 406 551 c 256,60,61
467 292 m 1,77,-1
 467 293 l 1,78,-1
 467 292 l 1,77,-1
467 292 m 1,79,-1
 462 286 l 1,80,-1
 462 288 l 1,81,-1
 467 292 l 1,79,-1
467 293 m 1,82,-1
 469 298 l 1,83,-1
 471 299 l 1,84,-1
 467 293 l 1,82,-1
EndSplineSet
EndChar

StartChar: R
Encoding: 82 82 53
Width: 813
GlyphClass: 2
Flags: W
LayerCount: 2
Back
Fore
SplineSet
548 730 m 2,0,1
 643 730 643 730 710.5 662 c 128,-1,2
 778 594 778 594 778 499 c 0,3,4
 778 429 778 429 739.5 371.5 c 128,-1,5
 701 314 701 314 639 287 c 1,6,-1
 760 43 l 1,7,-1
 776 11 l 1,8,-1
 772 -3 l 1,9,-1
 760 -14 l 1,10,-1
 620 -14 l 1,11,-1
 613 -8 l 1,12,-1
 604 -5 l 1,13,-1
 466 268 l 1,14,-1
 211 268 l 1,15,-1
 211 3 l 1,16,-1
 194 -14 l 1,17,-1
 52 -14 l 1,18,-1
 35 3 l 1,19,-1
 35 712 l 1,20,-1
 52 730 l 1,21,-1
 548 730 l 2,0,1
740 16 m 1,22,-1
 733 30 l 1,23,-1
 604 289 l 1,24,-1
 613 309 l 1,25,26
 672 330 672 330 710 382 c 128,-1,27
 748 434 748 434 748 499 c 0,28,29
 748 582 748 582 689.5 641 c 128,-1,30
 631 700 631 700 548 700 c 2,31,-1
 65 700 l 1,32,-1
 65 16 l 1,33,-1
 181 16 l 1,34,-1
 181 284 l 1,35,-1
 196 298 l 1,36,-1
 476 298 l 1,37,-1
 489 290 l 1,38,-1
 627 16 l 1,39,-1
 740 16 l 1,22,-1
628 7 m 1,40,-1
 625 10 l 1,41,-1
 619 12 l 1,42,-1
 628 7 l 1,40,-1
772 -3 m 1,43,-1
 772 -4 l 1,44,-1
 772 -3 l 1,43,-1
772 -3 m 1,45,-1
 776 3 l 1,46,-1
 776 0 l 1,47,-1
 772 -3 l 1,45,-1
772 -4 m 1,48,-1
 770 -8 l 1,49,-1
 768 -10 l 1,50,-1
 772 -4 l 1,48,-1
211 552 m 1,51,-1
 211 446 l 1,52,-1
 548 446 l 2,53,54
 570 446 570 446 586 461.5 c 128,-1,55
 602 477 602 477 602 499 c 128,-1,56
 602 521 602 521 586 536.5 c 128,-1,57
 570 552 570 552 548 552 c 2,58,-1
 211 552 l 1,51,-1
548 582 m 2,59,60
 583 582 583 582 607.5 557.5 c 128,-1,61
 632 533 632 533 632 499 c 128,-1,62
 632 465 632 465 607.5 440.5 c 128,-1,63
 583 416 583 416 548 416 c 2,64,-1
 196 416 l 1,65,-1
 181 430 l 1,66,-1
 181 568 l 1,67,-1
 196 582 l 1,68,-1
 548 582 l 2,59,60
EndSplineSet
EndChar

StartChar: S
Encoding: 83 83 54
Width: 813
GlyphClass: 2
Flags: W
LayerCount: 2
Back
Fore
SplineSet
265 700 m 2,0,1
 182 700 182 700 123 641 c 128,-1,2
 64 582 64 582 64 499 c 256,3,4
 64 416 64 416 123 358 c 128,-1,5
 182 300 182 300 265 300 c 2,6,-1
 548 300 l 2,7,8
 582 300 582 300 607 275 c 128,-1,9
 632 250 632 250 632 216 c 128,-1,10
 632 182 632 182 607 157 c 128,-1,11
 582 132 582 132 548 132 c 2,12,-1
 64 132 l 1,13,-1
 64 16 l 1,14,-1
 548 16 l 2,15,16
 631 16 631 16 689.5 74.5 c 128,-1,17
 748 133 748 133 748 216 c 256,18,19
 748 299 748 299 689.5 357.5 c 128,-1,20
 631 416 631 416 548 416 c 2,21,-1
 265 416 l 2,22,23
 231 416 231 416 206.5 440.5 c 128,-1,24
 182 465 182 465 182 499 c 128,-1,25
 182 533 182 533 206.5 557.5 c 128,-1,26
 231 582 231 582 265 582 c 2,27,-1
 748 582 l 1,28,-1
 748 700 l 1,29,-1
 265 700 l 2,0,1
34 145 m 1,30,-1
 52 162 l 1,31,-1
 548 162 l 2,32,33
 570 162 570 162 586 178 c 128,-1,34
 602 194 602 194 602 216 c 128,-1,35
 602 238 602 238 586 254 c 128,-1,36
 570 270 570 270 548 270 c 2,37,-1
 265 270 l 2,38,39
 169 270 169 270 101.5 337 c 128,-1,40
 34 404 34 404 34 499 c 0,41,42
 34 595 34 595 101.5 662.5 c 128,-1,43
 169 730 169 730 265 730 c 2,44,-1
 761 730 l 1,45,-1
 778 712 l 1,46,-1
 778 570 l 1,47,-1
 761 552 l 1,48,-1
 265 552 l 2,49,50
 243 552 243 552 227.5 536.5 c 128,-1,51
 212 521 212 521 212 499 c 128,-1,52
 212 477 212 477 227.5 461.5 c 128,-1,53
 243 446 243 446 265 446 c 2,54,-1
 548 446 l 2,55,56
 644 446 644 446 711 378.5 c 128,-1,57
 778 311 778 311 778 216 c 0,58,59
 778 120 778 120 711 53 c 128,-1,60
 644 -14 644 -14 548 -14 c 2,61,-1
 52 -14 l 1,62,-1
 34 3 l 1,63,-1
 34 145 l 1,30,-1
EndSplineSet
EndChar

StartChar: T
Encoding: 84 84 55
Width: 813
GlyphClass: 2
Flags: W
LayerCount: 2
Back
Fore
SplineSet
748 700 m 1,0,-1
 64 700 l 1,1,-1
 64 582 l 1,2,-1
 332 582 l 1,3,-1
 348 568 l 1,4,-1
 348 16 l 1,5,-1
 464 16 l 1,6,-1
 464 568 l 1,7,-1
 480 582 l 1,8,-1
 748 582 l 1,9,-1
 748 700 l 1,0,-1
34 712 m 1,10,-1
 52 730 l 1,11,-1
 761 730 l 1,12,-1
 778 712 l 1,13,-1
 778 570 l 1,14,-1
 761 552 l 1,15,-1
 494 552 l 1,16,-1
 494 3 l 1,17,-1
 477 -14 l 1,18,-1
 335 -14 l 1,19,-1
 318 3 l 1,20,-1
 318 552 l 1,21,-1
 52 552 l 1,22,-1
 34 570 l 1,23,-1
 34 712 l 1,10,-1
EndSplineSet
EndChar

StartChar: U
Encoding: 85 85 56
Width: 813
GlyphClass: 2
Flags: W
LayerCount: 2
Back
Fore
SplineSet
50 728 m 1,0,-1
 196 728 l 1,1,-1
 212 713 l 1,2,-1
 212 356 l 2,3,4
 212 274 212 274 267.5 217.5 c 128,-1,5
 323 161 323 161 406 161 c 128,-1,6
 489 161 489 161 545 216.5 c 128,-1,7
 601 272 601 272 602 354 c 2,8,-1
 602 713 l 1,9,-1
 616 728 l 1,10,-1
 764 728 l 1,11,-1
 778 713 l 1,12,-1
 778 354 l 2,13,14
 778 251 778 251 729 166.5 c 128,-1,15
 680 82 680 82 594.5 33.5 c 128,-1,16
 509 -15 509 -15 406 -15 c 256,17,18
 303 -15 303 -15 218 33 c 128,-1,19
 133 81 133 81 84 166 c 128,-1,20
 35 251 35 251 34 354 c 2,21,-1
 34 713 l 1,22,-1
 50 728 l 1,0,-1
182 698 m 1,23,-1
 64 698 l 1,24,-1
 64 354 l 2,25,26
 65 210 65 210 163 112.5 c 128,-1,27
 261 15 261 15 406 15 c 256,28,29
 551 15 551 15 649.5 112 c 128,-1,30
 748 209 748 209 748 354 c 2,31,-1
 748 698 l 1,32,-1
 632 698 l 1,33,-1
 632 354 l 2,34,35
 630 259 630 259 565.5 195 c 128,-1,36
 501 131 501 131 406 131 c 128,-1,37
 311 131 311 131 246.5 196 c 128,-1,38
 182 261 182 261 182 356 c 2,39,-1
 182 698 l 1,23,-1
EndSplineSet
EndChar

StartChar: V
Encoding: 86 86 57
Width: 813
GlyphClass: 2
Flags: W
LayerCount: 2
Back
Fore
SplineSet
602 712 m 1,0,-1
 619 730 l 1,1,-1
 761 730 l 1,2,-1
 778 712 l 1,3,-1
 778 358 l 2,4,5
 778 254 778 254 729.5 168.5 c 128,-1,6
 681 83 681 83 596 34.5 c 128,-1,7
 511 -14 511 -14 407 -14 c 2,8,-1
 50 -14 l 1,9,-1
 34 0 l 1,10,-1
 34 712 l 1,11,-1
 52 730 l 1,12,-1
 194 730 l 1,13,-1
 212 712 l 1,14,-1
 212 162 l 1,15,-1
 407 162 l 2,16,17
 490 162 490 162 546 218.5 c 128,-1,18
 602 275 602 275 602 358 c 2,19,-1
 602 712 l 1,0,-1
64 16 m 1,20,-1
 407 16 l 2,21,22
 552 16 552 16 650 114.5 c 128,-1,23
 748 213 748 213 748 358 c 2,24,-1
 748 700 l 1,25,-1
 632 700 l 1,26,-1
 632 358 l 2,27,28
 632 262 632 262 567 197 c 128,-1,29
 502 132 502 132 407 132 c 2,30,-1
 196 132 l 1,31,-1
 182 148 l 1,32,-1
 182 700 l 1,33,-1
 64 700 l 1,34,-1
 64 16 l 1,20,-1
EndSplineSet
EndChar

StartChar: W
Encoding: 87 87 58
Width: 813
GlyphClass: 2
Flags: W
LayerCount: 2
Back
Fore
SplineSet
35 0 m 1,0,-1
 35 710 l 1,1,-1
 52 728 l 1,2,-1
 194 728 l 1,3,-1
 211 710 l 1,4,-1
 211 161 l 1,5,-1
 318 161 l 1,6,-1
 318 713 l 1,7,-1
 333 728 l 1,8,-1
 480 728 l 1,9,-1
 495 713 l 1,10,-1
 495 181 l 1,11,12
 544 205 544 205 572.5 251.5 c 128,-1,13
 601 298 601 298 601 356 c 2,14,-1
 601 710 l 1,15,-1
 618 728 l 1,16,-1
 760 728 l 1,17,-1
 778 710 l 1,18,-1
 778 356 l 2,19,20
 778 253 778 253 730 168 c 128,-1,21
 682 83 682 83 597 34.5 c 128,-1,22
 512 -14 512 -14 409 -15 c 2,23,-1
 50 -15 l 1,24,-1
 35 0 l 1,0,-1
65 698 m 1,25,-1
 65 15 l 1,26,-1
 409 15 l 2,27,28
 553 16 553 16 650.5 114 c 128,-1,29
 748 212 748 212 748 356 c 2,30,-1
 748 698 l 1,31,-1
 631 698 l 1,32,-1
 631 356 l 2,33,34
 631 283 631 283 591 225.5 c 128,-1,35
 551 168 551 168 485 144 c 1,36,-1
 465 158 l 1,37,-1
 465 698 l 1,38,-1
 348 698 l 1,39,-1
 348 146 l 1,40,-1
 333 131 l 1,41,-1
 196 131 l 1,42,-1
 181 146 l 1,43,-1
 181 698 l 1,44,-1
 65 698 l 1,25,-1
EndSplineSet
EndChar

StartChar: X
Encoding: 88 88 59
Width: 813
GlyphClass: 2
Flags: W
LayerCount: 2
Back
Fore
SplineSet
185 708 m 1,0,-1
 189 704 l 1,1,-1
 193 703 l 1,2,-1
 185 708 l 1,0,-1
185 700 m 1,3,-1
 73 700 l 1,4,-1
 204 435 l 1,5,-1
 206 429 l 1,6,-1
 206 288 l 1,7,-1
 204 281 l 1,8,-1
 73 16 l 1,9,-1
 186 16 l 1,10,-1
 324 291 l 1,11,-1
 337 300 l 1,12,-1
 476 300 l 1,13,-1
 489 291 l 1,14,-1
 626 16 l 1,15,-1
 740 16 l 1,16,-1
 607 281 l 1,17,-1
 606 288 l 1,18,-1
 606 429 l 1,19,-1
 607 435 l 1,20,-1
 740 700 l 1,21,-1
 626 700 l 1,22,-1
 489 425 l 1,23,-1
 476 417 l 1,24,-1
 337 417 l 1,25,-1
 324 425 l 1,26,-1
 185 700 l 1,3,-1
618 703 m 1,27,-1
 623 704 l 1,28,-1
 626 708 l 1,29,-1
 618 703 l 1,27,-1
627 7 m 1,30,-1
 623 11 l 1,31,-1
 618 12 l 1,32,-1
 627 7 l 1,30,-1
194 12 m 1,33,-1
 188 11 l 1,34,-1
 184 7 l 1,35,-1
 194 12 l 1,33,-1
42 719 m 1,36,-1
 42 720 l 1,37,-1
 42 719 l 1,36,-1
42 719 m 1,38,-1
 37 712 l 1,39,-1
 37 715 l 1,40,-1
 42 719 l 1,38,-1
42 719 m 1,41,-1
 52 730 l 1,42,-1
 193 730 l 1,43,-1
 200 723 l 1,44,-1
 209 720 l 1,45,-1
 346 447 l 1,46,-1
 466 447 l 1,47,-1
 603 720 l 1,48,-1
 612 723 l 1,49,-1
 618 730 l 1,50,-1
 760 730 l 1,51,-1
 771 719 l 1,52,-1
 767 726 l 1,53,-1
 769 724 l 1,54,-1
 771 719 l 1,55,-1
 775 715 l 1,56,-1
 775 712 l 1,57,-1
 771 718 l 1,58,-1
 776 704 l 1,59,-1
 636 425 l 1,60,-1
 636 291 l 1,61,-1
 776 11 l 1,62,-1
 771 -3 l 1,63,-1
 775 3 l 1,64,-1
 775 1 l 1,65,-1
 771 -3 l 1,66,-1
 769 -9 l 1,67,-1
 767 -10 l 1,68,-1
 771 -3 l 1,69,-1
 760 -14 l 1,70,-1
 618 -14 l 1,71,-1
 611 -7 l 1,72,-1
 603 -5 l 1,73,-1
 466 270 l 1,74,-1
 346 270 l 1,75,-1
 209 -5 l 1,76,-1
 200 -7 l 1,77,-1
 193 -14 l 1,78,-1
 52 -14 l 1,79,-1
 41 -3 l 1,80,-1
 37 11 l 1,81,-1
 176 291 l 1,82,-1
 176 425 l 1,83,-1
 37 704 l 1,84,-1
 42 719 l 1,41,-1
42 720 m 1,85,-1
 44 724 l 1,86,-1
 46 725 l 1,87,-1
 42 720 l 1,85,-1
41 -3 m 1,88,-1
 40 -2 l 1,89,-1
 41 -3 l 1,88,-1
41 -3 m 1,90,-1
 44 -9 l 1,91,-1
 42 -8 l 1,92,-1
 41 -3 l 1,90,-1
40 -2 m 1,93,-1
 37 1 l 1,94,-1
 37 3 l 1,95,-1
 40 -2 l 1,93,-1
EndSplineSet
EndChar

StartChar: Y
Encoding: 89 89 60
Width: 813
GlyphClass: 2
Flags: W
LayerCount: 2
Back
Fore
SplineSet
185 707 m 1,0,-1
 189 704 l 1,1,-1
 193 702 l 1,2,-1
 185 707 l 1,0,-1
185 700 m 1,3,-1
 73 700 l 1,4,-1
 201 440 l 1,5,-1
 315 440 l 1,6,-1
 185 700 l 1,3,-1
618 702 m 1,7,-1
 623 704 l 1,8,-1
 626 707 l 1,9,-1
 618 702 l 1,7,-1
626 700 m 1,10,-1
 497 440 l 1,11,-1
 611 440 l 1,12,-1
 740 700 l 1,13,-1
 626 700 l 1,10,-1
619 437 m 1,14,-1
 613 435 l 1,15,-1
 609 432 l 1,16,-1
 619 437 l 1,14,-1
465 416 m 1,17,-1
 348 416 l 1,18,-1
 348 16 l 1,19,-1
 465 16 l 1,20,-1
 465 416 l 1,17,-1
202 432 m 1,21,-1
 198 435 l 1,22,-1
 193 437 l 1,23,-1
 202 432 l 1,21,-1
42 719 m 1024,24,-1
42 719 m 1,25,-1
 37 712 l 1,26,-1
 37 714 l 1,27,-1
 42 719 l 1,25,-1
42 719 m 1,28,-1
 52 730 l 1,29,-1
 193 730 l 1,30,-1
 200 723 l 1,31,-1
 209 720 l 1,32,-1
 346 446 l 1,33,-1
 466 446 l 1,34,-1
 603 720 l 1,35,-1
 612 723 l 1,36,-1
 618 730 l 1,37,-1
 760 730 l 1,38,-1
 771 719 l 1,39,-1
 767 725 l 1,40,-1
 769 724 l 1,41,-1
 771 718 l 1,42,-1
 775 714 l 1,43,-1
 775 712 l 1,44,-1
 771 718 l 1,45,-1
 776 704 l 1,46,-1
 634 420 l 1,47,-1
 625 417 l 1,48,-1
 618 410 l 1,49,-1
 495 410 l 1,50,-1
 495 0 l 1,51,-1
 480 -14 l 1,52,-1
 333 -14 l 1,53,-1
 318 0 l 1,54,-1
 318 410 l 1,55,-1
 193 410 l 1,56,-1
 186 417 l 1,57,-1
 178 420 l 1,58,-1
 37 704 l 1,59,-1
 42 719 l 1,28,-1
42 719 m 1,60,-1
 44 724 l 1,61,-1
 46 725 l 1,62,-1
 42 719 l 1,60,-1
EndSplineSet
EndChar

StartChar: Z
Encoding: 90 90 61
Width: 813
GlyphClass: 2
Flags: W
LayerCount: 2
Back
Fore
SplineSet
548 730 m 2,0,1
 643 730 643 730 710.5 663 c 128,-1,2
 778 596 778 596 778 500 c 0,3,4
 778 405 778 405 710.5 337.5 c 128,-1,5
 643 270 643 270 548 270 c 2,6,-1
 264 270 l 2,7,8
 242 270 242 270 227 254.5 c 128,-1,9
 212 239 212 239 212 217 c 128,-1,10
 212 195 212 195 227 179.5 c 128,-1,11
 242 164 242 164 264 164 c 2,12,-1
 761 164 l 1,13,-1
 778 146 l 1,14,-1
 778 4 l 1,15,-1
 761 -14 l 1,16,-1
 264 -14 l 2,17,18
 169 -14 169 -14 101.5 53.5 c 128,-1,19
 34 121 34 121 34 217 c 0,20,21
 34 312 34 312 101.5 379 c 128,-1,22
 169 446 169 446 264 446 c 2,23,-1
 548 446 l 2,24,25
 570 446 570 446 586 462 c 128,-1,26
 602 478 602 478 602 500 c 128,-1,27
 602 522 602 522 586 538 c 128,-1,28
 570 554 570 554 548 554 c 2,29,-1
 52 554 l 1,30,-1
 34 571 l 1,31,-1
 34 713 l 1,32,-1
 52 730 l 1,33,-1
 548 730 l 2,0,1
748 134 m 1,34,-1
 264 134 l 2,35,36
 230 134 230 134 206 158.5 c 128,-1,37
 182 183 182 183 182 217 c 128,-1,38
 182 251 182 251 206 275.5 c 128,-1,39
 230 300 230 300 264 300 c 2,40,-1
 548 300 l 2,41,42
 631 300 631 300 689.5 359 c 128,-1,43
 748 418 748 418 748 500 c 0,44,45
 748 583 748 583 689.5 641.5 c 128,-1,46
 631 700 631 700 548 700 c 2,47,-1
 64 700 l 1,48,-1
 64 584 l 1,49,-1
 548 584 l 2,50,51
 582 584 582 584 607 559 c 128,-1,52
 632 534 632 534 632 500 c 128,-1,53
 632 466 632 466 607 441 c 128,-1,54
 582 416 582 416 548 416 c 2,55,-1
 264 416 l 2,56,57
 181 416 181 416 122.5 358 c 128,-1,58
 64 300 64 300 64 217 c 256,59,60
 64 134 64 134 122.5 75 c 128,-1,61
 181 16 181 16 264 16 c 2,62,-1
 748 16 l 1,63,-1
 748 134 l 1,34,-1
EndSplineSet
EndChar

StartChar: bracketleft
Encoding: 91 91 62
Width: 813
GlyphClass: 2
Flags: W
LayerCount: 2
Back
Fore
SplineSet
50 729 m 1,0,-1
 196 729 l 1,1,-1
 212 714 l 1,2,-1
 212 567 l 1,3,-1
 196 552 l 1,4,-1
 50 552 l 1,5,-1
 34 567 l 1,6,-1
 34 714 l 1,7,-1
 50 729 l 1,0,-1
182 699 m 1,8,-1
 64 699 l 1,9,-1
 64 582 l 1,10,-1
 182 582 l 1,11,-1
 182 699 l 1,8,-1
332 729 m 1,12,-1
 480 729 l 1,13,-1
 494 714 l 1,14,-1
 494 446 l 1,15,-1
 764 446 l 1,16,-1
 778 431 l 1,17,-1
 778 284 l 1,18,-1
 764 269 l 1,19,-1
 494 269 l 1,20,-1
 494 0 l 1,21,-1
 480 -15 l 1,22,-1
 332 -15 l 1,23,-1
 318 0 l 1,24,-1
 318 269 l 1,25,-1
 50 269 l 1,26,-1
 34 284 l 1,27,-1
 34 431 l 1,28,-1
 50 446 l 1,29,-1
 318 446 l 1,30,-1
 318 714 l 1,31,-1
 332 729 l 1,12,-1
464 699 m 1,32,-1
 348 699 l 1,33,-1
 348 431 l 1,34,-1
 332 416 l 1,35,-1
 64 416 l 1,36,-1
 64 299 l 1,37,-1
 332 299 l 1,38,-1
 348 284 l 1,39,-1
 348 15 l 1,40,-1
 464 15 l 1,41,-1
 464 284 l 1,42,-1
 480 299 l 1,43,-1
 748 299 l 1,44,-1
 748 416 l 1,45,-1
 480 416 l 1,46,-1
 464 431 l 1,47,-1
 464 699 l 1,32,-1
616 729 m 1,48,-1
 764 729 l 1,49,-1
 778 714 l 1,50,-1
 778 567 l 1,51,-1
 764 552 l 1,52,-1
 616 552 l 1,53,-1
 602 567 l 1,54,-1
 602 714 l 1,55,-1
 616 729 l 1,48,-1
748 699 m 1,56,-1
 632 699 l 1,57,-1
 632 582 l 1,58,-1
 748 582 l 1,59,-1
 748 699 l 1,56,-1
50 162 m 1,60,-1
 196 162 l 1,61,-1
 212 147 l 1,62,-1
 212 0 l 1,63,-1
 196 -15 l 1,64,-1
 50 -15 l 1,65,-1
 34 0 l 1,66,-1
 34 147 l 1,67,-1
 50 162 l 1,60,-1
182 132 m 1,68,-1
 64 132 l 1,69,-1
 64 15 l 1,70,-1
 182 15 l 1,71,-1
 182 132 l 1,68,-1
616 162 m 1,72,-1
 764 162 l 1,73,-1
 778 147 l 1,74,-1
 778 0 l 1,75,-1
 764 -15 l 1,76,-1
 616 -15 l 1,77,-1
 602 0 l 1,78,-1
 602 147 l 1,79,-1
 616 162 l 1,72,-1
748 132 m 1,80,-1
 632 132 l 1,81,-1
 632 15 l 1,82,-1
 748 15 l 1,83,-1
 748 132 l 1,80,-1
EndSplineSet
EndChar

StartChar: backslash
Encoding: 92 92 63
Width: 813
GlyphClass: 2
Flags: W
LayerCount: 2
Back
Fore
SplineSet
50 729 m 1,0,-1
 196 729 l 1,1,-1
 212 714 l 1,2,-1
 212 567 l 1,3,-1
 196 552 l 1,4,-1
 50 552 l 1,5,-1
 34 567 l 1,6,-1
 34 714 l 1,7,-1
 50 729 l 1,0,-1
182 699 m 1,8,-1
 64 699 l 1,9,-1
 64 582 l 1,10,-1
 182 582 l 1,11,-1
 182 699 l 1,8,-1
332 729 m 1,12,-1
 480 729 l 1,13,-1
 494 714 l 1,14,-1
 494 446 l 1,15,-1
 764 446 l 1,16,-1
 778 431 l 1,17,-1
 778 284 l 1,18,-1
 764 269 l 1,19,-1
 494 269 l 1,20,-1
 494 0 l 1,21,-1
 480 -15 l 1,22,-1
 332 -15 l 1,23,-1
 318 0 l 1,24,-1
 318 269 l 1,25,-1
 50 269 l 1,26,-1
 34 284 l 1,27,-1
 34 431 l 1,28,-1
 50 446 l 1,29,-1
 318 446 l 1,30,-1
 318 714 l 1,31,-1
 332 729 l 1,12,-1
464 699 m 1,32,-1
 348 699 l 1,33,-1
 348 431 l 1,34,-1
 332 416 l 1,35,-1
 64 416 l 1,36,-1
 64 299 l 1,37,-1
 332 299 l 1,38,-1
 348 284 l 1,39,-1
 348 15 l 1,40,-1
 464 15 l 1,41,-1
 464 284 l 1,42,-1
 480 299 l 1,43,-1
 748 299 l 1,44,-1
 748 416 l 1,45,-1
 480 416 l 1,46,-1
 464 431 l 1,47,-1
 464 699 l 1,32,-1
616 729 m 1,48,-1
 764 729 l 1,49,-1
 778 714 l 1,50,-1
 778 567 l 1,51,-1
 764 552 l 1,52,-1
 616 552 l 1,53,-1
 602 567 l 1,54,-1
 602 714 l 1,55,-1
 616 729 l 1,48,-1
748 699 m 1,56,-1
 632 699 l 1,57,-1
 632 582 l 1,58,-1
 748 582 l 1,59,-1
 748 699 l 1,56,-1
50 162 m 1,60,-1
 196 162 l 1,61,-1
 212 147 l 1,62,-1
 212 0 l 1,63,-1
 196 -15 l 1,64,-1
 50 -15 l 1,65,-1
 34 0 l 1,66,-1
 34 147 l 1,67,-1
 50 162 l 1,60,-1
182 132 m 1,68,-1
 64 132 l 1,69,-1
 64 15 l 1,70,-1
 182 15 l 1,71,-1
 182 132 l 1,68,-1
616 162 m 1,72,-1
 764 162 l 1,73,-1
 778 147 l 1,74,-1
 778 0 l 1,75,-1
 764 -15 l 1,76,-1
 616 -15 l 1,77,-1
 602 0 l 1,78,-1
 602 147 l 1,79,-1
 616 162 l 1,72,-1
748 132 m 1,80,-1
 632 132 l 1,81,-1
 632 15 l 1,82,-1
 748 15 l 1,83,-1
 748 132 l 1,80,-1
EndSplineSet
EndChar

StartChar: bracketright
Encoding: 93 93 64
Width: 813
GlyphClass: 2
Flags: W
LayerCount: 2
Back
Fore
SplineSet
50 729 m 1,0,-1
 196 729 l 1,1,-1
 212 714 l 1,2,-1
 212 567 l 1,3,-1
 196 552 l 1,4,-1
 50 552 l 1,5,-1
 34 567 l 1,6,-1
 34 714 l 1,7,-1
 50 729 l 1,0,-1
182 699 m 1,8,-1
 64 699 l 1,9,-1
 64 582 l 1,10,-1
 182 582 l 1,11,-1
 182 699 l 1,8,-1
332 729 m 1,12,-1
 480 729 l 1,13,-1
 494 714 l 1,14,-1
 494 446 l 1,15,-1
 764 446 l 1,16,-1
 778 431 l 1,17,-1
 778 284 l 1,18,-1
 764 269 l 1,19,-1
 494 269 l 1,20,-1
 494 0 l 1,21,-1
 480 -15 l 1,22,-1
 332 -15 l 1,23,-1
 318 0 l 1,24,-1
 318 269 l 1,25,-1
 50 269 l 1,26,-1
 34 284 l 1,27,-1
 34 431 l 1,28,-1
 50 446 l 1,29,-1
 318 446 l 1,30,-1
 318 714 l 1,31,-1
 332 729 l 1,12,-1
464 699 m 1,32,-1
 348 699 l 1,33,-1
 348 431 l 1,34,-1
 332 416 l 1,35,-1
 64 416 l 1,36,-1
 64 299 l 1,37,-1
 332 299 l 1,38,-1
 348 284 l 1,39,-1
 348 15 l 1,40,-1
 464 15 l 1,41,-1
 464 284 l 1,42,-1
 480 299 l 1,43,-1
 748 299 l 1,44,-1
 748 416 l 1,45,-1
 480 416 l 1,46,-1
 464 431 l 1,47,-1
 464 699 l 1,32,-1
616 729 m 1,48,-1
 764 729 l 1,49,-1
 778 714 l 1,50,-1
 778 567 l 1,51,-1
 764 552 l 1,52,-1
 616 552 l 1,53,-1
 602 567 l 1,54,-1
 602 714 l 1,55,-1
 616 729 l 1,48,-1
748 699 m 1,56,-1
 632 699 l 1,57,-1
 632 582 l 1,58,-1
 748 582 l 1,59,-1
 748 699 l 1,56,-1
50 162 m 1,60,-1
 196 162 l 1,61,-1
 212 147 l 1,62,-1
 212 0 l 1,63,-1
 196 -15 l 1,64,-1
 50 -15 l 1,65,-1
 34 0 l 1,66,-1
 34 147 l 1,67,-1
 50 162 l 1,60,-1
182 132 m 1,68,-1
 64 132 l 1,69,-1
 64 15 l 1,70,-1
 182 15 l 1,71,-1
 182 132 l 1,68,-1
616 162 m 1,72,-1
 764 162 l 1,73,-1
 778 147 l 1,74,-1
 778 0 l 1,75,-1
 764 -15 l 1,76,-1
 616 -15 l 1,77,-1
 602 0 l 1,78,-1
 602 147 l 1,79,-1
 616 162 l 1,72,-1
748 132 m 1,80,-1
 632 132 l 1,81,-1
 632 15 l 1,82,-1
 748 15 l 1,83,-1
 748 132 l 1,80,-1
EndSplineSet
EndChar

StartChar: asciicircum
Encoding: 94 94 65
Width: 813
GlyphClass: 2
Flags: W
LayerCount: 2
Back
Fore
SplineSet
50 729 m 1,0,-1
 196 729 l 1,1,-1
 212 714 l 1,2,-1
 212 567 l 1,3,-1
 196 552 l 1,4,-1
 50 552 l 1,5,-1
 34 567 l 1,6,-1
 34 714 l 1,7,-1
 50 729 l 1,0,-1
182 699 m 1,8,-1
 64 699 l 1,9,-1
 64 582 l 1,10,-1
 182 582 l 1,11,-1
 182 699 l 1,8,-1
332 729 m 1,12,-1
 480 729 l 1,13,-1
 494 714 l 1,14,-1
 494 446 l 1,15,-1
 764 446 l 1,16,-1
 778 431 l 1,17,-1
 778 284 l 1,18,-1
 764 269 l 1,19,-1
 494 269 l 1,20,-1
 494 0 l 1,21,-1
 480 -15 l 1,22,-1
 332 -15 l 1,23,-1
 318 0 l 1,24,-1
 318 269 l 1,25,-1
 50 269 l 1,26,-1
 34 284 l 1,27,-1
 34 431 l 1,28,-1
 50 446 l 1,29,-1
 318 446 l 1,30,-1
 318 714 l 1,31,-1
 332 729 l 1,12,-1
464 699 m 1,32,-1
 348 699 l 1,33,-1
 348 431 l 1,34,-1
 332 416 l 1,35,-1
 64 416 l 1,36,-1
 64 299 l 1,37,-1
 332 299 l 1,38,-1
 348 284 l 1,39,-1
 348 15 l 1,40,-1
 464 15 l 1,41,-1
 464 284 l 1,42,-1
 480 299 l 1,43,-1
 748 299 l 1,44,-1
 748 416 l 1,45,-1
 480 416 l 1,46,-1
 464 431 l 1,47,-1
 464 699 l 1,32,-1
616 729 m 1,48,-1
 764 729 l 1,49,-1
 778 714 l 1,50,-1
 778 567 l 1,51,-1
 764 552 l 1,52,-1
 616 552 l 1,53,-1
 602 567 l 1,54,-1
 602 714 l 1,55,-1
 616 729 l 1,48,-1
748 699 m 1,56,-1
 632 699 l 1,57,-1
 632 582 l 1,58,-1
 748 582 l 1,59,-1
 748 699 l 1,56,-1
50 162 m 1,60,-1
 196 162 l 1,61,-1
 212 147 l 1,62,-1
 212 0 l 1,63,-1
 196 -15 l 1,64,-1
 50 -15 l 1,65,-1
 34 0 l 1,66,-1
 34 147 l 1,67,-1
 50 162 l 1,60,-1
182 132 m 1,68,-1
 64 132 l 1,69,-1
 64 15 l 1,70,-1
 182 15 l 1,71,-1
 182 132 l 1,68,-1
616 162 m 1,72,-1
 764 162 l 1,73,-1
 778 147 l 1,74,-1
 778 0 l 1,75,-1
 764 -15 l 1,76,-1
 616 -15 l 1,77,-1
 602 0 l 1,78,-1
 602 147 l 1,79,-1
 616 162 l 1,72,-1
748 132 m 1,80,-1
 632 132 l 1,81,-1
 632 15 l 1,82,-1
 748 15 l 1,83,-1
 748 132 l 1,80,-1
EndSplineSet
EndChar

StartChar: underscore
Encoding: 95 95 66
Width: 813
GlyphClass: 2
Flags: W
LayerCount: 2
Back
Fore
SplineSet
50 729 m 1,0,-1
 196 729 l 1,1,-1
 212 714 l 1,2,-1
 212 567 l 1,3,-1
 196 552 l 1,4,-1
 50 552 l 1,5,-1
 34 567 l 1,6,-1
 34 714 l 1,7,-1
 50 729 l 1,0,-1
182 699 m 1,8,-1
 64 699 l 1,9,-1
 64 582 l 1,10,-1
 182 582 l 1,11,-1
 182 699 l 1,8,-1
332 729 m 1,12,-1
 480 729 l 1,13,-1
 494 714 l 1,14,-1
 494 446 l 1,15,-1
 764 446 l 1,16,-1
 778 431 l 1,17,-1
 778 284 l 1,18,-1
 764 269 l 1,19,-1
 494 269 l 1,20,-1
 494 0 l 1,21,-1
 480 -15 l 1,22,-1
 332 -15 l 1,23,-1
 318 0 l 1,24,-1
 318 269 l 1,25,-1
 50 269 l 1,26,-1
 34 284 l 1,27,-1
 34 431 l 1,28,-1
 50 446 l 1,29,-1
 318 446 l 1,30,-1
 318 714 l 1,31,-1
 332 729 l 1,12,-1
464 699 m 1,32,-1
 348 699 l 1,33,-1
 348 431 l 1,34,-1
 332 416 l 1,35,-1
 64 416 l 1,36,-1
 64 299 l 1,37,-1
 332 299 l 1,38,-1
 348 284 l 1,39,-1
 348 15 l 1,40,-1
 464 15 l 1,41,-1
 464 284 l 1,42,-1
 480 299 l 1,43,-1
 748 299 l 1,44,-1
 748 416 l 1,45,-1
 480 416 l 1,46,-1
 464 431 l 1,47,-1
 464 699 l 1,32,-1
616 729 m 1,48,-1
 764 729 l 1,49,-1
 778 714 l 1,50,-1
 778 567 l 1,51,-1
 764 552 l 1,52,-1
 616 552 l 1,53,-1
 602 567 l 1,54,-1
 602 714 l 1,55,-1
 616 729 l 1,48,-1
748 699 m 1,56,-1
 632 699 l 1,57,-1
 632 582 l 1,58,-1
 748 582 l 1,59,-1
 748 699 l 1,56,-1
50 162 m 1,60,-1
 196 162 l 1,61,-1
 212 147 l 1,62,-1
 212 0 l 1,63,-1
 196 -15 l 1,64,-1
 50 -15 l 1,65,-1
 34 0 l 1,66,-1
 34 147 l 1,67,-1
 50 162 l 1,60,-1
182 132 m 1,68,-1
 64 132 l 1,69,-1
 64 15 l 1,70,-1
 182 15 l 1,71,-1
 182 132 l 1,68,-1
616 162 m 1,72,-1
 764 162 l 1,73,-1
 778 147 l 1,74,-1
 778 0 l 1,75,-1
 764 -15 l 1,76,-1
 616 -15 l 1,77,-1
 602 0 l 1,78,-1
 602 147 l 1,79,-1
 616 162 l 1,72,-1
748 132 m 1,80,-1
 632 132 l 1,81,-1
 632 15 l 1,82,-1
 748 15 l 1,83,-1
 748 132 l 1,80,-1
EndSplineSet
EndChar

StartChar: grave
Encoding: 96 96 67
Width: 813
GlyphClass: 2
Flags: W
LayerCount: 2
Back
Fore
SplineSet
50 729 m 1,0,-1
 196 729 l 1,1,-1
 212 714 l 1,2,-1
 212 567 l 1,3,-1
 196 552 l 1,4,-1
 50 552 l 1,5,-1
 34 567 l 1,6,-1
 34 714 l 1,7,-1
 50 729 l 1,0,-1
182 699 m 1,8,-1
 64 699 l 1,9,-1
 64 582 l 1,10,-1
 182 582 l 1,11,-1
 182 699 l 1,8,-1
332 729 m 1,12,-1
 480 729 l 1,13,-1
 494 714 l 1,14,-1
 494 446 l 1,15,-1
 764 446 l 1,16,-1
 778 431 l 1,17,-1
 778 284 l 1,18,-1
 764 269 l 1,19,-1
 494 269 l 1,20,-1
 494 0 l 1,21,-1
 480 -15 l 1,22,-1
 332 -15 l 1,23,-1
 318 0 l 1,24,-1
 318 269 l 1,25,-1
 50 269 l 1,26,-1
 34 284 l 1,27,-1
 34 431 l 1,28,-1
 50 446 l 1,29,-1
 318 446 l 1,30,-1
 318 714 l 1,31,-1
 332 729 l 1,12,-1
464 699 m 1,32,-1
 348 699 l 1,33,-1
 348 431 l 1,34,-1
 332 416 l 1,35,-1
 64 416 l 1,36,-1
 64 299 l 1,37,-1
 332 299 l 1,38,-1
 348 284 l 1,39,-1
 348 15 l 1,40,-1
 464 15 l 1,41,-1
 464 284 l 1,42,-1
 480 299 l 1,43,-1
 748 299 l 1,44,-1
 748 416 l 1,45,-1
 480 416 l 1,46,-1
 464 431 l 1,47,-1
 464 699 l 1,32,-1
616 729 m 1,48,-1
 764 729 l 1,49,-1
 778 714 l 1,50,-1
 778 567 l 1,51,-1
 764 552 l 1,52,-1
 616 552 l 1,53,-1
 602 567 l 1,54,-1
 602 714 l 1,55,-1
 616 729 l 1,48,-1
748 699 m 1,56,-1
 632 699 l 1,57,-1
 632 582 l 1,58,-1
 748 582 l 1,59,-1
 748 699 l 1,56,-1
50 162 m 1,60,-1
 196 162 l 1,61,-1
 212 147 l 1,62,-1
 212 0 l 1,63,-1
 196 -15 l 1,64,-1
 50 -15 l 1,65,-1
 34 0 l 1,66,-1
 34 147 l 1,67,-1
 50 162 l 1,60,-1
182 132 m 1,68,-1
 64 132 l 1,69,-1
 64 15 l 1,70,-1
 182 15 l 1,71,-1
 182 132 l 1,68,-1
616 162 m 1,72,-1
 764 162 l 1,73,-1
 778 147 l 1,74,-1
 778 0 l 1,75,-1
 764 -15 l 1,76,-1
 616 -15 l 1,77,-1
 602 0 l 1,78,-1
 602 147 l 1,79,-1
 616 162 l 1,72,-1
748 132 m 1,80,-1
 632 132 l 1,81,-1
 632 15 l 1,82,-1
 748 15 l 1,83,-1
 748 132 l 1,80,-1
EndSplineSet
EndChar

StartChar: a
Encoding: 97 97 68
Width: 813
GlyphClass: 2
Flags: W
LayerCount: 2
Back
Fore
SplineSet
406 700 m 0,0,1
 262 700 262 700 164 602 c 128,-1,2
 66 504 66 504 65 360 c 2,3,-1
 65 16 l 1,4,-1
 181 16 l 1,5,-1
 181 214 l 1,6,-1
 196 229 l 1,7,-1
 617 229 l 1,8,-1
 632 214 l 1,9,-1
 632 16 l 1,10,-1
 748 16 l 1,11,-1
 748 358 l 2,12,13
 748 503 748 503 650 601.5 c 128,-1,14
 552 700 552 700 406 700 c 0,0,1
778 358 m 2,15,-1
 778 1 l 1,16,-1
 763 -14 l 1,17,-1
 617 -14 l 1,18,-1
 602 1 l 1,19,-1
 602 199 l 1,20,-1
 211 199 l 1,21,-1
 211 1 l 1,22,-1
 196 -14 l 1,23,-1
 50 -14 l 1,24,-1
 35 1 l 1,25,-1
 35 360 l 2,26,27
 36 463 36 463 84.5 548 c 128,-1,28
 133 633 133 633 218 681.5 c 128,-1,29
 303 730 303 730 406 730 c 0,30,31
 564 730 564 730 671 623 c 128,-1,32
 778 516 778 516 778 358 c 2,15,-1
406 553 m 0,33,34
 328 553 328 553 273 502.5 c 128,-1,35
 218 452 218 452 212 375 c 1,36,-1
 601 375 l 1,37,38
 595 452 595 452 540 502.5 c 128,-1,39
 485 553 485 553 406 553 c 0,33,34
632 360 m 1,40,-1
 617 345 l 1,41,-1
 196 345 l 1,42,-1
 181 360 l 1,43,44
 182 455 182 455 247 519 c 128,-1,45
 312 583 312 583 406 583 c 0,46,47
 502 583 502 583 566.5 519 c 128,-1,48
 631 455 631 455 632 360 c 1,40,-1
EndSplineSet
EndChar

StartChar: b
Encoding: 98 98 69
Width: 813
GlyphClass: 2
Flags: W
LayerCount: 2
Back
Fore
SplineSet
548 728 m 2,0,1
 643 728 643 728 710.5 660.5 c 128,-1,2
 778 593 778 593 778 498 c 0,3,4
 778 419 778 419 729 356 c 1,5,6
 778 294 778 294 778 214 c 0,7,8
 778 120 778 120 710.5 52.5 c 128,-1,9
 643 -15 643 -15 548 -15 c 2,10,-1
 52 -15 l 1,11,-1
 35 2 l 1,12,-1
 35 710 l 1,13,-1
 52 728 l 1,14,-1
 548 728 l 2,0,1
65 698 m 1,15,-1
 65 15 l 1,16,-1
 548 15 l 2,17,18
 631 15 631 15 689.5 73.5 c 128,-1,19
 748 132 748 132 748 214 c 0,20,21
 748 290 748 290 698 347 c 1,22,-1
 698 366 l 1,23,24
 748 423 748 423 748 498 c 0,25,26
 748 581 748 581 689.5 639.5 c 128,-1,27
 631 698 631 698 548 698 c 2,28,-1
 65 698 l 1,15,-1
211 552 m 1,29,-1
 211 445 l 1,30,-1
 548 445 l 2,31,32
 570 445 570 445 586 461 c 128,-1,33
 602 477 602 477 602 498.5 c 128,-1,34
 602 520 602 520 586 536 c 128,-1,35
 570 552 570 552 548 552 c 2,36,-1
 211 552 l 1,29,-1
548 582 m 2,37,38
 583 582 583 582 607.5 557.5 c 128,-1,39
 632 533 632 533 632 498.5 c 128,-1,40
 632 464 632 464 607.5 439.5 c 128,-1,41
 583 415 583 415 548 415 c 2,42,-1
 196 415 l 1,43,-1
 181 430 l 1,44,-1
 181 567 l 1,45,-1
 196 582 l 1,46,-1
 548 582 l 2,37,38
211 268 m 1,47,-1
 211 161 l 1,48,-1
 548 161 l 2,49,50
 570 161 570 161 586 177 c 128,-1,51
 602 193 602 193 602 214.5 c 128,-1,52
 602 236 602 236 586 252 c 128,-1,53
 570 268 570 268 548 268 c 2,54,-1
 211 268 l 1,47,-1
548 298 m 2,55,56
 583 298 583 298 607.5 273.5 c 128,-1,57
 632 249 632 249 632 214.5 c 128,-1,58
 632 180 632 180 607.5 155.5 c 128,-1,59
 583 131 583 131 548 131 c 2,60,-1
 196 131 l 1,61,-1
 181 146 l 1,62,-1
 181 283 l 1,63,-1
 196 298 l 1,64,-1
 548 298 l 2,55,56
EndSplineSet
EndChar

StartChar: c
Encoding: 99 99 70
Width: 813
GlyphClass: 2
Flags: W
LayerCount: 2
Back
Fore
SplineSet
404 699 m 2,0,1
 260 698 260 698 162.5 600 c 128,-1,2
 65 502 65 502 65 358 c 0,3,4
 65 212 65 212 163 113.5 c 128,-1,5
 261 15 261 15 406 15 c 2,6,-1
 748 15 l 1,7,-1
 748 132 l 1,8,-1
 406 132 l 2,9,10
 405 132 405 132 405 132 c 2,11,12
 404 132 404 132 404 132 c 2,13,14
 309 133 309 133 245 198 c 128,-1,15
 181 263 181 263 181 358 c 0,16,17
 181 452 181 452 245 516.5 c 128,-1,18
 309 581 309 581 404 582 c 2,19,-1
 748 582 l 1,20,-1
 748 699 l 1,21,-1
 404 699 l 2,0,1
404 729 m 2,22,-1
 763 729 l 1,23,-1
 778 714 l 1,24,-1
 778 567 l 1,25,-1
 763 552 l 1,26,-1
 404 552 l 2,27,28
 322 551 322 551 266.5 495.5 c 128,-1,29
 211 440 211 440 211 358 c 0,30,31
 211 275 211 275 266.5 219 c 128,-1,32
 322 163 322 163 404 162 c 0,33,34
 405 162 405 162 405 162 c 129,-1,35
 405 162 405 162 406 162 c 2,36,-1
 763 162 l 1,37,-1
 778 147 l 1,38,-1
 778 0 l 1,39,-1
 763 -15 l 1,40,-1
 406 -15 l 2,41,42
 249 -15 249 -15 142 92 c 128,-1,43
 35 199 35 199 35 358 c 0,44,45
 35 461 35 461 83 546 c 128,-1,46
 131 631 131 631 216 679.5 c 128,-1,47
 301 728 301 728 404 729 c 2,22,-1
EndSplineSet
EndChar

StartChar: d
Encoding: 100 100 71
Width: 813
GlyphClass: 2
Flags: W
LayerCount: 2
Back
Fore
SplineSet
52 728 m 1,0,-1
 406 728 l 2,1,2
 510 728 510 728 595.5 679.5 c 128,-1,3
 681 631 681 631 729.5 545.5 c 128,-1,4
 778 460 778 460 778 356 c 0,5,6
 778 253 778 253 730 168 c 128,-1,7
 682 83 682 83 597 34.5 c 128,-1,8
 512 -14 512 -14 409 -15 c 2,9,-1
 52 -15 l 1,10,-1
 34 2 l 1,11,-1
 34 710 l 1,12,-1
 52 728 l 1,0,-1
64 698 m 1,13,-1
 64 15 l 1,14,-1
 408 15 l 2,15,16
 553 16 553 16 650.5 114 c 128,-1,17
 748 212 748 212 748 356 c 0,18,19
 748 502 748 502 649.5 600 c 128,-1,20
 551 698 551 698 406 698 c 2,21,-1
 64 698 l 1,13,-1
212 552 m 1,22,-1
 212 161 l 1,23,-1
 406 161 l 1,24,25
 406 161 406 161 406.5 161 c 128,-1,26
 407 161 407 161 408 161 c 0,27,28
 491 162 491 162 546.5 218 c 128,-1,29
 602 274 602 274 602 356 c 0,30,31
 602 440 602 440 546 496 c 128,-1,32
 490 552 490 552 406 552 c 2,33,-1
 212 552 l 1,22,-1
196 582 m 1,34,-1
 406 582 l 2,35,36
 502 582 502 582 567 517.5 c 128,-1,37
 632 453 632 453 632 356 c 0,38,39
 632 262 632 262 567.5 197 c 128,-1,40
 503 132 503 132 409 131 c 0,41,42
 408 131 408 131 408 131 c 2,43,44
 407 131 407 131 406.5 131 c 128,-1,45
 406 131 406 131 406 131 c 1,46,-1
 196 131 l 1,47,-1
 182 146 l 1,48,-1
 182 567 l 1,49,-1
 196 582 l 1,34,-1
EndSplineSet
EndChar

StartChar: e
Encoding: 101 101 72
Width: 813
GlyphClass: 2
Flags: W
LayerCount: 2
Back
Fore
SplineSet
748 698 m 1,0,-1
 64 698 l 1,1,-1
 64 15 l 1,2,-1
 748 15 l 1,3,-1
 748 131 l 1,4,-1
 196 131 l 1,5,-1
 182 146 l 1,6,-1
 182 283 l 1,7,-1
 196 298 l 1,8,-1
 536 298 l 1,9,-1
 536 415 l 1,10,-1
 196 415 l 1,11,-1
 182 430 l 1,12,-1
 182 567 l 1,13,-1
 196 582 l 1,14,-1
 748 582 l 1,15,-1
 748 698 l 1,0,-1
34 710 m 1,16,-1
 52 728 l 1,17,-1
 761 728 l 1,18,-1
 778 710 l 1,19,-1
 778 570 l 1,20,-1
 761 552 l 1,21,-1
 212 552 l 1,22,-1
 212 445 l 1,23,-1
 548 445 l 1,24,-1
 566 428 l 1,25,-1
 566 286 l 1,26,-1
 548 268 l 1,27,-1
 212 268 l 1,28,-1
 212 161 l 1,29,-1
 761 161 l 1,30,-1
 778 144 l 1,31,-1
 778 2 l 1,32,-1
 761 -15 l 1,33,-1
 52 -15 l 1,34,-1
 34 2 l 1,35,-1
 34 710 l 1,16,-1
EndSplineSet
EndChar

StartChar: f
Encoding: 102 102 73
Width: 813
GlyphClass: 2
Flags: W
LayerCount: 2
Back
Fore
SplineSet
748 700 m 1,0,-1
 64 700 l 1,1,-1
 64 16 l 1,2,-1
 182 16 l 1,3,-1
 182 284 l 1,4,-1
 196 300 l 1,5,-1
 536 300 l 1,6,-1
 536 416 l 1,7,-1
 196 416 l 1,8,-1
 182 432 l 1,9,-1
 182 568 l 1,10,-1
 196 582 l 1,11,-1
 748 582 l 1,12,-1
 748 700 l 1,0,-1
34 712 m 1,13,-1
 52 730 l 1,14,-1
 761 730 l 1,15,-1
 778 712 l 1,16,-1
 778 570 l 1,17,-1
 761 552 l 1,18,-1
 212 552 l 1,19,-1
 212 446 l 1,20,-1
 548 446 l 1,21,-1
 566 429 l 1,22,-1
 566 287 l 1,23,-1
 548 270 l 1,24,-1
 212 270 l 1,25,-1
 212 3 l 1,26,-1
 194 -14 l 1,27,-1
 52 -14 l 1,28,-1
 34 3 l 1,29,-1
 34 712 l 1,13,-1
EndSplineSet
EndChar

StartChar: g
Encoding: 103 103 74
Width: 813
GlyphClass: 2
Flags: W
LayerCount: 2
Back
Fore
SplineSet
404 699 m 2,0,1
 259 698 259 698 161.5 599.5 c 128,-1,2
 64 501 64 501 64 356 c 0,3,4
 64 212 64 212 161.5 114 c 128,-1,5
 259 16 259 16 404 15 c 0,6,7
 405 15 405 15 405.5 15 c 128,-1,8
 406 15 406 15 406 15 c 1,9,-1
 748 15 l 1,10,-1
 748 415 l 1,11,-1
 418 415 l 1,12,-1
 418 298 l 1,13,-1
 616 298 l 1,14,-1
 632 283 l 1,15,-1
 632 147 l 1,16,-1
 616 132 l 1,17,-1
 406 132 l 2,18,19
 311 132 311 132 246.5 196.5 c 128,-1,20
 182 261 182 261 182 356.5 c 128,-1,21
 182 452 182 452 245.5 516.5 c 128,-1,22
 309 581 309 581 403 582 c 2,23,-1
 748 582 l 1,24,-1
 748 699 l 1,25,-1
 404 699 l 2,0,1
403 729 m 2,26,-1
 764 729 l 1,27,-1
 778 714 l 1,28,-1
 778 567 l 1,29,-1
 764 552 l 1,30,-1
 404 552 l 2,31,32
 321 551 321 551 266.5 495 c 128,-1,33
 212 439 212 439 212 356.5 c 128,-1,34
 212 274 212 274 267.5 218 c 128,-1,35
 323 162 323 162 406 162 c 2,36,-1
 602 162 l 1,37,-1
 602 268 l 1,38,-1
 404 268 l 1,39,-1
 388 283 l 1,40,-1
 388 430 l 1,41,-1
 404 445 l 1,42,-1
 764 445 l 1,43,-1
 778 430 l 1,44,-1
 778 0 l 1,45,-1
 764 -15 l 1,46,-1
 406 -15 l 1,47,48
 406 -15 406 -15 405.5 -15 c 128,-1,49
 405 -15 405 -15 404.5 -15 c 128,-1,50
 404 -15 404 -15 403 -15 c 0,51,52
 300 -14 300 -14 215.5 34.5 c 128,-1,53
 131 83 131 83 82.5 168 c 128,-1,54
 34 253 34 253 34 356 c 0,55,56
 34 460 34 460 82.5 545 c 128,-1,57
 131 630 131 630 215.5 679 c 128,-1,58
 300 728 300 728 403 729 c 2,26,-1
EndSplineSet
EndChar

StartChar: h
Encoding: 104 104 75
Width: 813
GlyphClass: 2
Flags: W
LayerCount: 2
Back
Fore
SplineSet
182 698 m 1,0,-1
 64 698 l 1,1,-1
 64 16 l 1,2,-1
 182 16 l 1,3,-1
 182 284 l 1,4,-1
 196 298 l 1,5,-1
 616 298 l 1,6,-1
 632 284 l 1,7,-1
 632 16 l 1,8,-1
 748 16 l 1,9,-1
 748 698 l 1,10,-1
 632 698 l 1,11,-1
 632 430 l 1,12,-1
 616 416 l 1,13,-1
 196 416 l 1,14,-1
 182 430 l 1,15,-1
 182 698 l 1,0,-1
34 711 m 1,16,-1
 52 728 l 1,17,-1
 194 728 l 1,18,-1
 212 711 l 1,19,-1
 212 446 l 1,20,-1
 602 446 l 1,21,-1
 602 711 l 1,22,-1
 619 728 l 1,23,-1
 761 728 l 1,24,-1
 778 711 l 1,25,-1
 778 3 l 1,26,-1
 761 -14 l 1,27,-1
 619 -14 l 1,28,-1
 602 3 l 1,29,-1
 602 268 l 1,30,-1
 212 268 l 1,31,-1
 212 3 l 1,32,-1
 194 -14 l 1,33,-1
 52 -14 l 1,34,-1
 34 3 l 1,35,-1
 34 711 l 1,16,-1
EndSplineSet
EndChar

StartChar: i
Encoding: 105 105 76
Width: 813
GlyphClass: 2
Flags: W
LayerCount: 2
Back
Fore
SplineSet
748 699 m 1,0,-1
 64 699 l 1,1,-1
 64 582 l 1,2,-1
 334 582 l 1,3,-1
 348 567 l 1,4,-1
 348 147 l 1,5,-1
 334 132 l 1,6,-1
 64 132 l 1,7,-1
 64 15 l 1,8,-1
 748 15 l 1,9,-1
 748 132 l 1,10,-1
 480 132 l 1,11,-1
 466 147 l 1,12,-1
 466 567 l 1,13,-1
 480 582 l 1,14,-1
 748 582 l 1,15,-1
 748 699 l 1,0,-1
34 712 m 1,16,-1
 52 729 l 1,17,-1
 761 729 l 1,18,-1
 778 712 l 1,19,-1
 778 570 l 1,20,-1
 761 552 l 1,21,-1
 496 552 l 1,22,-1
 496 162 l 1,23,-1
 761 162 l 1,24,-1
 778 144 l 1,25,-1
 778 2 l 1,26,-1
 761 -15 l 1,27,-1
 52 -15 l 1,28,-1
 34 2 l 1,29,-1
 34 144 l 1,30,-1
 52 162 l 1,31,-1
 318 162 l 1,32,-1
 318 552 l 1,33,-1
 52 552 l 1,34,-1
 34 570 l 1,35,-1
 34 712 l 1,16,-1
EndSplineSet
EndChar

StartChar: j
Encoding: 106 106 77
Width: 813
GlyphClass: 2
Flags: W
LayerCount: 2
Back
Fore
SplineSet
748 698 m 1,0,-1
 632 698 l 1,1,-1
 632 146 l 1,2,-1
 616 132 l 1,3,-1
 407 132 l 2,4,5
 314 132 314 132 250 192.5 c 128,-1,6
 186 253 186 253 182 344 c 1,7,-1
 65 344 l 1,8,9
 69 203 69 203 167 109.5 c 128,-1,10
 265 16 265 16 407 16 c 2,11,-1
 748 16 l 1,12,-1
 748 698 l 1,0,-1
602 711 m 1,13,-1
 619 728 l 1,14,-1
 761 728 l 1,15,-1
 778 711 l 1,16,-1
 778 0 l 1,17,-1
 764 -14 l 1,18,-1
 407 -14 l 2,19,20
 303 -14 303 -14 217.5 34.5 c 128,-1,21
 132 83 132 83 83 168 c 128,-1,22
 34 253 34 253 34 357 c 1,23,-1
 52 374 l 1,24,-1
 194 374 l 1,25,-1
 212 357 l 1,26,27
 212 273 212 273 268 217.5 c 128,-1,28
 324 162 324 162 407 162 c 2,29,-1
 602 162 l 1,30,-1
 602 711 l 1,13,-1
EndSplineSet
EndChar

StartChar: k
Encoding: 107 107 78
Width: 813
GlyphClass: 2
Flags: W
LayerCount: 2
Back
Fore
SplineSet
50 728 m 1,0,-1
 196 728 l 1,1,-1
 211 713 l 1,2,-1
 211 445 l 1,3,-1
 467 445 l 1,4,-1
 604 718 l 1,5,-1
 613 722 l 1,6,-1
 620 728 l 1,7,-1
 761 728 l 1,8,-1
 771 717 l 1,9,-1
 776 703 l 1,10,-1
 637 423 l 1,11,-1
 637 290 l 1,12,-1
 776 10 l 1,13,-1
 772 -4 l 1,14,-1
 761 -15 l 1,15,-1
 620 -15 l 1,16,-1
 613 -8 l 1,17,-1
 604 -5 l 1,18,-1
 467 268 l 1,19,-1
 211 268 l 1,20,-1
 211 0 l 1,21,-1
 196 -15 l 1,22,-1
 50 -15 l 1,23,-1
 35 0 l 1,24,-1
 35 713 l 1,25,-1
 50 728 l 1,0,-1
181 698 m 1,26,-1
 65 698 l 1,27,-1
 65 15 l 1,28,-1
 181 15 l 1,29,-1
 181 283 l 1,30,-1
 196 298 l 1,31,-1
 476 298 l 1,32,-1
 489 290 l 1,33,-1
 627 15 l 1,34,-1
 740 15 l 1,35,-1
 609 279 l 1,36,-1
 607 286 l 1,37,-1
 607 427 l 1,38,-1
 609 433 l 1,39,-1
 740 698 l 1,40,-1
 628 698 l 1,41,-1
 489 423 l 1,42,-1
 476 415 l 1,43,-1
 196 415 l 1,44,-1
 181 430 l 1,45,-1
 181 698 l 1,26,-1
620 701 m 1,46,-1
 624 702 l 1,47,-1
 628 706 l 1,48,-1
 620 701 l 1,46,-1
629 6 m 1,49,-1
 625 10 l 1,50,-1
 619 12 l 1,51,-1
 629 6 l 1,49,-1
773 -3 m 1,52,-1
 772 -4 l 1,53,-1
 773 -3 l 1,52,-1
773 -3 m 1,54,-1
 776 2 l 1,55,-1
 776 0 l 1,56,-1
 773 -3 l 1,54,-1
772 -4 m 1,57,-1
 771 -9 l 1,58,-1
 769 -10 l 1,59,-1
 772 -4 l 1,57,-1
771 718 m 1,60,-1
 771 717 l 1,61,-1
 772 717 l 1,62,-1
 771 718 l 1,60,-1
771 718 m 1,63,-1
 767 724 l 1,64,-1
 769 723 l 1,65,-1
 771 718 l 1,63,-1
772 717 m 1,66,-1
 776 713 l 1,67,-1
 776 710 l 1,68,-1
 772 717 l 1,66,-1
EndSplineSet
EndChar

StartChar: l
Encoding: 108 108 79
Width: 813
GlyphClass: 2
Flags: W
LayerCount: 2
Back
Fore
SplineSet
182 700 m 1,0,-1
 64 700 l 1,1,-1
 64 16 l 1,2,-1
 748 16 l 1,3,-1
 748 132 l 1,4,-1
 196 132 l 1,5,-1
 182 148 l 1,6,-1
 182 700 l 1,0,-1
34 712 m 1,7,-1
 52 730 l 1,8,-1
 194 730 l 1,9,-1
 212 712 l 1,10,-1
 212 162 l 1,11,-1
 761 162 l 1,12,-1
 778 145 l 1,13,-1
 778 3 l 1,14,-1
 761 -14 l 1,15,-1
 52 -14 l 1,16,-1
 34 3 l 1,17,-1
 34 712 l 1,7,-1
EndSplineSet
EndChar

StartChar: m
Encoding: 109 109 80
Width: 813
GlyphClass: 2
Flags: W
LayerCount: 2
Back
Fore
SplineSet
50 728 m 1,0,-1
 409 728 l 2,1,2
 512 727 512 727 597 678.5 c 128,-1,3
 682 630 682 630 730 545 c 128,-1,4
 778 460 778 460 778 356 c 2,5,-1
 778 2 l 1,6,-1
 760 -15 l 1,7,-1
 618 -15 l 1,8,-1
 601 2 l 1,9,-1
 601 356 l 2,10,11
 601 415 601 415 572.5 461.5 c 128,-1,12
 544 508 544 508 495 532 c 1,13,-1
 495 0 l 1,14,-1
 480 -15 l 1,15,-1
 333 -15 l 1,16,-1
 318 0 l 1,17,-1
 318 552 l 1,18,-1
 211 552 l 1,19,-1
 211 2 l 1,20,-1
 194 -15 l 1,21,-1
 52 -15 l 1,22,-1
 35 2 l 1,23,-1
 35 713 l 1,24,-1
 50 728 l 1,0,-1
748 15 m 1,25,-1
 748 356 l 2,26,27
 748 501 748 501 650.5 599 c 128,-1,28
 553 697 553 697 409 698 c 2,29,-1
 65 698 l 1,30,-1
 65 15 l 1,31,-1
 181 15 l 1,32,-1
 181 567 l 1,33,-1
 196 582 l 1,34,-1
 333 582 l 1,35,-1
 348 567 l 1,36,-1
 348 15 l 1,37,-1
 465 15 l 1,38,-1
 465 555 l 1,39,-1
 485 569 l 1,40,41
 551 545 551 545 591 487.5 c 128,-1,42
 631 430 631 430 631 356 c 2,43,-1
 631 15 l 1,44,-1
 748 15 l 1,25,-1
EndSplineSet
EndChar

StartChar: n
Encoding: 110 110 81
Width: 813
GlyphClass: 2
Flags: W
LayerCount: 2
Back
Fore
SplineSet
50 730 m 1,0,-1
 409 730 l 2,1,2
 512 729 512 729 596.5 680 c 128,-1,3
 681 631 681 631 729.5 545.5 c 128,-1,4
 778 460 778 460 778 357 c 2,5,-1
 778 3 l 1,6,-1
 760 -14 l 1,7,-1
 618 -14 l 1,8,-1
 601 3 l 1,9,-1
 601 357 l 2,10,11
 601 440 601 440 546 496 c 128,-1,12
 491 552 491 552 409 552 c 2,13,-1
 211 552 l 1,14,-1
 211 3 l 1,15,-1
 194 -14 l 1,16,-1
 52 -14 l 1,17,-1
 35 3 l 1,18,-1
 35 714 l 1,19,-1
 50 730 l 1,0,-1
748 16 m 1,20,-1
 748 357 l 2,21,22
 748 502 748 502 651 600.5 c 128,-1,23
 554 699 554 699 409 700 c 2,24,-1
 65 700 l 1,25,-1
 65 16 l 1,26,-1
 181 16 l 1,27,-1
 181 568 l 1,28,-1
 196 582 l 1,29,-1
 409 582 l 2,30,31
 503 581 503 581 567 516.5 c 128,-1,32
 631 452 631 452 631 357 c 2,33,-1
 631 16 l 1,34,-1
 748 16 l 1,20,-1
EndSplineSet
EndChar

StartChar: o
Encoding: 111 111 82
Width: 813
GlyphClass: 2
Flags: W
LayerCount: 2
Back
Fore
SplineSet
778 356 m 0,0,1
 778 253 778 253 729.5 167.5 c 128,-1,2
 681 82 681 82 596 33.5 c 128,-1,3
 511 -15 511 -15 407 -15 c 128,-1,4
 303 -15 303 -15 217.5 33.5 c 128,-1,5
 132 82 132 82 83 167.5 c 128,-1,6
 34 253 34 253 34 356.5 c 128,-1,7
 34 460 34 460 83 545.5 c 128,-1,8
 132 631 132 631 217.5 680 c 128,-1,9
 303 729 303 729 407 729 c 256,10,11
 511 729 511 729 596 680 c 128,-1,12
 681 631 681 631 729.5 545.5 c 128,-1,13
 778 460 778 460 778 356 c 0,0,1
407 699 m 256,14,15
 262 699 262 699 163 600.5 c 128,-1,16
 64 502 64 502 64 356.5 c 128,-1,17
 64 211 64 211 163 113 c 128,-1,18
 262 15 262 15 407 15 c 0,19,20
 553 15 553 15 650.5 113 c 128,-1,21
 748 211 748 211 748 356.5 c 128,-1,22
 748 502 748 502 650 600.5 c 128,-1,23
 552 699 552 699 407 699 c 256,14,15
407 552 m 256,24,25
 324 552 324 552 268 496 c 128,-1,26
 212 440 212 440 212 356 c 0,27,28
 212 274 212 274 268 218 c 128,-1,29
 324 162 324 162 407 162 c 0,30,31
 489 162 489 162 545.5 218 c 128,-1,32
 602 274 602 274 602 356 c 0,33,34
 602 440 602 440 546 496 c 128,-1,35
 490 552 490 552 407 552 c 256,24,25
632 356 m 0,36,37
 632 261 632 261 567 196.5 c 128,-1,38
 502 132 502 132 407 132 c 0,39,40
 311 132 311 132 246.5 196.5 c 128,-1,41
 182 261 182 261 182 356 c 0,42,43
 182 452 182 452 246.5 517 c 128,-1,44
 311 582 311 582 407 582 c 0,45,46
 502 582 502 582 567 517.5 c 128,-1,47
 632 453 632 453 632 356 c 0,36,37
EndSplineSet
EndChar

StartChar: p
Encoding: 112 112 83
Width: 813
GlyphClass: 2
Flags: W
LayerCount: 2
Back
Fore
SplineSet
516 728 m 2,0,1
 625 727 625 727 701.5 649.5 c 128,-1,2
 778 572 778 572 778 463 c 0,3,4
 778 353 778 353 700.5 275.5 c 128,-1,5
 623 198 623 198 513 198 c 2,6,-1
 212 198 l 1,7,-1
 212 3 l 1,8,-1
 194 -14 l 1,9,-1
 52 -14 l 1,10,-1
 34 3 l 1,11,-1
 34 711 l 1,12,-1
 52 728 l 1,13,-1
 516 728 l 2,0,1
182 16 m 1,14,-1
 182 212 l 1,15,-1
 196 228 l 1,16,-1
 513 228 l 2,17,18
 611 228 611 228 679.5 296.5 c 128,-1,19
 748 365 748 365 748 463 c 0,20,21
 748 560 748 560 680.5 628.5 c 128,-1,22
 613 697 613 697 516 698 c 2,23,-1
 64 698 l 1,24,-1
 64 16 l 1,25,-1
 182 16 l 1,14,-1
212 552 m 1,26,-1
 212 374 l 1,27,-1
 513 374 l 2,28,29
 549 374 549 374 575.5 400.5 c 128,-1,30
 602 427 602 427 602 463 c 0,31,32
 602 500 602 500 575.5 526 c 128,-1,33
 549 552 549 552 513 552 c 2,34,-1
 212 552 l 1,26,-1
513 582 m 2,35,36
 562 582 562 582 597 547 c 128,-1,37
 632 512 632 512 632 463 c 256,38,39
 632 414 632 414 597 379 c 128,-1,40
 562 344 562 344 513 344 c 2,41,-1
 196 344 l 1,42,-1
 182 360 l 1,43,-1
 182 566 l 1,44,-1
 196 582 l 1,45,-1
 513 582 l 2,35,36
EndSplineSet
EndChar

StartChar: q
Encoding: 113 113 84
Width: 813
GlyphClass: 2
Flags: W
LayerCount: 2
Back
Fore
SplineSet
406.5 698 m 128,-1,1
 261 698 261 698 163 600 c 128,-1,2
 65 502 65 502 65 356.5 c 128,-1,3
 65 211 65 211 163 113 c 128,-1,4
 261 15 261 15 406 15 c 0,5,6
 504 15 504 15 585 62 c 1,7,-1
 606 56 l 1,8,-1
 626 15 l 1,9,-1
 741 15 l 1,10,-1
 680 135 l 1,11,-1
 682 150 l 1,12,13
 748 240 748 240 748 356 c 0,14,15
 748 502 748 502 650 600 c 128,-1,0
 552 698 552 698 406.5 698 c 128,-1,1
778 356 m 0,16,17
 778 235 778 235 711 140 c 1,18,-1
 776 10 l 1,19,-1
 772 -4 l 1,20,-1
 776 2 l 1,21,-1
 776 0 l 1,22,-1
 772 -4 l 1,23,-1
 770 -10 l 1,24,-1
 767 -11 l 1,25,-1
 771 -4 l 1,26,-1
 760 -15 l 1,27,-1
 618 -15 l 1,28,-1
 612 -8 l 1,29,-1
 603 -5 l 1,30,-1
 586 29 l 1,31,32
 504 -15 504 -15 406 -15 c 0,33,34
 249 -15 249 -15 142 92 c 128,-1,35
 35 199 35 199 35 356.5 c 128,-1,36
 35 514 35 514 142 621 c 128,-1,37
 249 728 249 728 406.5 728 c 128,-1,38
 564 728 564 728 671 621 c 128,-1,39
 778 514 778 514 778 356 c 0,16,17
627 6 m 1,40,-1
 624 10 l 1,41,-1
 618 11 l 1,42,-1
 627 6 l 1,40,-1
631 356 m 0,43,44
 631 319 631 319 620 283 c 1,45,-1
 605 273 l 1,46,-1
 498 273 l 1,47,-1
 540 189 l 1,48,-1
 535 170 l 1,49,50
 478 131 478 131 406 131 c 0,51,52
 311 131 311 131 246 195.5 c 128,-1,53
 181 260 181 260 181 356 c 256,54,55
 181 452 181 452 245.5 516.5 c 128,-1,56
 310 581 310 581 406 581 c 256,57,58
 502 581 502 581 566.5 516.5 c 128,-1,59
 631 452 631 452 631 356 c 0,43,44
406 551 m 256,60,61
 323 551 323 551 267 495 c 128,-1,62
 211 439 211 439 211 356 c 256,63,64
 211 273 211 273 267 217 c 128,-1,65
 323 161 323 161 406 161 c 0,66,67
 462 161 462 161 507 187 c 1,68,-1
 462 278 l 1,69,-1
 467 292 l 1,70,-1
 478 303 l 1,71,-1
 594 303 l 1,72,73
 601 329 601 329 601 356 c 0,74,75
 601 439 601 439 545 495 c 128,-1,76
 489 551 489 551 406 551 c 256,60,61
467 292 m 1,77,-1
 467 293 l 1,78,-1
 467 292 l 1,77,-1
467 292 m 1,79,-1
 462 286 l 1,80,-1
 462 288 l 1,81,-1
 467 292 l 1,79,-1
467 293 m 1,82,-1
 469 298 l 1,83,-1
 471 299 l 1,84,-1
 467 293 l 1,82,-1
EndSplineSet
EndChar

StartChar: r
Encoding: 114 114 85
Width: 813
GlyphClass: 2
Flags: W
LayerCount: 2
Back
Fore
SplineSet
548 730 m 2,0,1
 643 730 643 730 710.5 662 c 128,-1,2
 778 594 778 594 778 499 c 0,3,4
 778 429 778 429 739.5 371.5 c 128,-1,5
 701 314 701 314 639 287 c 1,6,-1
 760 43 l 1,7,-1
 776 11 l 1,8,-1
 772 -3 l 1,9,-1
 760 -14 l 1,10,-1
 620 -14 l 1,11,-1
 613 -8 l 1,12,-1
 604 -5 l 1,13,-1
 466 268 l 1,14,-1
 211 268 l 1,15,-1
 211 3 l 1,16,-1
 194 -14 l 1,17,-1
 52 -14 l 1,18,-1
 35 3 l 1,19,-1
 35 712 l 1,20,-1
 52 730 l 1,21,-1
 548 730 l 2,0,1
740 16 m 1,22,-1
 733 30 l 1,23,-1
 604 289 l 1,24,-1
 613 309 l 1,25,26
 672 330 672 330 710 382 c 128,-1,27
 748 434 748 434 748 499 c 0,28,29
 748 582 748 582 689.5 641 c 128,-1,30
 631 700 631 700 548 700 c 2,31,-1
 65 700 l 1,32,-1
 65 16 l 1,33,-1
 181 16 l 1,34,-1
 181 284 l 1,35,-1
 196 298 l 1,36,-1
 476 298 l 1,37,-1
 489 290 l 1,38,-1
 627 16 l 1,39,-1
 740 16 l 1,22,-1
628 7 m 1,40,-1
 625 10 l 1,41,-1
 619 12 l 1,42,-1
 628 7 l 1,40,-1
772 -3 m 1,43,-1
 772 -4 l 1,44,-1
 772 -3 l 1,43,-1
772 -3 m 1,45,-1
 776 3 l 1,46,-1
 776 0 l 1,47,-1
 772 -3 l 1,45,-1
772 -4 m 1,48,-1
 770 -8 l 1,49,-1
 768 -10 l 1,50,-1
 772 -4 l 1,48,-1
211 552 m 1,51,-1
 211 446 l 1,52,-1
 548 446 l 2,53,54
 570 446 570 446 586 461.5 c 128,-1,55
 602 477 602 477 602 499 c 128,-1,56
 602 521 602 521 586 536.5 c 128,-1,57
 570 552 570 552 548 552 c 2,58,-1
 211 552 l 1,51,-1
548 582 m 2,59,60
 583 582 583 582 607.5 557.5 c 128,-1,61
 632 533 632 533 632 499 c 128,-1,62
 632 465 632 465 607.5 440.5 c 128,-1,63
 583 416 583 416 548 416 c 2,64,-1
 196 416 l 1,65,-1
 181 430 l 1,66,-1
 181 568 l 1,67,-1
 196 582 l 1,68,-1
 548 582 l 2,59,60
EndSplineSet
EndChar

StartChar: s
Encoding: 115 115 86
Width: 813
GlyphClass: 2
Flags: W
LayerCount: 2
Back
Fore
SplineSet
265 700 m 2,0,1
 182 700 182 700 123 641 c 128,-1,2
 64 582 64 582 64 499 c 256,3,4
 64 416 64 416 123 358 c 128,-1,5
 182 300 182 300 265 300 c 2,6,-1
 548 300 l 2,7,8
 582 300 582 300 607 275 c 128,-1,9
 632 250 632 250 632 216 c 128,-1,10
 632 182 632 182 607 157 c 128,-1,11
 582 132 582 132 548 132 c 2,12,-1
 64 132 l 1,13,-1
 64 16 l 1,14,-1
 548 16 l 2,15,16
 631 16 631 16 689.5 74.5 c 128,-1,17
 748 133 748 133 748 216 c 256,18,19
 748 299 748 299 689.5 357.5 c 128,-1,20
 631 416 631 416 548 416 c 2,21,-1
 265 416 l 2,22,23
 231 416 231 416 206.5 440.5 c 128,-1,24
 182 465 182 465 182 499 c 128,-1,25
 182 533 182 533 206.5 557.5 c 128,-1,26
 231 582 231 582 265 582 c 2,27,-1
 748 582 l 1,28,-1
 748 700 l 1,29,-1
 265 700 l 2,0,1
34 145 m 1,30,-1
 52 162 l 1,31,-1
 548 162 l 2,32,33
 570 162 570 162 586 178 c 128,-1,34
 602 194 602 194 602 216 c 128,-1,35
 602 238 602 238 586 254 c 128,-1,36
 570 270 570 270 548 270 c 2,37,-1
 265 270 l 2,38,39
 169 270 169 270 101.5 337 c 128,-1,40
 34 404 34 404 34 499 c 0,41,42
 34 595 34 595 101.5 662.5 c 128,-1,43
 169 730 169 730 265 730 c 2,44,-1
 761 730 l 1,45,-1
 778 712 l 1,46,-1
 778 570 l 1,47,-1
 761 552 l 1,48,-1
 265 552 l 2,49,50
 243 552 243 552 227.5 536.5 c 128,-1,51
 212 521 212 521 212 499 c 128,-1,52
 212 477 212 477 227.5 461.5 c 128,-1,53
 243 446 243 446 265 446 c 2,54,-1
 548 446 l 2,55,56
 644 446 644 446 711 378.5 c 128,-1,57
 778 311 778 311 778 216 c 0,58,59
 778 120 778 120 711 53 c 128,-1,60
 644 -14 644 -14 548 -14 c 2,61,-1
 52 -14 l 1,62,-1
 34 3 l 1,63,-1
 34 145 l 1,30,-1
EndSplineSet
EndChar

StartChar: t
Encoding: 116 116 87
Width: 813
GlyphClass: 2
Flags: W
LayerCount: 2
Back
Fore
SplineSet
748 700 m 1,0,-1
 64 700 l 1,1,-1
 64 582 l 1,2,-1
 332 582 l 1,3,-1
 348 568 l 1,4,-1
 348 16 l 1,5,-1
 464 16 l 1,6,-1
 464 568 l 1,7,-1
 480 582 l 1,8,-1
 748 582 l 1,9,-1
 748 700 l 1,0,-1
34 712 m 1,10,-1
 52 730 l 1,11,-1
 761 730 l 1,12,-1
 778 712 l 1,13,-1
 778 570 l 1,14,-1
 761 552 l 1,15,-1
 494 552 l 1,16,-1
 494 3 l 1,17,-1
 477 -14 l 1,18,-1
 335 -14 l 1,19,-1
 318 3 l 1,20,-1
 318 552 l 1,21,-1
 52 552 l 1,22,-1
 34 570 l 1,23,-1
 34 712 l 1,10,-1
EndSplineSet
EndChar

StartChar: u
Encoding: 117 117 88
Width: 813
GlyphClass: 2
Flags: W
LayerCount: 2
Back
Fore
SplineSet
50 728 m 1,0,-1
 196 728 l 1,1,-1
 212 713 l 1,2,-1
 212 356 l 2,3,4
 212 274 212 274 267.5 217.5 c 128,-1,5
 323 161 323 161 406 161 c 128,-1,6
 489 161 489 161 545 216.5 c 128,-1,7
 601 272 601 272 602 354 c 2,8,-1
 602 713 l 1,9,-1
 616 728 l 1,10,-1
 764 728 l 1,11,-1
 778 713 l 1,12,-1
 778 354 l 2,13,14
 778 251 778 251 729 166.5 c 128,-1,15
 680 82 680 82 594.5 33.5 c 128,-1,16
 509 -15 509 -15 406 -15 c 256,17,18
 303 -15 303 -15 218 33 c 128,-1,19
 133 81 133 81 84 166 c 128,-1,20
 35 251 35 251 34 354 c 2,21,-1
 34 713 l 1,22,-1
 50 728 l 1,0,-1
182 698 m 1,23,-1
 64 698 l 1,24,-1
 64 354 l 2,25,26
 65 210 65 210 163 112.5 c 128,-1,27
 261 15 261 15 406 15 c 256,28,29
 551 15 551 15 649.5 112 c 128,-1,30
 748 209 748 209 748 354 c 2,31,-1
 748 698 l 1,32,-1
 632 698 l 1,33,-1
 632 354 l 2,34,35
 630 259 630 259 565.5 195 c 128,-1,36
 501 131 501 131 406 131 c 128,-1,37
 311 131 311 131 246.5 196 c 128,-1,38
 182 261 182 261 182 356 c 2,39,-1
 182 698 l 1,23,-1
EndSplineSet
EndChar

StartChar: v
Encoding: 118 118 89
Width: 813
GlyphClass: 2
Flags: W
LayerCount: 2
Back
Fore
SplineSet
602 712 m 1,0,-1
 619 730 l 1,1,-1
 761 730 l 1,2,-1
 778 712 l 1,3,-1
 778 358 l 2,4,5
 778 254 778 254 729.5 168.5 c 128,-1,6
 681 83 681 83 596 34.5 c 128,-1,7
 511 -14 511 -14 407 -14 c 2,8,-1
 50 -14 l 1,9,-1
 34 0 l 1,10,-1
 34 712 l 1,11,-1
 52 730 l 1,12,-1
 194 730 l 1,13,-1
 212 712 l 1,14,-1
 212 162 l 1,15,-1
 407 162 l 2,16,17
 490 162 490 162 546 218.5 c 128,-1,18
 602 275 602 275 602 358 c 2,19,-1
 602 712 l 1,0,-1
64 16 m 1,20,-1
 407 16 l 2,21,22
 552 16 552 16 650 114.5 c 128,-1,23
 748 213 748 213 748 358 c 2,24,-1
 748 700 l 1,25,-1
 632 700 l 1,26,-1
 632 358 l 2,27,28
 632 262 632 262 567 197 c 128,-1,29
 502 132 502 132 407 132 c 2,30,-1
 196 132 l 1,31,-1
 182 148 l 1,32,-1
 182 700 l 1,33,-1
 64 700 l 1,34,-1
 64 16 l 1,20,-1
EndSplineSet
EndChar

StartChar: w
Encoding: 119 119 90
Width: 813
GlyphClass: 2
Flags: W
LayerCount: 2
Back
Fore
SplineSet
35 0 m 1,0,-1
 35 710 l 1,1,-1
 52 728 l 1,2,-1
 194 728 l 1,3,-1
 211 710 l 1,4,-1
 211 161 l 1,5,-1
 318 161 l 1,6,-1
 318 713 l 1,7,-1
 333 728 l 1,8,-1
 480 728 l 1,9,-1
 495 713 l 1,10,-1
 495 181 l 1,11,12
 544 205 544 205 572.5 251.5 c 128,-1,13
 601 298 601 298 601 356 c 2,14,-1
 601 710 l 1,15,-1
 618 728 l 1,16,-1
 760 728 l 1,17,-1
 778 710 l 1,18,-1
 778 356 l 2,19,20
 778 253 778 253 730 168 c 128,-1,21
 682 83 682 83 597 34.5 c 128,-1,22
 512 -14 512 -14 409 -15 c 2,23,-1
 50 -15 l 1,24,-1
 35 0 l 1,0,-1
65 698 m 1,25,-1
 65 15 l 1,26,-1
 409 15 l 2,27,28
 553 16 553 16 650.5 114 c 128,-1,29
 748 212 748 212 748 356 c 2,30,-1
 748 698 l 1,31,-1
 631 698 l 1,32,-1
 631 356 l 2,33,34
 631 283 631 283 591 225.5 c 128,-1,35
 551 168 551 168 485 144 c 1,36,-1
 465 158 l 1,37,-1
 465 698 l 1,38,-1
 348 698 l 1,39,-1
 348 146 l 1,40,-1
 333 131 l 1,41,-1
 196 131 l 1,42,-1
 181 146 l 1,43,-1
 181 698 l 1,44,-1
 65 698 l 1,25,-1
EndSplineSet
EndChar

StartChar: x
Encoding: 120 120 91
Width: 813
GlyphClass: 2
Flags: W
LayerCount: 2
Back
Fore
SplineSet
185 708 m 1,0,-1
 189 704 l 1,1,-1
 193 703 l 1,2,-1
 185 708 l 1,0,-1
185 700 m 1,3,-1
 73 700 l 1,4,-1
 204 435 l 1,5,-1
 206 429 l 1,6,-1
 206 288 l 1,7,-1
 204 281 l 1,8,-1
 73 16 l 1,9,-1
 186 16 l 1,10,-1
 324 291 l 1,11,-1
 337 300 l 1,12,-1
 476 300 l 1,13,-1
 489 291 l 1,14,-1
 626 16 l 1,15,-1
 740 16 l 1,16,-1
 607 281 l 1,17,-1
 606 288 l 1,18,-1
 606 429 l 1,19,-1
 607 435 l 1,20,-1
 740 700 l 1,21,-1
 626 700 l 1,22,-1
 489 425 l 1,23,-1
 476 417 l 1,24,-1
 337 417 l 1,25,-1
 324 425 l 1,26,-1
 185 700 l 1,3,-1
618 703 m 1,27,-1
 623 704 l 1,28,-1
 626 708 l 1,29,-1
 618 703 l 1,27,-1
627 7 m 1,30,-1
 623 11 l 1,31,-1
 618 12 l 1,32,-1
 627 7 l 1,30,-1
194 12 m 1,33,-1
 188 11 l 1,34,-1
 184 7 l 1,35,-1
 194 12 l 1,33,-1
42 719 m 1,36,-1
 42 720 l 1,37,-1
 42 719 l 1,36,-1
42 719 m 1,38,-1
 37 712 l 1,39,-1
 37 715 l 1,40,-1
 42 719 l 1,38,-1
42 719 m 1,41,-1
 52 730 l 1,42,-1
 193 730 l 1,43,-1
 200 723 l 1,44,-1
 209 720 l 1,45,-1
 346 447 l 1,46,-1
 466 447 l 1,47,-1
 603 720 l 1,48,-1
 612 723 l 1,49,-1
 618 730 l 1,50,-1
 760 730 l 1,51,-1
 771 719 l 1,52,-1
 767 726 l 1,53,-1
 769 724 l 1,54,-1
 771 719 l 1,55,-1
 775 715 l 1,56,-1
 775 712 l 1,57,-1
 771 718 l 1,58,-1
 776 704 l 1,59,-1
 636 425 l 1,60,-1
 636 291 l 1,61,-1
 776 11 l 1,62,-1
 771 -3 l 1,63,-1
 775 3 l 1,64,-1
 775 1 l 1,65,-1
 771 -3 l 1,66,-1
 769 -9 l 1,67,-1
 767 -10 l 1,68,-1
 771 -3 l 1,69,-1
 760 -14 l 1,70,-1
 618 -14 l 1,71,-1
 611 -7 l 1,72,-1
 603 -5 l 1,73,-1
 466 270 l 1,74,-1
 346 270 l 1,75,-1
 209 -5 l 1,76,-1
 200 -7 l 1,77,-1
 193 -14 l 1,78,-1
 52 -14 l 1,79,-1
 41 -3 l 1,80,-1
 37 11 l 1,81,-1
 176 291 l 1,82,-1
 176 425 l 1,83,-1
 37 704 l 1,84,-1
 42 719 l 1,41,-1
42 720 m 1,85,-1
 44 724 l 1,86,-1
 46 725 l 1,87,-1
 42 720 l 1,85,-1
41 -3 m 1,88,-1
 40 -2 l 1,89,-1
 41 -3 l 1,88,-1
41 -3 m 1,90,-1
 44 -9 l 1,91,-1
 42 -8 l 1,92,-1
 41 -3 l 1,90,-1
40 -2 m 1,93,-1
 37 1 l 1,94,-1
 37 3 l 1,95,-1
 40 -2 l 1,93,-1
EndSplineSet
EndChar

StartChar: y
Encoding: 121 121 92
Width: 813
GlyphClass: 2
Flags: W
LayerCount: 2
Back
Fore
SplineSet
185 707 m 1,0,-1
 189 704 l 1,1,-1
 193 702 l 1,2,-1
 185 707 l 1,0,-1
185 700 m 1,3,-1
 73 700 l 1,4,-1
 201 440 l 1,5,-1
 315 440 l 1,6,-1
 185 700 l 1,3,-1
618 702 m 1,7,-1
 623 704 l 1,8,-1
 626 707 l 1,9,-1
 618 702 l 1,7,-1
626 700 m 1,10,-1
 497 440 l 1,11,-1
 611 440 l 1,12,-1
 740 700 l 1,13,-1
 626 700 l 1,10,-1
619 437 m 1,14,-1
 613 435 l 1,15,-1
 609 432 l 1,16,-1
 619 437 l 1,14,-1
465 416 m 1,17,-1
 348 416 l 1,18,-1
 348 16 l 1,19,-1
 465 16 l 1,20,-1
 465 416 l 1,17,-1
202 432 m 1,21,-1
 198 435 l 1,22,-1
 193 437 l 1,23,-1
 202 432 l 1,21,-1
42 719 m 1024,24,-1
42 719 m 1,25,-1
 37 712 l 1,26,-1
 37 714 l 1,27,-1
 42 719 l 1,25,-1
42 719 m 1,28,-1
 52 730 l 1,29,-1
 193 730 l 1,30,-1
 200 723 l 1,31,-1
 209 720 l 1,32,-1
 346 446 l 1,33,-1
 466 446 l 1,34,-1
 603 720 l 1,35,-1
 612 723 l 1,36,-1
 618 730 l 1,37,-1
 760 730 l 1,38,-1
 771 719 l 1,39,-1
 767 725 l 1,40,-1
 769 724 l 1,41,-1
 771 718 l 1,42,-1
 775 714 l 1,43,-1
 775 712 l 1,44,-1
 771 718 l 1,45,-1
 776 704 l 1,46,-1
 634 420 l 1,47,-1
 625 417 l 1,48,-1
 618 410 l 1,49,-1
 495 410 l 1,50,-1
 495 0 l 1,51,-1
 480 -14 l 1,52,-1
 333 -14 l 1,53,-1
 318 0 l 1,54,-1
 318 410 l 1,55,-1
 193 410 l 1,56,-1
 186 417 l 1,57,-1
 178 420 l 1,58,-1
 37 704 l 1,59,-1
 42 719 l 1,28,-1
42 719 m 1,60,-1
 44 724 l 1,61,-1
 46 725 l 1,62,-1
 42 719 l 1,60,-1
EndSplineSet
EndChar

StartChar: z
Encoding: 122 122 93
Width: 813
GlyphClass: 2
Flags: W
LayerCount: 2
Back
Fore
SplineSet
548 730 m 2,0,1
 643 730 643 730 710.5 663 c 128,-1,2
 778 596 778 596 778 500 c 0,3,4
 778 405 778 405 710.5 337.5 c 128,-1,5
 643 270 643 270 548 270 c 2,6,-1
 264 270 l 2,7,8
 242 270 242 270 227 254.5 c 128,-1,9
 212 239 212 239 212 217 c 128,-1,10
 212 195 212 195 227 179.5 c 128,-1,11
 242 164 242 164 264 164 c 2,12,-1
 761 164 l 1,13,-1
 778 146 l 1,14,-1
 778 4 l 1,15,-1
 761 -14 l 1,16,-1
 264 -14 l 2,17,18
 169 -14 169 -14 101.5 53.5 c 128,-1,19
 34 121 34 121 34 217 c 0,20,21
 34 312 34 312 101.5 379 c 128,-1,22
 169 446 169 446 264 446 c 2,23,-1
 548 446 l 2,24,25
 570 446 570 446 586 462 c 128,-1,26
 602 478 602 478 602 500 c 128,-1,27
 602 522 602 522 586 538 c 128,-1,28
 570 554 570 554 548 554 c 2,29,-1
 52 554 l 1,30,-1
 34 571 l 1,31,-1
 34 713 l 1,32,-1
 52 730 l 1,33,-1
 548 730 l 2,0,1
748 134 m 1,34,-1
 264 134 l 2,35,36
 230 134 230 134 206 158.5 c 128,-1,37
 182 183 182 183 182 217 c 128,-1,38
 182 251 182 251 206 275.5 c 128,-1,39
 230 300 230 300 264 300 c 2,40,-1
 548 300 l 2,41,42
 631 300 631 300 689.5 359 c 128,-1,43
 748 418 748 418 748 500 c 0,44,45
 748 583 748 583 689.5 641.5 c 128,-1,46
 631 700 631 700 548 700 c 2,47,-1
 64 700 l 1,48,-1
 64 584 l 1,49,-1
 548 584 l 2,50,51
 582 584 582 584 607 559 c 128,-1,52
 632 534 632 534 632 500 c 128,-1,53
 632 466 632 466 607 441 c 128,-1,54
 582 416 582 416 548 416 c 2,55,-1
 264 416 l 2,56,57
 181 416 181 416 122.5 358 c 128,-1,58
 64 300 64 300 64 217 c 256,59,60
 64 134 64 134 122.5 75 c 128,-1,61
 181 16 181 16 264 16 c 2,62,-1
 748 16 l 1,63,-1
 748 134 l 1,34,-1
EndSplineSet
EndChar

StartChar: braceleft
Encoding: 123 123 94
Width: 813
GlyphClass: 2
Flags: W
LayerCount: 2
Back
Fore
SplineSet
50 729 m 1,0,-1
 196 729 l 1,1,-1
 212 714 l 1,2,-1
 212 567 l 1,3,-1
 196 552 l 1,4,-1
 50 552 l 1,5,-1
 34 567 l 1,6,-1
 34 714 l 1,7,-1
 50 729 l 1,0,-1
182 699 m 1,8,-1
 64 699 l 1,9,-1
 64 582 l 1,10,-1
 182 582 l 1,11,-1
 182 699 l 1,8,-1
332 729 m 1,12,-1
 480 729 l 1,13,-1
 494 714 l 1,14,-1
 494 446 l 1,15,-1
 764 446 l 1,16,-1
 778 431 l 1,17,-1
 778 284 l 1,18,-1
 764 269 l 1,19,-1
 494 269 l 1,20,-1
 494 0 l 1,21,-1
 480 -15 l 1,22,-1
 332 -15 l 1,23,-1
 318 0 l 1,24,-1
 318 269 l 1,25,-1
 50 269 l 1,26,-1
 34 284 l 1,27,-1
 34 431 l 1,28,-1
 50 446 l 1,29,-1
 318 446 l 1,30,-1
 318 714 l 1,31,-1
 332 729 l 1,12,-1
464 699 m 1,32,-1
 348 699 l 1,33,-1
 348 431 l 1,34,-1
 332 416 l 1,35,-1
 64 416 l 1,36,-1
 64 299 l 1,37,-1
 332 299 l 1,38,-1
 348 284 l 1,39,-1
 348 15 l 1,40,-1
 464 15 l 1,41,-1
 464 284 l 1,42,-1
 480 299 l 1,43,-1
 748 299 l 1,44,-1
 748 416 l 1,45,-1
 480 416 l 1,46,-1
 464 431 l 1,47,-1
 464 699 l 1,32,-1
616 729 m 1,48,-1
 764 729 l 1,49,-1
 778 714 l 1,50,-1
 778 567 l 1,51,-1
 764 552 l 1,52,-1
 616 552 l 1,53,-1
 602 567 l 1,54,-1
 602 714 l 1,55,-1
 616 729 l 1,48,-1
748 699 m 1,56,-1
 632 699 l 1,57,-1
 632 582 l 1,58,-1
 748 582 l 1,59,-1
 748 699 l 1,56,-1
50 162 m 1,60,-1
 196 162 l 1,61,-1
 212 147 l 1,62,-1
 212 0 l 1,63,-1
 196 -15 l 1,64,-1
 50 -15 l 1,65,-1
 34 0 l 1,66,-1
 34 147 l 1,67,-1
 50 162 l 1,60,-1
182 132 m 1,68,-1
 64 132 l 1,69,-1
 64 15 l 1,70,-1
 182 15 l 1,71,-1
 182 132 l 1,68,-1
616 162 m 1,72,-1
 764 162 l 1,73,-1
 778 147 l 1,74,-1
 778 0 l 1,75,-1
 764 -15 l 1,76,-1
 616 -15 l 1,77,-1
 602 0 l 1,78,-1
 602 147 l 1,79,-1
 616 162 l 1,72,-1
748 132 m 1,80,-1
 632 132 l 1,81,-1
 632 15 l 1,82,-1
 748 15 l 1,83,-1
 748 132 l 1,80,-1
EndSplineSet
EndChar

StartChar: bar
Encoding: 124 124 95
Width: 813
GlyphClass: 2
Flags: W
LayerCount: 2
Back
Fore
SplineSet
50 729 m 1,0,-1
 196 729 l 1,1,-1
 212 714 l 1,2,-1
 212 567 l 1,3,-1
 196 552 l 1,4,-1
 50 552 l 1,5,-1
 34 567 l 1,6,-1
 34 714 l 1,7,-1
 50 729 l 1,0,-1
182 699 m 1,8,-1
 64 699 l 1,9,-1
 64 582 l 1,10,-1
 182 582 l 1,11,-1
 182 699 l 1,8,-1
332 729 m 1,12,-1
 480 729 l 1,13,-1
 494 714 l 1,14,-1
 494 446 l 1,15,-1
 764 446 l 1,16,-1
 778 431 l 1,17,-1
 778 284 l 1,18,-1
 764 269 l 1,19,-1
 494 269 l 1,20,-1
 494 0 l 1,21,-1
 480 -15 l 1,22,-1
 332 -15 l 1,23,-1
 318 0 l 1,24,-1
 318 269 l 1,25,-1
 50 269 l 1,26,-1
 34 284 l 1,27,-1
 34 431 l 1,28,-1
 50 446 l 1,29,-1
 318 446 l 1,30,-1
 318 714 l 1,31,-1
 332 729 l 1,12,-1
464 699 m 1,32,-1
 348 699 l 1,33,-1
 348 431 l 1,34,-1
 332 416 l 1,35,-1
 64 416 l 1,36,-1
 64 299 l 1,37,-1
 332 299 l 1,38,-1
 348 284 l 1,39,-1
 348 15 l 1,40,-1
 464 15 l 1,41,-1
 464 284 l 1,42,-1
 480 299 l 1,43,-1
 748 299 l 1,44,-1
 748 416 l 1,45,-1
 480 416 l 1,46,-1
 464 431 l 1,47,-1
 464 699 l 1,32,-1
616 729 m 1,48,-1
 764 729 l 1,49,-1
 778 714 l 1,50,-1
 778 567 l 1,51,-1
 764 552 l 1,52,-1
 616 552 l 1,53,-1
 602 567 l 1,54,-1
 602 714 l 1,55,-1
 616 729 l 1,48,-1
748 699 m 1,56,-1
 632 699 l 1,57,-1
 632 582 l 1,58,-1
 748 582 l 1,59,-1
 748 699 l 1,56,-1
50 162 m 1,60,-1
 196 162 l 1,61,-1
 212 147 l 1,62,-1
 212 0 l 1,63,-1
 196 -15 l 1,64,-1
 50 -15 l 1,65,-1
 34 0 l 1,66,-1
 34 147 l 1,67,-1
 50 162 l 1,60,-1
182 132 m 1,68,-1
 64 132 l 1,69,-1
 64 15 l 1,70,-1
 182 15 l 1,71,-1
 182 132 l 1,68,-1
616 162 m 1,72,-1
 764 162 l 1,73,-1
 778 147 l 1,74,-1
 778 0 l 1,75,-1
 764 -15 l 1,76,-1
 616 -15 l 1,77,-1
 602 0 l 1,78,-1
 602 147 l 1,79,-1
 616 162 l 1,72,-1
748 132 m 1,80,-1
 632 132 l 1,81,-1
 632 15 l 1,82,-1
 748 15 l 1,83,-1
 748 132 l 1,80,-1
EndSplineSet
EndChar

StartChar: braceright
Encoding: 125 125 96
Width: 813
GlyphClass: 2
Flags: W
LayerCount: 2
Back
Fore
SplineSet
50 729 m 1,0,-1
 196 729 l 1,1,-1
 212 714 l 1,2,-1
 212 567 l 1,3,-1
 196 552 l 1,4,-1
 50 552 l 1,5,-1
 34 567 l 1,6,-1
 34 714 l 1,7,-1
 50 729 l 1,0,-1
182 699 m 1,8,-1
 64 699 l 1,9,-1
 64 582 l 1,10,-1
 182 582 l 1,11,-1
 182 699 l 1,8,-1
332 729 m 1,12,-1
 480 729 l 1,13,-1
 494 714 l 1,14,-1
 494 446 l 1,15,-1
 764 446 l 1,16,-1
 778 431 l 1,17,-1
 778 284 l 1,18,-1
 764 269 l 1,19,-1
 494 269 l 1,20,-1
 494 0 l 1,21,-1
 480 -15 l 1,22,-1
 332 -15 l 1,23,-1
 318 0 l 1,24,-1
 318 269 l 1,25,-1
 50 269 l 1,26,-1
 34 284 l 1,27,-1
 34 431 l 1,28,-1
 50 446 l 1,29,-1
 318 446 l 1,30,-1
 318 714 l 1,31,-1
 332 729 l 1,12,-1
464 699 m 1,32,-1
 348 699 l 1,33,-1
 348 431 l 1,34,-1
 332 416 l 1,35,-1
 64 416 l 1,36,-1
 64 299 l 1,37,-1
 332 299 l 1,38,-1
 348 284 l 1,39,-1
 348 15 l 1,40,-1
 464 15 l 1,41,-1
 464 284 l 1,42,-1
 480 299 l 1,43,-1
 748 299 l 1,44,-1
 748 416 l 1,45,-1
 480 416 l 1,46,-1
 464 431 l 1,47,-1
 464 699 l 1,32,-1
616 729 m 1,48,-1
 764 729 l 1,49,-1
 778 714 l 1,50,-1
 778 567 l 1,51,-1
 764 552 l 1,52,-1
 616 552 l 1,53,-1
 602 567 l 1,54,-1
 602 714 l 1,55,-1
 616 729 l 1,48,-1
748 699 m 1,56,-1
 632 699 l 1,57,-1
 632 582 l 1,58,-1
 748 582 l 1,59,-1
 748 699 l 1,56,-1
50 162 m 1,60,-1
 196 162 l 1,61,-1
 212 147 l 1,62,-1
 212 0 l 1,63,-1
 196 -15 l 1,64,-1
 50 -15 l 1,65,-1
 34 0 l 1,66,-1
 34 147 l 1,67,-1
 50 162 l 1,60,-1
182 132 m 1,68,-1
 64 132 l 1,69,-1
 64 15 l 1,70,-1
 182 15 l 1,71,-1
 182 132 l 1,68,-1
616 162 m 1,72,-1
 764 162 l 1,73,-1
 778 147 l 1,74,-1
 778 0 l 1,75,-1
 764 -15 l 1,76,-1
 616 -15 l 1,77,-1
 602 0 l 1,78,-1
 602 147 l 1,79,-1
 616 162 l 1,72,-1
748 132 m 1,80,-1
 632 132 l 1,81,-1
 632 15 l 1,82,-1
 748 15 l 1,83,-1
 748 132 l 1,80,-1
EndSplineSet
EndChar

StartChar: asciitilde
Encoding: 126 126 97
Width: 813
GlyphClass: 2
Flags: W
LayerCount: 2
Back
Fore
SplineSet
50 729 m 1,0,-1
 196 729 l 1,1,-1
 212 714 l 1,2,-1
 212 567 l 1,3,-1
 196 552 l 1,4,-1
 50 552 l 1,5,-1
 34 567 l 1,6,-1
 34 714 l 1,7,-1
 50 729 l 1,0,-1
182 699 m 1,8,-1
 64 699 l 1,9,-1
 64 582 l 1,10,-1
 182 582 l 1,11,-1
 182 699 l 1,8,-1
332 729 m 1,12,-1
 480 729 l 1,13,-1
 494 714 l 1,14,-1
 494 446 l 1,15,-1
 764 446 l 1,16,-1
 778 431 l 1,17,-1
 778 284 l 1,18,-1
 764 269 l 1,19,-1
 494 269 l 1,20,-1
 494 0 l 1,21,-1
 480 -15 l 1,22,-1
 332 -15 l 1,23,-1
 318 0 l 1,24,-1
 318 269 l 1,25,-1
 50 269 l 1,26,-1
 34 284 l 1,27,-1
 34 431 l 1,28,-1
 50 446 l 1,29,-1
 318 446 l 1,30,-1
 318 714 l 1,31,-1
 332 729 l 1,12,-1
464 699 m 1,32,-1
 348 699 l 1,33,-1
 348 431 l 1,34,-1
 332 416 l 1,35,-1
 64 416 l 1,36,-1
 64 299 l 1,37,-1
 332 299 l 1,38,-1
 348 284 l 1,39,-1
 348 15 l 1,40,-1
 464 15 l 1,41,-1
 464 284 l 1,42,-1
 480 299 l 1,43,-1
 748 299 l 1,44,-1
 748 416 l 1,45,-1
 480 416 l 1,46,-1
 464 431 l 1,47,-1
 464 699 l 1,32,-1
616 729 m 1,48,-1
 764 729 l 1,49,-1
 778 714 l 1,50,-1
 778 567 l 1,51,-1
 764 552 l 1,52,-1
 616 552 l 1,53,-1
 602 567 l 1,54,-1
 602 714 l 1,55,-1
 616 729 l 1,48,-1
748 699 m 1,56,-1
 632 699 l 1,57,-1
 632 582 l 1,58,-1
 748 582 l 1,59,-1
 748 699 l 1,56,-1
50 162 m 1,60,-1
 196 162 l 1,61,-1
 212 147 l 1,62,-1
 212 0 l 1,63,-1
 196 -15 l 1,64,-1
 50 -15 l 1,65,-1
 34 0 l 1,66,-1
 34 147 l 1,67,-1
 50 162 l 1,60,-1
182 132 m 1,68,-1
 64 132 l 1,69,-1
 64 15 l 1,70,-1
 182 15 l 1,71,-1
 182 132 l 1,68,-1
616 162 m 1,72,-1
 764 162 l 1,73,-1
 778 147 l 1,74,-1
 778 0 l 1,75,-1
 764 -15 l 1,76,-1
 616 -15 l 1,77,-1
 602 0 l 1,78,-1
 602 147 l 1,79,-1
 616 162 l 1,72,-1
748 132 m 1,80,-1
 632 132 l 1,81,-1
 632 15 l 1,82,-1
 748 15 l 1,83,-1
 748 132 l 1,80,-1
EndSplineSet
EndChar

StartChar: exclamdown
Encoding: 161 161 132
Width: 813
GlyphClass: 2
Flags: W
LayerCount: 2
Back
Fore
SplineSet
35 0 m 1,0,-1
 35 146 l 1,1,-1
 50 161 l 1,2,-1
 601 161 l 1,3,-1
 601 501 l 1,4,-1
 616 516 l 1,5,-1
 763 516 l 1,6,-1
 778 501 l 1,7,-1
 778 0 l 1,8,-1
 763 -15 l 1,9,-1
 50 -15 l 1,10,-1
 35 0 l 1,0,-1
65 131 m 1,11,-1
 65 15 l 1,12,-1
 748 15 l 1,13,-1
 748 486 l 1,14,-1
 631 486 l 1,15,-1
 631 146 l 1,16,-1
 616 131 l 1,17,-1
 65 131 l 1,11,-1
601 566 m 1,18,-1
 601 713 l 1,19,-1
 616 728 l 1,20,-1
 763 728 l 1,21,-1
 778 713 l 1,22,-1
 778 566 l 1,23,-1
 763 551 l 1,24,-1
 616 551 l 1,25,-1
 601 566 l 1,18,-1
631 698 m 1,26,-1
 631 581 l 1,27,-1
 748 581 l 1,28,-1
 748 698 l 1,29,-1
 631 698 l 1,26,-1
EndSplineSet
EndChar

StartChar: cent
Encoding: 162 162 133
Width: 813
GlyphClass: 2
Flags: W
LayerCount: 2
Back
Fore
SplineSet
406 700 m 0,0,1
 261 700 261 700 163 602 c 128,-1,2
 65 504 65 504 65 359 c 1,3,4
 64 359 64 359 64 358.5 c 128,-1,5
 64 358 64 358 64.5 357.5 c 128,-1,6
 65 357 65 357 65 357 c 1,7,-1
 65 16 l 1,8,-1
 182 16 l 1,9,-1
 182 360 l 2,10,11
 183 455 183 455 247.5 518.5 c 128,-1,12
 312 582 312 582 406 582 c 0,13,14
 502 582 502 582 567 517.5 c 128,-1,15
 632 453 632 453 632 357 c 0,16,17
 632 265 632 265 571 201 c 128,-1,18
 510 137 510 137 419 133 c 1,19,-1
 419 16 l 1,20,21
 559 20 559 20 654 117.5 c 128,-1,22
 749 215 749 215 749 357 c 0,23,24
 749 502 749 502 650.5 601 c 128,-1,25
 552 700 552 700 406 700 c 0,0,1
779 357 m 256,26,27
 779 253 779 253 730 168 c 128,-1,28
 681 83 681 83 595.5 34.5 c 128,-1,29
 510 -14 510 -14 406 -14 c 1,30,-1
 389 3 l 1,31,-1
 389 145 l 1,32,-1
 406 162 l 1,33,34
 489 162 489 162 545.5 218 c 128,-1,35
 602 274 602 274 602 357 c 0,36,37
 602 441 602 441 545.5 496.5 c 128,-1,38
 489 552 489 552 406 552 c 0,39,40
 324 552 324 552 268 497 c 128,-1,41
 212 442 212 442 212 359 c 2,42,-1
 212 0 l 1,43,-1
 197 -14 l 1,44,-1
 50 -14 l 1,45,-1
 35 0 l 1,46,-1
 35 357 l 1,47,48
 35 357 35 357 34.5 357.5 c 128,-1,49
 34 358 34 358 34 358.5 c 128,-1,50
 34 359 34 359 35 359 c 2,51,-1
 35 360 l 2,52,53
 35 463 35 463 84 548 c 128,-1,54
 133 633 133 633 218 681.5 c 128,-1,55
 303 730 303 730 406 730 c 0,56,57
 510 730 510 730 595.5 681 c 128,-1,58
 681 632 681 632 730 546.5 c 128,-1,59
 779 461 779 461 779 357 c 256,26,27
EndSplineSet
EndChar

StartChar: sterling
Encoding: 163 163 134
Width: 813
GlyphClass: 2
Flags: W
LayerCount: 2
Back
Fore
SplineSet
407 699 m 256,0,1
 262 699 262 699 164 601 c 128,-1,2
 66 503 66 503 65 359 c 0,3,4
 65 358 65 358 65 358 c 129,-1,5
 65 358 65 358 65 357.5 c 128,-1,6
 65 357 65 357 65 356 c 2,7,-1
 65 15 l 1,8,-1
 407 15 l 2,9,10
 552 15 552 15 650 113 c 128,-1,11
 748 211 748 211 748 356.5 c 128,-1,12
 748 502 748 502 650 600.5 c 128,-1,13
 552 699 552 699 407 699 c 256,0,1
778 356 m 0,14,15
 778 253 778 253 729.5 167.5 c 128,-1,16
 681 82 681 82 595.5 33.5 c 128,-1,17
 510 -15 510 -15 407 -15 c 2,18,-1
 50 -15 l 1,19,-1
 35 0 l 1,20,-1
 35 356 l 2,21,22
 35 357 35 357 35 357.5 c 128,-1,23
 35 358 35 358 35 358 c 129,-1,24
 35 358 35 358 35 359 c 0,25,26
 36 462 36 462 84.5 547 c 128,-1,27
 133 632 133 632 218 680.5 c 128,-1,28
 303 729 303 729 407 729 c 0,29,30
 510 729 510 729 595.5 680 c 128,-1,31
 681 631 681 631 729.5 545.5 c 128,-1,32
 778 460 778 460 778 356 c 0,14,15
406 552 m 128,-1,34
 323 552 323 552 267.5 496.5 c 128,-1,35
 212 441 212 441 211 359 c 2,36,-1
 211 162 l 1,37,-1
 407 162 l 2,38,39
 489 162 489 162 545 218 c 128,-1,40
 601 274 601 274 601 356 c 0,41,42
 601 440 601 440 545 496 c 128,-1,33
 489 552 489 552 406 552 c 128,-1,34
631 356 m 0,43,44
 631 261 631 261 566.5 196.5 c 128,-1,45
 502 132 502 132 407 132 c 2,46,-1
 196 132 l 1,47,-1
 181 147 l 1,48,-1
 181 359 l 2,49,50
 182 454 182 454 246.5 518 c 128,-1,51
 311 582 311 582 406.5 582 c 128,-1,52
 502 582 502 582 566.5 517.5 c 128,-1,53
 631 453 631 453 631 356 c 0,43,44
EndSplineSet
EndChar

StartChar: currency
Encoding: 164 164 135
Width: 813
GlyphClass: 2
Flags: W
LayerCount: 2
Back
Fore
SplineSet
50 730 m 1,0,-1
 196 730 l 1,1,-1
 212 714 l 1,2,-1
 212 568 l 1,3,-1
 196 552 l 1,4,-1
 50 552 l 1,5,-1
 34 568 l 1,6,-1
 34 714 l 1,7,-1
 50 730 l 1,0,-1
182 700 m 1,8,-1
 64 700 l 1,9,-1
 64 582 l 1,10,-1
 182 582 l 1,11,-1
 182 700 l 1,8,-1
334 730 m 1,12,-1
 480 730 l 1,13,-1
 496 714 l 1,14,-1
 496 568 l 1,15,-1
 480 552 l 1,16,-1
 334 552 l 1,17,-1
 318 568 l 1,18,-1
 318 714 l 1,19,-1
 334 730 l 1,12,-1
466 700 m 1,20,-1
 348 700 l 1,21,-1
 348 582 l 1,22,-1
 466 582 l 1,23,-1
 466 700 l 1,20,-1
616 730 m 1,24,-1
 764 730 l 1,25,-1
 778 714 l 1,26,-1
 778 568 l 1,27,-1
 764 552 l 1,28,-1
 616 552 l 1,29,-1
 602 568 l 1,30,-1
 602 714 l 1,31,-1
 616 730 l 1,24,-1
748 700 m 1,32,-1
 632 700 l 1,33,-1
 632 582 l 1,34,-1
 748 582 l 1,35,-1
 748 700 l 1,32,-1
50 446 m 1,36,-1
 196 446 l 1,37,-1
 212 432 l 1,38,-1
 212 284 l 1,39,-1
 196 270 l 1,40,-1
 50 270 l 1,41,-1
 34 284 l 1,42,-1
 34 432 l 1,43,-1
 50 446 l 1,36,-1
182 416 m 1,44,-1
 64 416 l 1,45,-1
 64 300 l 1,46,-1
 182 300 l 1,47,-1
 182 416 l 1,44,-1
334 446 m 1,48,-1
 480 446 l 1,49,-1
 496 432 l 1,50,-1
 496 284 l 1,51,-1
 480 270 l 1,52,-1
 334 270 l 1,53,-1
 318 284 l 1,54,-1
 318 432 l 1,55,-1
 334 446 l 1,48,-1
466 416 m 1,56,-1
 348 416 l 1,57,-1
 348 300 l 1,58,-1
 466 300 l 1,59,-1
 466 416 l 1,56,-1
616 446 m 1,60,-1
 764 446 l 1,61,-1
 778 432 l 1,62,-1
 778 284 l 1,63,-1
 764 270 l 1,64,-1
 616 270 l 1,65,-1
 602 284 l 1,66,-1
 602 432 l 1,67,-1
 616 446 l 1,60,-1
748 416 m 1,68,-1
 632 416 l 1,69,-1
 632 300 l 1,70,-1
 748 300 l 1,71,-1
 748 416 l 1,68,-1
50 162 m 1,72,-1
 196 162 l 1,73,-1
 212 148 l 1,74,-1
 212 0 l 1,75,-1
 196 -14 l 1,76,-1
 50 -14 l 1,77,-1
 34 0 l 1,78,-1
 34 148 l 1,79,-1
 50 162 l 1,72,-1
182 132 m 1,80,-1
 64 132 l 1,81,-1
 64 16 l 1,82,-1
 182 16 l 1,83,-1
 182 132 l 1,80,-1
334 162 m 1,84,-1
 480 162 l 1,85,-1
 496 148 l 1,86,-1
 496 0 l 1,87,-1
 480 -14 l 1,88,-1
 334 -14 l 1,89,-1
 318 0 l 1,90,-1
 318 148 l 1,91,-1
 334 162 l 1,84,-1
466 132 m 1,92,-1
 348 132 l 1,93,-1
 348 16 l 1,94,-1
 466 16 l 1,95,-1
 466 132 l 1,92,-1
616 162 m 1,96,-1
 764 162 l 1,97,-1
 778 148 l 1,98,-1
 778 0 l 1,99,-1
 764 -14 l 1,100,-1
 616 -14 l 1,101,-1
 602 0 l 1,102,-1
 602 148 l 1,103,-1
 616 162 l 1,96,-1
748 132 m 1,104,-1
 632 132 l 1,105,-1
 632 16 l 1,106,-1
 748 16 l 1,107,-1
 748 132 l 1,104,-1
37 287 m 128,-1,109
 37 302 37 302 52 302 c 128,-1,110
 67 302 67 302 67 287 c 128,-1,111
 67 272 67 272 52 272 c 128,-1,108
 37 272 37 272 37 287 c 128,-1,109
EndSplineSet
EndChar

StartChar: yen
Encoding: 165 165 136
Width: 813
GlyphClass: 2
Flags: W
LayerCount: 2
Back
Fore
SplineSet
50 729 m 1,0,-1
 196 729 l 1,1,-1
 212 714 l 1,2,-1
 212 567 l 1,3,-1
 196 552 l 1,4,-1
 50 552 l 1,5,-1
 34 567 l 1,6,-1
 34 714 l 1,7,-1
 50 729 l 1,0,-1
182 699 m 1,8,-1
 64 699 l 1,9,-1
 64 582 l 1,10,-1
 182 582 l 1,11,-1
 182 699 l 1,8,-1
332 729 m 1,12,-1
 480 729 l 1,13,-1
 494 714 l 1,14,-1
 494 446 l 1,15,-1
 764 446 l 1,16,-1
 778 431 l 1,17,-1
 778 284 l 1,18,-1
 764 269 l 1,19,-1
 494 269 l 1,20,-1
 494 0 l 1,21,-1
 480 -15 l 1,22,-1
 332 -15 l 1,23,-1
 318 0 l 1,24,-1
 318 269 l 1,25,-1
 50 269 l 1,26,-1
 34 284 l 1,27,-1
 34 431 l 1,28,-1
 50 446 l 1,29,-1
 318 446 l 1,30,-1
 318 714 l 1,31,-1
 332 729 l 1,12,-1
464 699 m 1,32,-1
 348 699 l 1,33,-1
 348 431 l 1,34,-1
 332 416 l 1,35,-1
 64 416 l 1,36,-1
 64 299 l 1,37,-1
 332 299 l 1,38,-1
 348 284 l 1,39,-1
 348 15 l 1,40,-1
 464 15 l 1,41,-1
 464 284 l 1,42,-1
 480 299 l 1,43,-1
 748 299 l 1,44,-1
 748 416 l 1,45,-1
 480 416 l 1,46,-1
 464 431 l 1,47,-1
 464 699 l 1,32,-1
616 729 m 1,48,-1
 764 729 l 1,49,-1
 778 714 l 1,50,-1
 778 567 l 1,51,-1
 764 552 l 1,52,-1
 616 552 l 1,53,-1
 602 567 l 1,54,-1
 602 714 l 1,55,-1
 616 729 l 1,48,-1
748 699 m 1,56,-1
 632 699 l 1,57,-1
 632 582 l 1,58,-1
 748 582 l 1,59,-1
 748 699 l 1,56,-1
50 162 m 1,60,-1
 196 162 l 1,61,-1
 212 147 l 1,62,-1
 212 0 l 1,63,-1
 196 -15 l 1,64,-1
 50 -15 l 1,65,-1
 34 0 l 1,66,-1
 34 147 l 1,67,-1
 50 162 l 1,60,-1
182 132 m 1,68,-1
 64 132 l 1,69,-1
 64 15 l 1,70,-1
 182 15 l 1,71,-1
 182 132 l 1,68,-1
616 162 m 1,72,-1
 764 162 l 1,73,-1
 778 147 l 1,74,-1
 778 0 l 1,75,-1
 764 -15 l 1,76,-1
 616 -15 l 1,77,-1
 602 0 l 1,78,-1
 602 147 l 1,79,-1
 616 162 l 1,72,-1
748 132 m 1,80,-1
 632 132 l 1,81,-1
 632 15 l 1,82,-1
 748 15 l 1,83,-1
 748 132 l 1,80,-1
EndSplineSet
EndChar

StartChar: brokenbar
Encoding: 166 166 137
Width: 813
GlyphClass: 2
Flags: W
LayerCount: 2
Back
Fore
SplineSet
50 729 m 1,0,-1
 196 729 l 1,1,-1
 212 714 l 1,2,-1
 212 567 l 1,3,-1
 196 552 l 1,4,-1
 50 552 l 1,5,-1
 34 567 l 1,6,-1
 34 714 l 1,7,-1
 50 729 l 1,0,-1
182 699 m 1,8,-1
 64 699 l 1,9,-1
 64 582 l 1,10,-1
 182 582 l 1,11,-1
 182 699 l 1,8,-1
332 729 m 1,12,-1
 480 729 l 1,13,-1
 494 714 l 1,14,-1
 494 446 l 1,15,-1
 764 446 l 1,16,-1
 778 431 l 1,17,-1
 778 284 l 1,18,-1
 764 269 l 1,19,-1
 494 269 l 1,20,-1
 494 0 l 1,21,-1
 480 -15 l 1,22,-1
 332 -15 l 1,23,-1
 318 0 l 1,24,-1
 318 269 l 1,25,-1
 50 269 l 1,26,-1
 34 284 l 1,27,-1
 34 431 l 1,28,-1
 50 446 l 1,29,-1
 318 446 l 1,30,-1
 318 714 l 1,31,-1
 332 729 l 1,12,-1
464 699 m 1,32,-1
 348 699 l 1,33,-1
 348 431 l 1,34,-1
 332 416 l 1,35,-1
 64 416 l 1,36,-1
 64 299 l 1,37,-1
 332 299 l 1,38,-1
 348 284 l 1,39,-1
 348 15 l 1,40,-1
 464 15 l 1,41,-1
 464 284 l 1,42,-1
 480 299 l 1,43,-1
 748 299 l 1,44,-1
 748 416 l 1,45,-1
 480 416 l 1,46,-1
 464 431 l 1,47,-1
 464 699 l 1,32,-1
616 729 m 1,48,-1
 764 729 l 1,49,-1
 778 714 l 1,50,-1
 778 567 l 1,51,-1
 764 552 l 1,52,-1
 616 552 l 1,53,-1
 602 567 l 1,54,-1
 602 714 l 1,55,-1
 616 729 l 1,48,-1
748 699 m 1,56,-1
 632 699 l 1,57,-1
 632 582 l 1,58,-1
 748 582 l 1,59,-1
 748 699 l 1,56,-1
50 162 m 1,60,-1
 196 162 l 1,61,-1
 212 147 l 1,62,-1
 212 0 l 1,63,-1
 196 -15 l 1,64,-1
 50 -15 l 1,65,-1
 34 0 l 1,66,-1
 34 147 l 1,67,-1
 50 162 l 1,60,-1
182 132 m 1,68,-1
 64 132 l 1,69,-1
 64 15 l 1,70,-1
 182 15 l 1,71,-1
 182 132 l 1,68,-1
616 162 m 1,72,-1
 764 162 l 1,73,-1
 778 147 l 1,74,-1
 778 0 l 1,75,-1
 764 -15 l 1,76,-1
 616 -15 l 1,77,-1
 602 0 l 1,78,-1
 602 147 l 1,79,-1
 616 162 l 1,72,-1
748 132 m 1,80,-1
 632 132 l 1,81,-1
 632 15 l 1,82,-1
 748 15 l 1,83,-1
 748 132 l 1,80,-1
EndSplineSet
EndChar

StartChar: section
Encoding: 167 167 138
Width: 813
GlyphClass: 2
Flags: W
LayerCount: 2
Back
Fore
SplineSet
50 729 m 1,0,-1
 196 729 l 1,1,-1
 212 714 l 1,2,-1
 212 567 l 1,3,-1
 196 552 l 1,4,-1
 50 552 l 1,5,-1
 34 567 l 1,6,-1
 34 714 l 1,7,-1
 50 729 l 1,0,-1
182 699 m 1,8,-1
 64 699 l 1,9,-1
 64 582 l 1,10,-1
 182 582 l 1,11,-1
 182 699 l 1,8,-1
332 729 m 1,12,-1
 480 729 l 1,13,-1
 494 714 l 1,14,-1
 494 446 l 1,15,-1
 764 446 l 1,16,-1
 778 431 l 1,17,-1
 778 284 l 1,18,-1
 764 269 l 1,19,-1
 494 269 l 1,20,-1
 494 0 l 1,21,-1
 480 -15 l 1,22,-1
 332 -15 l 1,23,-1
 318 0 l 1,24,-1
 318 269 l 1,25,-1
 50 269 l 1,26,-1
 34 284 l 1,27,-1
 34 431 l 1,28,-1
 50 446 l 1,29,-1
 318 446 l 1,30,-1
 318 714 l 1,31,-1
 332 729 l 1,12,-1
464 699 m 1,32,-1
 348 699 l 1,33,-1
 348 431 l 1,34,-1
 332 416 l 1,35,-1
 64 416 l 1,36,-1
 64 299 l 1,37,-1
 332 299 l 1,38,-1
 348 284 l 1,39,-1
 348 15 l 1,40,-1
 464 15 l 1,41,-1
 464 284 l 1,42,-1
 480 299 l 1,43,-1
 748 299 l 1,44,-1
 748 416 l 1,45,-1
 480 416 l 1,46,-1
 464 431 l 1,47,-1
 464 699 l 1,32,-1
616 729 m 1,48,-1
 764 729 l 1,49,-1
 778 714 l 1,50,-1
 778 567 l 1,51,-1
 764 552 l 1,52,-1
 616 552 l 1,53,-1
 602 567 l 1,54,-1
 602 714 l 1,55,-1
 616 729 l 1,48,-1
748 699 m 1,56,-1
 632 699 l 1,57,-1
 632 582 l 1,58,-1
 748 582 l 1,59,-1
 748 699 l 1,56,-1
50 162 m 1,60,-1
 196 162 l 1,61,-1
 212 147 l 1,62,-1
 212 0 l 1,63,-1
 196 -15 l 1,64,-1
 50 -15 l 1,65,-1
 34 0 l 1,66,-1
 34 147 l 1,67,-1
 50 162 l 1,60,-1
182 132 m 1,68,-1
 64 132 l 1,69,-1
 64 15 l 1,70,-1
 182 15 l 1,71,-1
 182 132 l 1,68,-1
616 162 m 1,72,-1
 764 162 l 1,73,-1
 778 147 l 1,74,-1
 778 0 l 1,75,-1
 764 -15 l 1,76,-1
 616 -15 l 1,77,-1
 602 0 l 1,78,-1
 602 147 l 1,79,-1
 616 162 l 1,72,-1
748 132 m 1,80,-1
 632 132 l 1,81,-1
 632 15 l 1,82,-1
 748 15 l 1,83,-1
 748 132 l 1,80,-1
EndSplineSet
EndChar

StartChar: dieresis
Encoding: 168 168 139
Width: 813
GlyphClass: 2
Flags: W
LayerCount: 2
Back
Fore
SplineSet
50 729 m 1,0,-1
 196 729 l 1,1,-1
 212 714 l 1,2,-1
 212 567 l 1,3,-1
 196 552 l 1,4,-1
 50 552 l 1,5,-1
 34 567 l 1,6,-1
 34 714 l 1,7,-1
 50 729 l 1,0,-1
182 699 m 1,8,-1
 64 699 l 1,9,-1
 64 582 l 1,10,-1
 182 582 l 1,11,-1
 182 699 l 1,8,-1
332 729 m 1,12,-1
 480 729 l 1,13,-1
 494 714 l 1,14,-1
 494 446 l 1,15,-1
 764 446 l 1,16,-1
 778 431 l 1,17,-1
 778 284 l 1,18,-1
 764 269 l 1,19,-1
 494 269 l 1,20,-1
 494 0 l 1,21,-1
 480 -15 l 1,22,-1
 332 -15 l 1,23,-1
 318 0 l 1,24,-1
 318 269 l 1,25,-1
 50 269 l 1,26,-1
 34 284 l 1,27,-1
 34 431 l 1,28,-1
 50 446 l 1,29,-1
 318 446 l 1,30,-1
 318 714 l 1,31,-1
 332 729 l 1,12,-1
464 699 m 1,32,-1
 348 699 l 1,33,-1
 348 431 l 1,34,-1
 332 416 l 1,35,-1
 64 416 l 1,36,-1
 64 299 l 1,37,-1
 332 299 l 1,38,-1
 348 284 l 1,39,-1
 348 15 l 1,40,-1
 464 15 l 1,41,-1
 464 284 l 1,42,-1
 480 299 l 1,43,-1
 748 299 l 1,44,-1
 748 416 l 1,45,-1
 480 416 l 1,46,-1
 464 431 l 1,47,-1
 464 699 l 1,32,-1
616 729 m 1,48,-1
 764 729 l 1,49,-1
 778 714 l 1,50,-1
 778 567 l 1,51,-1
 764 552 l 1,52,-1
 616 552 l 1,53,-1
 602 567 l 1,54,-1
 602 714 l 1,55,-1
 616 729 l 1,48,-1
748 699 m 1,56,-1
 632 699 l 1,57,-1
 632 582 l 1,58,-1
 748 582 l 1,59,-1
 748 699 l 1,56,-1
50 162 m 1,60,-1
 196 162 l 1,61,-1
 212 147 l 1,62,-1
 212 0 l 1,63,-1
 196 -15 l 1,64,-1
 50 -15 l 1,65,-1
 34 0 l 1,66,-1
 34 147 l 1,67,-1
 50 162 l 1,60,-1
182 132 m 1,68,-1
 64 132 l 1,69,-1
 64 15 l 1,70,-1
 182 15 l 1,71,-1
 182 132 l 1,68,-1
616 162 m 1,72,-1
 764 162 l 1,73,-1
 778 147 l 1,74,-1
 778 0 l 1,75,-1
 764 -15 l 1,76,-1
 616 -15 l 1,77,-1
 602 0 l 1,78,-1
 602 147 l 1,79,-1
 616 162 l 1,72,-1
748 132 m 1,80,-1
 632 132 l 1,81,-1
 632 15 l 1,82,-1
 748 15 l 1,83,-1
 748 132 l 1,80,-1
EndSplineSet
EndChar

StartChar: copyright
Encoding: 169 169 140
Width: 813
GlyphClass: 2
Flags: W
LayerCount: 2
Back
Fore
SplineSet
406 700 m 0,0,1
 261 700 261 700 162.5 601.5 c 128,-1,2
 64 503 64 503 64 358 c 256,3,4
 64 213 64 213 161.5 115 c 128,-1,5
 259 17 259 17 404 16 c 0,6,7
 405 16 405 16 405.5 16 c 128,-1,8
 406 16 406 16 406 16 c 1,9,-1
 748 16 l 1,10,-1
 748 133 l 1,11,-1
 406 133 l 1,12,13
 406 133 406 133 405.5 133 c 128,-1,14
 405 133 405 133 404 133 c 2,15,16
 404 133 404 133 403 133 c 0,17,18
 309 134 309 134 245.5 198.5 c 128,-1,19
 182 263 182 263 182 358 c 0,20,21
 182 454 182 454 246.5 518.5 c 128,-1,22
 311 583 311 583 406 583 c 0,23,24
 499 583 499 583 563 522 c 128,-1,25
 627 461 627 461 631 370 c 1,26,-1
 748 370 l 1,27,28
 744 511 744 511 646 605.5 c 128,-1,29
 548 700 548 700 406 700 c 0,0,1
619 340 m 1,30,-1
 602 358 l 1,31,32
 602 441 602 441 545.5 497 c 128,-1,33
 489 553 489 553 406 553 c 256,34,35
 323 553 323 553 267.5 497 c 128,-1,36
 212 441 212 441 212 358 c 256,37,38
 212 275 212 275 267 219.5 c 128,-1,39
 322 164 322 164 404 163 c 0,40,41
 405 163 405 163 405.5 163 c 128,-1,42
 406 163 406 163 406 163 c 1,43,-1
 764 163 l 1,44,-1
 778 148 l 1,45,-1
 778 1 l 1,46,-1
 764 -14 l 1,47,-1
 406 -14 l 1,48,49
 406 -14 406 -14 405.5 -14 c 128,-1,50
 405 -14 405 -14 404.5 -14 c 128,-1,51
 404 -14 404 -14 403 -14 c 0,52,53
 300 -13 300 -13 215.5 35.5 c 128,-1,54
 131 84 131 84 82.5 169 c 128,-1,55
 34 254 34 254 34 358 c 0,56,57
 34 461 34 461 83 546.5 c 128,-1,58
 132 632 132 632 217 681 c 128,-1,59
 302 730 302 730 406 730 c 128,-1,60
 510 730 510 730 595.5 681 c 128,-1,61
 681 632 681 632 729.5 546.5 c 128,-1,62
 778 461 778 461 778 358 c 1,63,-1
 761 340 l 1,64,-1
 619 340 l 1,30,-1
EndSplineSet
EndChar

StartChar: ordfeminine
Encoding: 170 170 141
Width: 813
GlyphClass: 2
Flags: W
LayerCount: 2
Back
Fore
SplineSet
50 729 m 1,0,-1
 196 729 l 1,1,-1
 212 714 l 1,2,-1
 212 567 l 1,3,-1
 196 552 l 1,4,-1
 50 552 l 1,5,-1
 34 567 l 1,6,-1
 34 714 l 1,7,-1
 50 729 l 1,0,-1
182 699 m 1,8,-1
 64 699 l 1,9,-1
 64 582 l 1,10,-1
 182 582 l 1,11,-1
 182 699 l 1,8,-1
332 729 m 1,12,-1
 480 729 l 1,13,-1
 494 714 l 1,14,-1
 494 446 l 1,15,-1
 764 446 l 1,16,-1
 778 431 l 1,17,-1
 778 284 l 1,18,-1
 764 269 l 1,19,-1
 494 269 l 1,20,-1
 494 0 l 1,21,-1
 480 -15 l 1,22,-1
 332 -15 l 1,23,-1
 318 0 l 1,24,-1
 318 269 l 1,25,-1
 50 269 l 1,26,-1
 34 284 l 1,27,-1
 34 431 l 1,28,-1
 50 446 l 1,29,-1
 318 446 l 1,30,-1
 318 714 l 1,31,-1
 332 729 l 1,12,-1
464 699 m 1,32,-1
 348 699 l 1,33,-1
 348 431 l 1,34,-1
 332 416 l 1,35,-1
 64 416 l 1,36,-1
 64 299 l 1,37,-1
 332 299 l 1,38,-1
 348 284 l 1,39,-1
 348 15 l 1,40,-1
 464 15 l 1,41,-1
 464 284 l 1,42,-1
 480 299 l 1,43,-1
 748 299 l 1,44,-1
 748 416 l 1,45,-1
 480 416 l 1,46,-1
 464 431 l 1,47,-1
 464 699 l 1,32,-1
616 729 m 1,48,-1
 764 729 l 1,49,-1
 778 714 l 1,50,-1
 778 567 l 1,51,-1
 764 552 l 1,52,-1
 616 552 l 1,53,-1
 602 567 l 1,54,-1
 602 714 l 1,55,-1
 616 729 l 1,48,-1
748 699 m 1,56,-1
 632 699 l 1,57,-1
 632 582 l 1,58,-1
 748 582 l 1,59,-1
 748 699 l 1,56,-1
50 162 m 1,60,-1
 196 162 l 1,61,-1
 212 147 l 1,62,-1
 212 0 l 1,63,-1
 196 -15 l 1,64,-1
 50 -15 l 1,65,-1
 34 0 l 1,66,-1
 34 147 l 1,67,-1
 50 162 l 1,60,-1
182 132 m 1,68,-1
 64 132 l 1,69,-1
 64 15 l 1,70,-1
 182 15 l 1,71,-1
 182 132 l 1,68,-1
616 162 m 1,72,-1
 764 162 l 1,73,-1
 778 147 l 1,74,-1
 778 0 l 1,75,-1
 764 -15 l 1,76,-1
 616 -15 l 1,77,-1
 602 0 l 1,78,-1
 602 147 l 1,79,-1
 616 162 l 1,72,-1
748 132 m 1,80,-1
 632 132 l 1,81,-1
 632 15 l 1,82,-1
 748 15 l 1,83,-1
 748 132 l 1,80,-1
EndSplineSet
EndChar

StartChar: guillemotleft
Encoding: 171 171 142
Width: 813
GlyphClass: 2
Flags: W
LayerCount: 2
Back
Fore
SplineSet
50 729 m 1,0,-1
 196 729 l 1,1,-1
 212 714 l 1,2,-1
 212 567 l 1,3,-1
 196 552 l 1,4,-1
 50 552 l 1,5,-1
 34 567 l 1,6,-1
 34 714 l 1,7,-1
 50 729 l 1,0,-1
182 699 m 1,8,-1
 64 699 l 1,9,-1
 64 582 l 1,10,-1
 182 582 l 1,11,-1
 182 699 l 1,8,-1
332 729 m 1,12,-1
 480 729 l 1,13,-1
 494 714 l 1,14,-1
 494 446 l 1,15,-1
 764 446 l 1,16,-1
 778 431 l 1,17,-1
 778 284 l 1,18,-1
 764 269 l 1,19,-1
 494 269 l 1,20,-1
 494 0 l 1,21,-1
 480 -15 l 1,22,-1
 332 -15 l 1,23,-1
 318 0 l 1,24,-1
 318 269 l 1,25,-1
 50 269 l 1,26,-1
 34 284 l 1,27,-1
 34 431 l 1,28,-1
 50 446 l 1,29,-1
 318 446 l 1,30,-1
 318 714 l 1,31,-1
 332 729 l 1,12,-1
464 699 m 1,32,-1
 348 699 l 1,33,-1
 348 431 l 1,34,-1
 332 416 l 1,35,-1
 64 416 l 1,36,-1
 64 299 l 1,37,-1
 332 299 l 1,38,-1
 348 284 l 1,39,-1
 348 15 l 1,40,-1
 464 15 l 1,41,-1
 464 284 l 1,42,-1
 480 299 l 1,43,-1
 748 299 l 1,44,-1
 748 416 l 1,45,-1
 480 416 l 1,46,-1
 464 431 l 1,47,-1
 464 699 l 1,32,-1
616 729 m 1,48,-1
 764 729 l 1,49,-1
 778 714 l 1,50,-1
 778 567 l 1,51,-1
 764 552 l 1,52,-1
 616 552 l 1,53,-1
 602 567 l 1,54,-1
 602 714 l 1,55,-1
 616 729 l 1,48,-1
748 699 m 1,56,-1
 632 699 l 1,57,-1
 632 582 l 1,58,-1
 748 582 l 1,59,-1
 748 699 l 1,56,-1
50 162 m 1,60,-1
 196 162 l 1,61,-1
 212 147 l 1,62,-1
 212 0 l 1,63,-1
 196 -15 l 1,64,-1
 50 -15 l 1,65,-1
 34 0 l 1,66,-1
 34 147 l 1,67,-1
 50 162 l 1,60,-1
182 132 m 1,68,-1
 64 132 l 1,69,-1
 64 15 l 1,70,-1
 182 15 l 1,71,-1
 182 132 l 1,68,-1
616 162 m 1,72,-1
 764 162 l 1,73,-1
 778 147 l 1,74,-1
 778 0 l 1,75,-1
 764 -15 l 1,76,-1
 616 -15 l 1,77,-1
 602 0 l 1,78,-1
 602 147 l 1,79,-1
 616 162 l 1,72,-1
748 132 m 1,80,-1
 632 132 l 1,81,-1
 632 15 l 1,82,-1
 748 15 l 1,83,-1
 748 132 l 1,80,-1
EndSplineSet
EndChar

StartChar: logicalnot
Encoding: 172 172 143
Width: 813
GlyphClass: 2
Flags: W
LayerCount: 2
Back
Fore
SplineSet
50 729 m 1,0,-1
 196 729 l 1,1,-1
 212 714 l 1,2,-1
 212 567 l 1,3,-1
 196 552 l 1,4,-1
 50 552 l 1,5,-1
 34 567 l 1,6,-1
 34 714 l 1,7,-1
 50 729 l 1,0,-1
182 699 m 1,8,-1
 64 699 l 1,9,-1
 64 582 l 1,10,-1
 182 582 l 1,11,-1
 182 699 l 1,8,-1
332 729 m 1,12,-1
 480 729 l 1,13,-1
 494 714 l 1,14,-1
 494 446 l 1,15,-1
 764 446 l 1,16,-1
 778 431 l 1,17,-1
 778 284 l 1,18,-1
 764 269 l 1,19,-1
 494 269 l 1,20,-1
 494 0 l 1,21,-1
 480 -15 l 1,22,-1
 332 -15 l 1,23,-1
 318 0 l 1,24,-1
 318 269 l 1,25,-1
 50 269 l 1,26,-1
 34 284 l 1,27,-1
 34 431 l 1,28,-1
 50 446 l 1,29,-1
 318 446 l 1,30,-1
 318 714 l 1,31,-1
 332 729 l 1,12,-1
464 699 m 1,32,-1
 348 699 l 1,33,-1
 348 431 l 1,34,-1
 332 416 l 1,35,-1
 64 416 l 1,36,-1
 64 299 l 1,37,-1
 332 299 l 1,38,-1
 348 284 l 1,39,-1
 348 15 l 1,40,-1
 464 15 l 1,41,-1
 464 284 l 1,42,-1
 480 299 l 1,43,-1
 748 299 l 1,44,-1
 748 416 l 1,45,-1
 480 416 l 1,46,-1
 464 431 l 1,47,-1
 464 699 l 1,32,-1
616 729 m 1,48,-1
 764 729 l 1,49,-1
 778 714 l 1,50,-1
 778 567 l 1,51,-1
 764 552 l 1,52,-1
 616 552 l 1,53,-1
 602 567 l 1,54,-1
 602 714 l 1,55,-1
 616 729 l 1,48,-1
748 699 m 1,56,-1
 632 699 l 1,57,-1
 632 582 l 1,58,-1
 748 582 l 1,59,-1
 748 699 l 1,56,-1
50 162 m 1,60,-1
 196 162 l 1,61,-1
 212 147 l 1,62,-1
 212 0 l 1,63,-1
 196 -15 l 1,64,-1
 50 -15 l 1,65,-1
 34 0 l 1,66,-1
 34 147 l 1,67,-1
 50 162 l 1,60,-1
182 132 m 1,68,-1
 64 132 l 1,69,-1
 64 15 l 1,70,-1
 182 15 l 1,71,-1
 182 132 l 1,68,-1
616 162 m 1,72,-1
 764 162 l 1,73,-1
 778 147 l 1,74,-1
 778 0 l 1,75,-1
 764 -15 l 1,76,-1
 616 -15 l 1,77,-1
 602 0 l 1,78,-1
 602 147 l 1,79,-1
 616 162 l 1,72,-1
748 132 m 1,80,-1
 632 132 l 1,81,-1
 632 15 l 1,82,-1
 748 15 l 1,83,-1
 748 132 l 1,80,-1
EndSplineSet
EndChar

StartChar: uni00AD
Encoding: 173 173 144
Width: 813
GlyphClass: 2
Flags: W
LayerCount: 2
Back
Fore
SplineSet
50 729 m 1,0,-1
 196 729 l 1,1,-1
 212 714 l 1,2,-1
 212 567 l 1,3,-1
 196 552 l 1,4,-1
 50 552 l 1,5,-1
 34 567 l 1,6,-1
 34 714 l 1,7,-1
 50 729 l 1,0,-1
182 699 m 1,8,-1
 64 699 l 1,9,-1
 64 582 l 1,10,-1
 182 582 l 1,11,-1
 182 699 l 1,8,-1
332 729 m 1,12,-1
 480 729 l 1,13,-1
 494 714 l 1,14,-1
 494 446 l 1,15,-1
 764 446 l 1,16,-1
 778 431 l 1,17,-1
 778 284 l 1,18,-1
 764 269 l 1,19,-1
 494 269 l 1,20,-1
 494 0 l 1,21,-1
 480 -15 l 1,22,-1
 332 -15 l 1,23,-1
 318 0 l 1,24,-1
 318 269 l 1,25,-1
 50 269 l 1,26,-1
 34 284 l 1,27,-1
 34 431 l 1,28,-1
 50 446 l 1,29,-1
 318 446 l 1,30,-1
 318 714 l 1,31,-1
 332 729 l 1,12,-1
464 699 m 1,32,-1
 348 699 l 1,33,-1
 348 431 l 1,34,-1
 332 416 l 1,35,-1
 64 416 l 1,36,-1
 64 299 l 1,37,-1
 332 299 l 1,38,-1
 348 284 l 1,39,-1
 348 15 l 1,40,-1
 464 15 l 1,41,-1
 464 284 l 1,42,-1
 480 299 l 1,43,-1
 748 299 l 1,44,-1
 748 416 l 1,45,-1
 480 416 l 1,46,-1
 464 431 l 1,47,-1
 464 699 l 1,32,-1
616 729 m 1,48,-1
 764 729 l 1,49,-1
 778 714 l 1,50,-1
 778 567 l 1,51,-1
 764 552 l 1,52,-1
 616 552 l 1,53,-1
 602 567 l 1,54,-1
 602 714 l 1,55,-1
 616 729 l 1,48,-1
748 699 m 1,56,-1
 632 699 l 1,57,-1
 632 582 l 1,58,-1
 748 582 l 1,59,-1
 748 699 l 1,56,-1
50 162 m 1,60,-1
 196 162 l 1,61,-1
 212 147 l 1,62,-1
 212 0 l 1,63,-1
 196 -15 l 1,64,-1
 50 -15 l 1,65,-1
 34 0 l 1,66,-1
 34 147 l 1,67,-1
 50 162 l 1,60,-1
182 132 m 1,68,-1
 64 132 l 1,69,-1
 64 15 l 1,70,-1
 182 15 l 1,71,-1
 182 132 l 1,68,-1
616 162 m 1,72,-1
 764 162 l 1,73,-1
 778 147 l 1,74,-1
 778 0 l 1,75,-1
 764 -15 l 1,76,-1
 616 -15 l 1,77,-1
 602 0 l 1,78,-1
 602 147 l 1,79,-1
 616 162 l 1,72,-1
748 132 m 1,80,-1
 632 132 l 1,81,-1
 632 15 l 1,82,-1
 748 15 l 1,83,-1
 748 132 l 1,80,-1
EndSplineSet
EndChar

StartChar: registered
Encoding: 174 174 145
Width: 813
GlyphClass: 2
Flags: W
LayerCount: 2
Back
Fore
SplineSet
50 729 m 1,0,-1
 196 729 l 1,1,-1
 212 714 l 1,2,-1
 212 567 l 1,3,-1
 196 552 l 1,4,-1
 50 552 l 1,5,-1
 34 567 l 1,6,-1
 34 714 l 1,7,-1
 50 729 l 1,0,-1
182 699 m 1,8,-1
 64 699 l 1,9,-1
 64 582 l 1,10,-1
 182 582 l 1,11,-1
 182 699 l 1,8,-1
332 729 m 1,12,-1
 480 729 l 1,13,-1
 494 714 l 1,14,-1
 494 446 l 1,15,-1
 764 446 l 1,16,-1
 778 431 l 1,17,-1
 778 284 l 1,18,-1
 764 269 l 1,19,-1
 494 269 l 1,20,-1
 494 0 l 1,21,-1
 480 -15 l 1,22,-1
 332 -15 l 1,23,-1
 318 0 l 1,24,-1
 318 269 l 1,25,-1
 50 269 l 1,26,-1
 34 284 l 1,27,-1
 34 431 l 1,28,-1
 50 446 l 1,29,-1
 318 446 l 1,30,-1
 318 714 l 1,31,-1
 332 729 l 1,12,-1
464 699 m 1,32,-1
 348 699 l 1,33,-1
 348 431 l 1,34,-1
 332 416 l 1,35,-1
 64 416 l 1,36,-1
 64 299 l 1,37,-1
 332 299 l 1,38,-1
 348 284 l 1,39,-1
 348 15 l 1,40,-1
 464 15 l 1,41,-1
 464 284 l 1,42,-1
 480 299 l 1,43,-1
 748 299 l 1,44,-1
 748 416 l 1,45,-1
 480 416 l 1,46,-1
 464 431 l 1,47,-1
 464 699 l 1,32,-1
616 729 m 1,48,-1
 764 729 l 1,49,-1
 778 714 l 1,50,-1
 778 567 l 1,51,-1
 764 552 l 1,52,-1
 616 552 l 1,53,-1
 602 567 l 1,54,-1
 602 714 l 1,55,-1
 616 729 l 1,48,-1
748 699 m 1,56,-1
 632 699 l 1,57,-1
 632 582 l 1,58,-1
 748 582 l 1,59,-1
 748 699 l 1,56,-1
50 162 m 1,60,-1
 196 162 l 1,61,-1
 212 147 l 1,62,-1
 212 0 l 1,63,-1
 196 -15 l 1,64,-1
 50 -15 l 1,65,-1
 34 0 l 1,66,-1
 34 147 l 1,67,-1
 50 162 l 1,60,-1
182 132 m 1,68,-1
 64 132 l 1,69,-1
 64 15 l 1,70,-1
 182 15 l 1,71,-1
 182 132 l 1,68,-1
616 162 m 1,72,-1
 764 162 l 1,73,-1
 778 147 l 1,74,-1
 778 0 l 1,75,-1
 764 -15 l 1,76,-1
 616 -15 l 1,77,-1
 602 0 l 1,78,-1
 602 147 l 1,79,-1
 616 162 l 1,72,-1
748 132 m 1,80,-1
 632 132 l 1,81,-1
 632 15 l 1,82,-1
 748 15 l 1,83,-1
 748 132 l 1,80,-1
EndSplineSet
EndChar

StartChar: macron
Encoding: 175 175 146
Width: 813
GlyphClass: 2
Flags: W
LayerCount: 2
Back
Fore
SplineSet
50 729 m 1,0,-1
 196 729 l 1,1,-1
 212 714 l 1,2,-1
 212 567 l 1,3,-1
 196 552 l 1,4,-1
 50 552 l 1,5,-1
 34 567 l 1,6,-1
 34 714 l 1,7,-1
 50 729 l 1,0,-1
182 699 m 1,8,-1
 64 699 l 1,9,-1
 64 582 l 1,10,-1
 182 582 l 1,11,-1
 182 699 l 1,8,-1
332 729 m 1,12,-1
 480 729 l 1,13,-1
 494 714 l 1,14,-1
 494 446 l 1,15,-1
 764 446 l 1,16,-1
 778 431 l 1,17,-1
 778 284 l 1,18,-1
 764 269 l 1,19,-1
 494 269 l 1,20,-1
 494 0 l 1,21,-1
 480 -15 l 1,22,-1
 332 -15 l 1,23,-1
 318 0 l 1,24,-1
 318 269 l 1,25,-1
 50 269 l 1,26,-1
 34 284 l 1,27,-1
 34 431 l 1,28,-1
 50 446 l 1,29,-1
 318 446 l 1,30,-1
 318 714 l 1,31,-1
 332 729 l 1,12,-1
464 699 m 1,32,-1
 348 699 l 1,33,-1
 348 431 l 1,34,-1
 332 416 l 1,35,-1
 64 416 l 1,36,-1
 64 299 l 1,37,-1
 332 299 l 1,38,-1
 348 284 l 1,39,-1
 348 15 l 1,40,-1
 464 15 l 1,41,-1
 464 284 l 1,42,-1
 480 299 l 1,43,-1
 748 299 l 1,44,-1
 748 416 l 1,45,-1
 480 416 l 1,46,-1
 464 431 l 1,47,-1
 464 699 l 1,32,-1
616 729 m 1,48,-1
 764 729 l 1,49,-1
 778 714 l 1,50,-1
 778 567 l 1,51,-1
 764 552 l 1,52,-1
 616 552 l 1,53,-1
 602 567 l 1,54,-1
 602 714 l 1,55,-1
 616 729 l 1,48,-1
748 699 m 1,56,-1
 632 699 l 1,57,-1
 632 582 l 1,58,-1
 748 582 l 1,59,-1
 748 699 l 1,56,-1
50 162 m 1,60,-1
 196 162 l 1,61,-1
 212 147 l 1,62,-1
 212 0 l 1,63,-1
 196 -15 l 1,64,-1
 50 -15 l 1,65,-1
 34 0 l 1,66,-1
 34 147 l 1,67,-1
 50 162 l 1,60,-1
182 132 m 1,68,-1
 64 132 l 1,69,-1
 64 15 l 1,70,-1
 182 15 l 1,71,-1
 182 132 l 1,68,-1
616 162 m 1,72,-1
 764 162 l 1,73,-1
 778 147 l 1,74,-1
 778 0 l 1,75,-1
 764 -15 l 1,76,-1
 616 -15 l 1,77,-1
 602 0 l 1,78,-1
 602 147 l 1,79,-1
 616 162 l 1,72,-1
748 132 m 1,80,-1
 632 132 l 1,81,-1
 632 15 l 1,82,-1
 748 15 l 1,83,-1
 748 132 l 1,80,-1
EndSplineSet
EndChar

StartChar: degree
Encoding: 176 176 147
Width: 813
GlyphClass: 2
Flags: W
LayerCount: 2
Back
Fore
SplineSet
50 729 m 1,0,-1
 196 729 l 1,1,-1
 212 714 l 1,2,-1
 212 567 l 1,3,-1
 196 552 l 1,4,-1
 50 552 l 1,5,-1
 34 567 l 1,6,-1
 34 714 l 1,7,-1
 50 729 l 1,0,-1
182 699 m 1,8,-1
 64 699 l 1,9,-1
 64 582 l 1,10,-1
 182 582 l 1,11,-1
 182 699 l 1,8,-1
332 729 m 1,12,-1
 480 729 l 1,13,-1
 494 714 l 1,14,-1
 494 446 l 1,15,-1
 764 446 l 1,16,-1
 778 431 l 1,17,-1
 778 284 l 1,18,-1
 764 269 l 1,19,-1
 494 269 l 1,20,-1
 494 0 l 1,21,-1
 480 -15 l 1,22,-1
 332 -15 l 1,23,-1
 318 0 l 1,24,-1
 318 269 l 1,25,-1
 50 269 l 1,26,-1
 34 284 l 1,27,-1
 34 431 l 1,28,-1
 50 446 l 1,29,-1
 318 446 l 1,30,-1
 318 714 l 1,31,-1
 332 729 l 1,12,-1
464 699 m 1,32,-1
 348 699 l 1,33,-1
 348 431 l 1,34,-1
 332 416 l 1,35,-1
 64 416 l 1,36,-1
 64 299 l 1,37,-1
 332 299 l 1,38,-1
 348 284 l 1,39,-1
 348 15 l 1,40,-1
 464 15 l 1,41,-1
 464 284 l 1,42,-1
 480 299 l 1,43,-1
 748 299 l 1,44,-1
 748 416 l 1,45,-1
 480 416 l 1,46,-1
 464 431 l 1,47,-1
 464 699 l 1,32,-1
616 729 m 1,48,-1
 764 729 l 1,49,-1
 778 714 l 1,50,-1
 778 567 l 1,51,-1
 764 552 l 1,52,-1
 616 552 l 1,53,-1
 602 567 l 1,54,-1
 602 714 l 1,55,-1
 616 729 l 1,48,-1
748 699 m 1,56,-1
 632 699 l 1,57,-1
 632 582 l 1,58,-1
 748 582 l 1,59,-1
 748 699 l 1,56,-1
50 162 m 1,60,-1
 196 162 l 1,61,-1
 212 147 l 1,62,-1
 212 0 l 1,63,-1
 196 -15 l 1,64,-1
 50 -15 l 1,65,-1
 34 0 l 1,66,-1
 34 147 l 1,67,-1
 50 162 l 1,60,-1
182 132 m 1,68,-1
 64 132 l 1,69,-1
 64 15 l 1,70,-1
 182 15 l 1,71,-1
 182 132 l 1,68,-1
616 162 m 1,72,-1
 764 162 l 1,73,-1
 778 147 l 1,74,-1
 778 0 l 1,75,-1
 764 -15 l 1,76,-1
 616 -15 l 1,77,-1
 602 0 l 1,78,-1
 602 147 l 1,79,-1
 616 162 l 1,72,-1
748 132 m 1,80,-1
 632 132 l 1,81,-1
 632 15 l 1,82,-1
 748 15 l 1,83,-1
 748 132 l 1,80,-1
EndSplineSet
EndChar

StartChar: plusminus
Encoding: 177 177 148
Width: 813
GlyphClass: 2
Flags: W
LayerCount: 2
Back
Fore
SplineSet
50 729 m 1,0,-1
 196 729 l 1,1,-1
 212 714 l 1,2,-1
 212 567 l 1,3,-1
 196 552 l 1,4,-1
 50 552 l 1,5,-1
 34 567 l 1,6,-1
 34 714 l 1,7,-1
 50 729 l 1,0,-1
182 699 m 1,8,-1
 64 699 l 1,9,-1
 64 582 l 1,10,-1
 182 582 l 1,11,-1
 182 699 l 1,8,-1
332 729 m 1,12,-1
 480 729 l 1,13,-1
 494 714 l 1,14,-1
 494 446 l 1,15,-1
 764 446 l 1,16,-1
 778 431 l 1,17,-1
 778 284 l 1,18,-1
 764 269 l 1,19,-1
 494 269 l 1,20,-1
 494 0 l 1,21,-1
 480 -15 l 1,22,-1
 332 -15 l 1,23,-1
 318 0 l 1,24,-1
 318 269 l 1,25,-1
 50 269 l 1,26,-1
 34 284 l 1,27,-1
 34 431 l 1,28,-1
 50 446 l 1,29,-1
 318 446 l 1,30,-1
 318 714 l 1,31,-1
 332 729 l 1,12,-1
464 699 m 1,32,-1
 348 699 l 1,33,-1
 348 431 l 1,34,-1
 332 416 l 1,35,-1
 64 416 l 1,36,-1
 64 299 l 1,37,-1
 332 299 l 1,38,-1
 348 284 l 1,39,-1
 348 15 l 1,40,-1
 464 15 l 1,41,-1
 464 284 l 1,42,-1
 480 299 l 1,43,-1
 748 299 l 1,44,-1
 748 416 l 1,45,-1
 480 416 l 1,46,-1
 464 431 l 1,47,-1
 464 699 l 1,32,-1
616 729 m 1,48,-1
 764 729 l 1,49,-1
 778 714 l 1,50,-1
 778 567 l 1,51,-1
 764 552 l 1,52,-1
 616 552 l 1,53,-1
 602 567 l 1,54,-1
 602 714 l 1,55,-1
 616 729 l 1,48,-1
748 699 m 1,56,-1
 632 699 l 1,57,-1
 632 582 l 1,58,-1
 748 582 l 1,59,-1
 748 699 l 1,56,-1
50 162 m 1,60,-1
 196 162 l 1,61,-1
 212 147 l 1,62,-1
 212 0 l 1,63,-1
 196 -15 l 1,64,-1
 50 -15 l 1,65,-1
 34 0 l 1,66,-1
 34 147 l 1,67,-1
 50 162 l 1,60,-1
182 132 m 1,68,-1
 64 132 l 1,69,-1
 64 15 l 1,70,-1
 182 15 l 1,71,-1
 182 132 l 1,68,-1
616 162 m 1,72,-1
 764 162 l 1,73,-1
 778 147 l 1,74,-1
 778 0 l 1,75,-1
 764 -15 l 1,76,-1
 616 -15 l 1,77,-1
 602 0 l 1,78,-1
 602 147 l 1,79,-1
 616 162 l 1,72,-1
748 132 m 1,80,-1
 632 132 l 1,81,-1
 632 15 l 1,82,-1
 748 15 l 1,83,-1
 748 132 l 1,80,-1
EndSplineSet
EndChar

StartChar: uni00B2
Encoding: 178 178 149
Width: 813
GlyphClass: 2
Flags: W
LayerCount: 2
Back
Fore
SplineSet
50 729 m 1,0,-1
 196 729 l 1,1,-1
 212 714 l 1,2,-1
 212 567 l 1,3,-1
 196 552 l 1,4,-1
 50 552 l 1,5,-1
 34 567 l 1,6,-1
 34 714 l 1,7,-1
 50 729 l 1,0,-1
182 699 m 1,8,-1
 64 699 l 1,9,-1
 64 582 l 1,10,-1
 182 582 l 1,11,-1
 182 699 l 1,8,-1
332 729 m 1,12,-1
 480 729 l 1,13,-1
 494 714 l 1,14,-1
 494 446 l 1,15,-1
 764 446 l 1,16,-1
 778 431 l 1,17,-1
 778 284 l 1,18,-1
 764 269 l 1,19,-1
 494 269 l 1,20,-1
 494 0 l 1,21,-1
 480 -15 l 1,22,-1
 332 -15 l 1,23,-1
 318 0 l 1,24,-1
 318 269 l 1,25,-1
 50 269 l 1,26,-1
 34 284 l 1,27,-1
 34 431 l 1,28,-1
 50 446 l 1,29,-1
 318 446 l 1,30,-1
 318 714 l 1,31,-1
 332 729 l 1,12,-1
464 699 m 1,32,-1
 348 699 l 1,33,-1
 348 431 l 1,34,-1
 332 416 l 1,35,-1
 64 416 l 1,36,-1
 64 299 l 1,37,-1
 332 299 l 1,38,-1
 348 284 l 1,39,-1
 348 15 l 1,40,-1
 464 15 l 1,41,-1
 464 284 l 1,42,-1
 480 299 l 1,43,-1
 748 299 l 1,44,-1
 748 416 l 1,45,-1
 480 416 l 1,46,-1
 464 431 l 1,47,-1
 464 699 l 1,32,-1
616 729 m 1,48,-1
 764 729 l 1,49,-1
 778 714 l 1,50,-1
 778 567 l 1,51,-1
 764 552 l 1,52,-1
 616 552 l 1,53,-1
 602 567 l 1,54,-1
 602 714 l 1,55,-1
 616 729 l 1,48,-1
748 699 m 1,56,-1
 632 699 l 1,57,-1
 632 582 l 1,58,-1
 748 582 l 1,59,-1
 748 699 l 1,56,-1
50 162 m 1,60,-1
 196 162 l 1,61,-1
 212 147 l 1,62,-1
 212 0 l 1,63,-1
 196 -15 l 1,64,-1
 50 -15 l 1,65,-1
 34 0 l 1,66,-1
 34 147 l 1,67,-1
 50 162 l 1,60,-1
182 132 m 1,68,-1
 64 132 l 1,69,-1
 64 15 l 1,70,-1
 182 15 l 1,71,-1
 182 132 l 1,68,-1
616 162 m 1,72,-1
 764 162 l 1,73,-1
 778 147 l 1,74,-1
 778 0 l 1,75,-1
 764 -15 l 1,76,-1
 616 -15 l 1,77,-1
 602 0 l 1,78,-1
 602 147 l 1,79,-1
 616 162 l 1,72,-1
748 132 m 1,80,-1
 632 132 l 1,81,-1
 632 15 l 1,82,-1
 748 15 l 1,83,-1
 748 132 l 1,80,-1
EndSplineSet
EndChar

StartChar: uni00B3
Encoding: 179 179 150
Width: 813
GlyphClass: 2
Flags: W
LayerCount: 2
Back
Fore
SplineSet
50 729 m 1,0,-1
 196 729 l 1,1,-1
 212 714 l 1,2,-1
 212 567 l 1,3,-1
 196 552 l 1,4,-1
 50 552 l 1,5,-1
 34 567 l 1,6,-1
 34 714 l 1,7,-1
 50 729 l 1,0,-1
182 699 m 1,8,-1
 64 699 l 1,9,-1
 64 582 l 1,10,-1
 182 582 l 1,11,-1
 182 699 l 1,8,-1
332 729 m 1,12,-1
 480 729 l 1,13,-1
 494 714 l 1,14,-1
 494 446 l 1,15,-1
 764 446 l 1,16,-1
 778 431 l 1,17,-1
 778 284 l 1,18,-1
 764 269 l 1,19,-1
 494 269 l 1,20,-1
 494 0 l 1,21,-1
 480 -15 l 1,22,-1
 332 -15 l 1,23,-1
 318 0 l 1,24,-1
 318 269 l 1,25,-1
 50 269 l 1,26,-1
 34 284 l 1,27,-1
 34 431 l 1,28,-1
 50 446 l 1,29,-1
 318 446 l 1,30,-1
 318 714 l 1,31,-1
 332 729 l 1,12,-1
464 699 m 1,32,-1
 348 699 l 1,33,-1
 348 431 l 1,34,-1
 332 416 l 1,35,-1
 64 416 l 1,36,-1
 64 299 l 1,37,-1
 332 299 l 1,38,-1
 348 284 l 1,39,-1
 348 15 l 1,40,-1
 464 15 l 1,41,-1
 464 284 l 1,42,-1
 480 299 l 1,43,-1
 748 299 l 1,44,-1
 748 416 l 1,45,-1
 480 416 l 1,46,-1
 464 431 l 1,47,-1
 464 699 l 1,32,-1
616 729 m 1,48,-1
 764 729 l 1,49,-1
 778 714 l 1,50,-1
 778 567 l 1,51,-1
 764 552 l 1,52,-1
 616 552 l 1,53,-1
 602 567 l 1,54,-1
 602 714 l 1,55,-1
 616 729 l 1,48,-1
748 699 m 1,56,-1
 632 699 l 1,57,-1
 632 582 l 1,58,-1
 748 582 l 1,59,-1
 748 699 l 1,56,-1
50 162 m 1,60,-1
 196 162 l 1,61,-1
 212 147 l 1,62,-1
 212 0 l 1,63,-1
 196 -15 l 1,64,-1
 50 -15 l 1,65,-1
 34 0 l 1,66,-1
 34 147 l 1,67,-1
 50 162 l 1,60,-1
182 132 m 1,68,-1
 64 132 l 1,69,-1
 64 15 l 1,70,-1
 182 15 l 1,71,-1
 182 132 l 1,68,-1
616 162 m 1,72,-1
 764 162 l 1,73,-1
 778 147 l 1,74,-1
 778 0 l 1,75,-1
 764 -15 l 1,76,-1
 616 -15 l 1,77,-1
 602 0 l 1,78,-1
 602 147 l 1,79,-1
 616 162 l 1,72,-1
748 132 m 1,80,-1
 632 132 l 1,81,-1
 632 15 l 1,82,-1
 748 15 l 1,83,-1
 748 132 l 1,80,-1
EndSplineSet
EndChar

StartChar: acute
Encoding: 180 180 151
Width: 813
GlyphClass: 2
Flags: W
LayerCount: 2
Back
Fore
SplineSet
50 729 m 1,0,-1
 196 729 l 1,1,-1
 212 714 l 1,2,-1
 212 567 l 1,3,-1
 196 552 l 1,4,-1
 50 552 l 1,5,-1
 34 567 l 1,6,-1
 34 714 l 1,7,-1
 50 729 l 1,0,-1
182 699 m 1,8,-1
 64 699 l 1,9,-1
 64 582 l 1,10,-1
 182 582 l 1,11,-1
 182 699 l 1,8,-1
332 729 m 1,12,-1
 480 729 l 1,13,-1
 494 714 l 1,14,-1
 494 446 l 1,15,-1
 764 446 l 1,16,-1
 778 431 l 1,17,-1
 778 284 l 1,18,-1
 764 269 l 1,19,-1
 494 269 l 1,20,-1
 494 0 l 1,21,-1
 480 -15 l 1,22,-1
 332 -15 l 1,23,-1
 318 0 l 1,24,-1
 318 269 l 1,25,-1
 50 269 l 1,26,-1
 34 284 l 1,27,-1
 34 431 l 1,28,-1
 50 446 l 1,29,-1
 318 446 l 1,30,-1
 318 714 l 1,31,-1
 332 729 l 1,12,-1
464 699 m 1,32,-1
 348 699 l 1,33,-1
 348 431 l 1,34,-1
 332 416 l 1,35,-1
 64 416 l 1,36,-1
 64 299 l 1,37,-1
 332 299 l 1,38,-1
 348 284 l 1,39,-1
 348 15 l 1,40,-1
 464 15 l 1,41,-1
 464 284 l 1,42,-1
 480 299 l 1,43,-1
 748 299 l 1,44,-1
 748 416 l 1,45,-1
 480 416 l 1,46,-1
 464 431 l 1,47,-1
 464 699 l 1,32,-1
616 729 m 1,48,-1
 764 729 l 1,49,-1
 778 714 l 1,50,-1
 778 567 l 1,51,-1
 764 552 l 1,52,-1
 616 552 l 1,53,-1
 602 567 l 1,54,-1
 602 714 l 1,55,-1
 616 729 l 1,48,-1
748 699 m 1,56,-1
 632 699 l 1,57,-1
 632 582 l 1,58,-1
 748 582 l 1,59,-1
 748 699 l 1,56,-1
50 162 m 1,60,-1
 196 162 l 1,61,-1
 212 147 l 1,62,-1
 212 0 l 1,63,-1
 196 -15 l 1,64,-1
 50 -15 l 1,65,-1
 34 0 l 1,66,-1
 34 147 l 1,67,-1
 50 162 l 1,60,-1
182 132 m 1,68,-1
 64 132 l 1,69,-1
 64 15 l 1,70,-1
 182 15 l 1,71,-1
 182 132 l 1,68,-1
616 162 m 1,72,-1
 764 162 l 1,73,-1
 778 147 l 1,74,-1
 778 0 l 1,75,-1
 764 -15 l 1,76,-1
 616 -15 l 1,77,-1
 602 0 l 1,78,-1
 602 147 l 1,79,-1
 616 162 l 1,72,-1
748 132 m 1,80,-1
 632 132 l 1,81,-1
 632 15 l 1,82,-1
 748 15 l 1,83,-1
 748 132 l 1,80,-1
EndSplineSet
EndChar

StartChar: uni00B5
Encoding: 181 181 152
Width: 813
GlyphClass: 2
Flags: W
LayerCount: 2
Back
Fore
SplineSet
50 729 m 1,0,-1
 196 729 l 1,1,-1
 212 714 l 1,2,-1
 212 567 l 1,3,-1
 196 552 l 1,4,-1
 50 552 l 1,5,-1
 34 567 l 1,6,-1
 34 714 l 1,7,-1
 50 729 l 1,0,-1
182 699 m 1,8,-1
 64 699 l 1,9,-1
 64 582 l 1,10,-1
 182 582 l 1,11,-1
 182 699 l 1,8,-1
332 729 m 1,12,-1
 480 729 l 1,13,-1
 494 714 l 1,14,-1
 494 446 l 1,15,-1
 764 446 l 1,16,-1
 778 431 l 1,17,-1
 778 284 l 1,18,-1
 764 269 l 1,19,-1
 494 269 l 1,20,-1
 494 0 l 1,21,-1
 480 -15 l 1,22,-1
 332 -15 l 1,23,-1
 318 0 l 1,24,-1
 318 269 l 1,25,-1
 50 269 l 1,26,-1
 34 284 l 1,27,-1
 34 431 l 1,28,-1
 50 446 l 1,29,-1
 318 446 l 1,30,-1
 318 714 l 1,31,-1
 332 729 l 1,12,-1
464 699 m 1,32,-1
 348 699 l 1,33,-1
 348 431 l 1,34,-1
 332 416 l 1,35,-1
 64 416 l 1,36,-1
 64 299 l 1,37,-1
 332 299 l 1,38,-1
 348 284 l 1,39,-1
 348 15 l 1,40,-1
 464 15 l 1,41,-1
 464 284 l 1,42,-1
 480 299 l 1,43,-1
 748 299 l 1,44,-1
 748 416 l 1,45,-1
 480 416 l 1,46,-1
 464 431 l 1,47,-1
 464 699 l 1,32,-1
616 729 m 1,48,-1
 764 729 l 1,49,-1
 778 714 l 1,50,-1
 778 567 l 1,51,-1
 764 552 l 1,52,-1
 616 552 l 1,53,-1
 602 567 l 1,54,-1
 602 714 l 1,55,-1
 616 729 l 1,48,-1
748 699 m 1,56,-1
 632 699 l 1,57,-1
 632 582 l 1,58,-1
 748 582 l 1,59,-1
 748 699 l 1,56,-1
50 162 m 1,60,-1
 196 162 l 1,61,-1
 212 147 l 1,62,-1
 212 0 l 1,63,-1
 196 -15 l 1,64,-1
 50 -15 l 1,65,-1
 34 0 l 1,66,-1
 34 147 l 1,67,-1
 50 162 l 1,60,-1
182 132 m 1,68,-1
 64 132 l 1,69,-1
 64 15 l 1,70,-1
 182 15 l 1,71,-1
 182 132 l 1,68,-1
616 162 m 1,72,-1
 764 162 l 1,73,-1
 778 147 l 1,74,-1
 778 0 l 1,75,-1
 764 -15 l 1,76,-1
 616 -15 l 1,77,-1
 602 0 l 1,78,-1
 602 147 l 1,79,-1
 616 162 l 1,72,-1
748 132 m 1,80,-1
 632 132 l 1,81,-1
 632 15 l 1,82,-1
 748 15 l 1,83,-1
 748 132 l 1,80,-1
EndSplineSet
EndChar

StartChar: paragraph
Encoding: 182 182 153
Width: 813
GlyphClass: 2
Flags: W
LayerCount: 2
Back
Fore
SplineSet
50 729 m 1,0,-1
 196 729 l 1,1,-1
 212 714 l 1,2,-1
 212 567 l 1,3,-1
 196 552 l 1,4,-1
 50 552 l 1,5,-1
 34 567 l 1,6,-1
 34 714 l 1,7,-1
 50 729 l 1,0,-1
182 699 m 1,8,-1
 64 699 l 1,9,-1
 64 582 l 1,10,-1
 182 582 l 1,11,-1
 182 699 l 1,8,-1
332 729 m 1,12,-1
 480 729 l 1,13,-1
 494 714 l 1,14,-1
 494 446 l 1,15,-1
 764 446 l 1,16,-1
 778 431 l 1,17,-1
 778 284 l 1,18,-1
 764 269 l 1,19,-1
 494 269 l 1,20,-1
 494 0 l 1,21,-1
 480 -15 l 1,22,-1
 332 -15 l 1,23,-1
 318 0 l 1,24,-1
 318 269 l 1,25,-1
 50 269 l 1,26,-1
 34 284 l 1,27,-1
 34 431 l 1,28,-1
 50 446 l 1,29,-1
 318 446 l 1,30,-1
 318 714 l 1,31,-1
 332 729 l 1,12,-1
464 699 m 1,32,-1
 348 699 l 1,33,-1
 348 431 l 1,34,-1
 332 416 l 1,35,-1
 64 416 l 1,36,-1
 64 299 l 1,37,-1
 332 299 l 1,38,-1
 348 284 l 1,39,-1
 348 15 l 1,40,-1
 464 15 l 1,41,-1
 464 284 l 1,42,-1
 480 299 l 1,43,-1
 748 299 l 1,44,-1
 748 416 l 1,45,-1
 480 416 l 1,46,-1
 464 431 l 1,47,-1
 464 699 l 1,32,-1
616 729 m 1,48,-1
 764 729 l 1,49,-1
 778 714 l 1,50,-1
 778 567 l 1,51,-1
 764 552 l 1,52,-1
 616 552 l 1,53,-1
 602 567 l 1,54,-1
 602 714 l 1,55,-1
 616 729 l 1,48,-1
748 699 m 1,56,-1
 632 699 l 1,57,-1
 632 582 l 1,58,-1
 748 582 l 1,59,-1
 748 699 l 1,56,-1
50 162 m 1,60,-1
 196 162 l 1,61,-1
 212 147 l 1,62,-1
 212 0 l 1,63,-1
 196 -15 l 1,64,-1
 50 -15 l 1,65,-1
 34 0 l 1,66,-1
 34 147 l 1,67,-1
 50 162 l 1,60,-1
182 132 m 1,68,-1
 64 132 l 1,69,-1
 64 15 l 1,70,-1
 182 15 l 1,71,-1
 182 132 l 1,68,-1
616 162 m 1,72,-1
 764 162 l 1,73,-1
 778 147 l 1,74,-1
 778 0 l 1,75,-1
 764 -15 l 1,76,-1
 616 -15 l 1,77,-1
 602 0 l 1,78,-1
 602 147 l 1,79,-1
 616 162 l 1,72,-1
748 132 m 1,80,-1
 632 132 l 1,81,-1
 632 15 l 1,82,-1
 748 15 l 1,83,-1
 748 132 l 1,80,-1
EndSplineSet
EndChar

StartChar: periodcentered
Encoding: 183 183 154
Width: 813
GlyphClass: 2
Flags: W
LayerCount: 2
Back
Fore
SplineSet
404 699 m 2,0,1
 260 698 260 698 162.5 601 c 128,-1,2
 65 504 65 504 65 360 c 0,3,4
 64 359 64 359 64 359 c 129,-1,5
 64 359 64 359 64.5 358.5 c 128,-1,6
 65 358 65 358 65 358 c 1,7,-1
 65 15 l 1,8,-1
 182 15 l 1,9,-1
 182 360 l 2,10,11
 182 454 182 454 246 517.5 c 128,-1,12
 310 581 310 581 403 582 c 2,13,-1
 749 582 l 1,14,-1
 749 699 l 1,15,-1
 404 699 l 2,0,1
403 729 m 2,16,-1
 764 729 l 1,17,-1
 779 714 l 1,18,-1
 779 567 l 1,19,-1
 764 552 l 1,20,-1
 404 552 l 2,21,22
 322 551 322 551 267 496 c 128,-1,23
 212 441 212 441 212 360 c 2,24,-1
 212 0 l 1,25,-1
 197 -15 l 1,26,-1
 50 -15 l 1,27,-1
 35 0 l 1,28,-1
 35 358 l 1,29,30
 35 358 35 358 34.5 358.5 c 128,-1,31
 34 359 34 359 34 359 c 129,-1,32
 34 359 34 359 35 360 c 0,33,34
 35 463 35 463 83.5 547 c 128,-1,35
 132 631 132 631 216.5 679.5 c 128,-1,36
 301 728 301 728 403 729 c 2,16,-1
617 516 m 1,37,-1
 764 516 l 1,38,-1
 779 501 l 1,39,-1
 779 358 l 2,40,41
 779 254 779 254 730 168.5 c 128,-1,42
 681 83 681 83 595.5 34 c 128,-1,43
 510 -15 510 -15 406 -15 c 2,44,-1
 263 -15 l 1,45,-1
 248 0 l 1,46,-1
 248 147 l 1,47,-1
 263 162 l 1,48,-1
 406 162 l 2,49,50
 489 162 489 162 545 217.5 c 128,-1,51
 601 273 601 273 602 355 c 2,52,-1
 602 501 l 1,53,-1
 617 516 l 1,37,-1
749 486 m 1,54,-1
 632 486 l 1,55,-1
 632 355 l 2,56,57
 630 260 630 260 565.5 196 c 128,-1,58
 501 132 501 132 406 132 c 2,59,-1
 278 132 l 1,60,-1
 278 15 l 1,61,-1
 406 15 l 2,62,63
 551 15 551 15 650 113.5 c 128,-1,64
 749 212 749 212 749 358 c 2,65,-1
 749 486 l 1,54,-1
EndSplineSet
EndChar

StartChar: cedilla
Encoding: 184 184 155
Width: 813
GlyphClass: 2
Flags: W
LayerCount: 2
Back
Fore
SplineSet
50 729 m 1,0,-1
 196 729 l 1,1,-1
 212 714 l 1,2,-1
 212 567 l 1,3,-1
 196 552 l 1,4,-1
 50 552 l 1,5,-1
 34 567 l 1,6,-1
 34 714 l 1,7,-1
 50 729 l 1,0,-1
182 699 m 1,8,-1
 64 699 l 1,9,-1
 64 582 l 1,10,-1
 182 582 l 1,11,-1
 182 699 l 1,8,-1
332 729 m 1,12,-1
 480 729 l 1,13,-1
 494 714 l 1,14,-1
 494 446 l 1,15,-1
 764 446 l 1,16,-1
 778 431 l 1,17,-1
 778 284 l 1,18,-1
 764 269 l 1,19,-1
 494 269 l 1,20,-1
 494 0 l 1,21,-1
 480 -15 l 1,22,-1
 332 -15 l 1,23,-1
 318 0 l 1,24,-1
 318 269 l 1,25,-1
 50 269 l 1,26,-1
 34 284 l 1,27,-1
 34 431 l 1,28,-1
 50 446 l 1,29,-1
 318 446 l 1,30,-1
 318 714 l 1,31,-1
 332 729 l 1,12,-1
464 699 m 1,32,-1
 348 699 l 1,33,-1
 348 431 l 1,34,-1
 332 416 l 1,35,-1
 64 416 l 1,36,-1
 64 299 l 1,37,-1
 332 299 l 1,38,-1
 348 284 l 1,39,-1
 348 15 l 1,40,-1
 464 15 l 1,41,-1
 464 284 l 1,42,-1
 480 299 l 1,43,-1
 748 299 l 1,44,-1
 748 416 l 1,45,-1
 480 416 l 1,46,-1
 464 431 l 1,47,-1
 464 699 l 1,32,-1
616 729 m 1,48,-1
 764 729 l 1,49,-1
 778 714 l 1,50,-1
 778 567 l 1,51,-1
 764 552 l 1,52,-1
 616 552 l 1,53,-1
 602 567 l 1,54,-1
 602 714 l 1,55,-1
 616 729 l 1,48,-1
748 699 m 1,56,-1
 632 699 l 1,57,-1
 632 582 l 1,58,-1
 748 582 l 1,59,-1
 748 699 l 1,56,-1
50 162 m 1,60,-1
 196 162 l 1,61,-1
 212 147 l 1,62,-1
 212 0 l 1,63,-1
 196 -15 l 1,64,-1
 50 -15 l 1,65,-1
 34 0 l 1,66,-1
 34 147 l 1,67,-1
 50 162 l 1,60,-1
182 132 m 1,68,-1
 64 132 l 1,69,-1
 64 15 l 1,70,-1
 182 15 l 1,71,-1
 182 132 l 1,68,-1
616 162 m 1,72,-1
 764 162 l 1,73,-1
 778 147 l 1,74,-1
 778 0 l 1,75,-1
 764 -15 l 1,76,-1
 616 -15 l 1,77,-1
 602 0 l 1,78,-1
 602 147 l 1,79,-1
 616 162 l 1,72,-1
748 132 m 1,80,-1
 632 132 l 1,81,-1
 632 15 l 1,82,-1
 748 15 l 1,83,-1
 748 132 l 1,80,-1
EndSplineSet
EndChar

StartChar: uni00B9
Encoding: 185 185 156
Width: 813
GlyphClass: 2
Flags: W
LayerCount: 2
Back
Fore
SplineSet
50 729 m 1,0,-1
 196 729 l 1,1,-1
 212 714 l 1,2,-1
 212 567 l 1,3,-1
 196 552 l 1,4,-1
 50 552 l 1,5,-1
 34 567 l 1,6,-1
 34 714 l 1,7,-1
 50 729 l 1,0,-1
182 699 m 1,8,-1
 64 699 l 1,9,-1
 64 582 l 1,10,-1
 182 582 l 1,11,-1
 182 699 l 1,8,-1
332 729 m 1,12,-1
 480 729 l 1,13,-1
 494 714 l 1,14,-1
 494 446 l 1,15,-1
 764 446 l 1,16,-1
 778 431 l 1,17,-1
 778 284 l 1,18,-1
 764 269 l 1,19,-1
 494 269 l 1,20,-1
 494 0 l 1,21,-1
 480 -15 l 1,22,-1
 332 -15 l 1,23,-1
 318 0 l 1,24,-1
 318 269 l 1,25,-1
 50 269 l 1,26,-1
 34 284 l 1,27,-1
 34 431 l 1,28,-1
 50 446 l 1,29,-1
 318 446 l 1,30,-1
 318 714 l 1,31,-1
 332 729 l 1,12,-1
464 699 m 1,32,-1
 348 699 l 1,33,-1
 348 431 l 1,34,-1
 332 416 l 1,35,-1
 64 416 l 1,36,-1
 64 299 l 1,37,-1
 332 299 l 1,38,-1
 348 284 l 1,39,-1
 348 15 l 1,40,-1
 464 15 l 1,41,-1
 464 284 l 1,42,-1
 480 299 l 1,43,-1
 748 299 l 1,44,-1
 748 416 l 1,45,-1
 480 416 l 1,46,-1
 464 431 l 1,47,-1
 464 699 l 1,32,-1
616 729 m 1,48,-1
 764 729 l 1,49,-1
 778 714 l 1,50,-1
 778 567 l 1,51,-1
 764 552 l 1,52,-1
 616 552 l 1,53,-1
 602 567 l 1,54,-1
 602 714 l 1,55,-1
 616 729 l 1,48,-1
748 699 m 1,56,-1
 632 699 l 1,57,-1
 632 582 l 1,58,-1
 748 582 l 1,59,-1
 748 699 l 1,56,-1
50 162 m 1,60,-1
 196 162 l 1,61,-1
 212 147 l 1,62,-1
 212 0 l 1,63,-1
 196 -15 l 1,64,-1
 50 -15 l 1,65,-1
 34 0 l 1,66,-1
 34 147 l 1,67,-1
 50 162 l 1,60,-1
182 132 m 1,68,-1
 64 132 l 1,69,-1
 64 15 l 1,70,-1
 182 15 l 1,71,-1
 182 132 l 1,68,-1
616 162 m 1,72,-1
 764 162 l 1,73,-1
 778 147 l 1,74,-1
 778 0 l 1,75,-1
 764 -15 l 1,76,-1
 616 -15 l 1,77,-1
 602 0 l 1,78,-1
 602 147 l 1,79,-1
 616 162 l 1,72,-1
748 132 m 1,80,-1
 632 132 l 1,81,-1
 632 15 l 1,82,-1
 748 15 l 1,83,-1
 748 132 l 1,80,-1
EndSplineSet
EndChar

StartChar: ordmasculine
Encoding: 186 186 157
Width: 813
GlyphClass: 2
Flags: W
LayerCount: 2
Back
Fore
SplineSet
50 729 m 1,0,-1
 196 729 l 1,1,-1
 212 714 l 1,2,-1
 212 567 l 1,3,-1
 196 552 l 1,4,-1
 50 552 l 1,5,-1
 34 567 l 1,6,-1
 34 714 l 1,7,-1
 50 729 l 1,0,-1
182 699 m 1,8,-1
 64 699 l 1,9,-1
 64 582 l 1,10,-1
 182 582 l 1,11,-1
 182 699 l 1,8,-1
332 729 m 1,12,-1
 480 729 l 1,13,-1
 494 714 l 1,14,-1
 494 446 l 1,15,-1
 764 446 l 1,16,-1
 778 431 l 1,17,-1
 778 284 l 1,18,-1
 764 269 l 1,19,-1
 494 269 l 1,20,-1
 494 0 l 1,21,-1
 480 -15 l 1,22,-1
 332 -15 l 1,23,-1
 318 0 l 1,24,-1
 318 269 l 1,25,-1
 50 269 l 1,26,-1
 34 284 l 1,27,-1
 34 431 l 1,28,-1
 50 446 l 1,29,-1
 318 446 l 1,30,-1
 318 714 l 1,31,-1
 332 729 l 1,12,-1
464 699 m 1,32,-1
 348 699 l 1,33,-1
 348 431 l 1,34,-1
 332 416 l 1,35,-1
 64 416 l 1,36,-1
 64 299 l 1,37,-1
 332 299 l 1,38,-1
 348 284 l 1,39,-1
 348 15 l 1,40,-1
 464 15 l 1,41,-1
 464 284 l 1,42,-1
 480 299 l 1,43,-1
 748 299 l 1,44,-1
 748 416 l 1,45,-1
 480 416 l 1,46,-1
 464 431 l 1,47,-1
 464 699 l 1,32,-1
616 729 m 1,48,-1
 764 729 l 1,49,-1
 778 714 l 1,50,-1
 778 567 l 1,51,-1
 764 552 l 1,52,-1
 616 552 l 1,53,-1
 602 567 l 1,54,-1
 602 714 l 1,55,-1
 616 729 l 1,48,-1
748 699 m 1,56,-1
 632 699 l 1,57,-1
 632 582 l 1,58,-1
 748 582 l 1,59,-1
 748 699 l 1,56,-1
50 162 m 1,60,-1
 196 162 l 1,61,-1
 212 147 l 1,62,-1
 212 0 l 1,63,-1
 196 -15 l 1,64,-1
 50 -15 l 1,65,-1
 34 0 l 1,66,-1
 34 147 l 1,67,-1
 50 162 l 1,60,-1
182 132 m 1,68,-1
 64 132 l 1,69,-1
 64 15 l 1,70,-1
 182 15 l 1,71,-1
 182 132 l 1,68,-1
616 162 m 1,72,-1
 764 162 l 1,73,-1
 778 147 l 1,74,-1
 778 0 l 1,75,-1
 764 -15 l 1,76,-1
 616 -15 l 1,77,-1
 602 0 l 1,78,-1
 602 147 l 1,79,-1
 616 162 l 1,72,-1
748 132 m 1,80,-1
 632 132 l 1,81,-1
 632 15 l 1,82,-1
 748 15 l 1,83,-1
 748 132 l 1,80,-1
EndSplineSet
EndChar

StartChar: guillemotright
Encoding: 187 187 158
Width: 813
GlyphClass: 2
Flags: W
LayerCount: 2
Back
Fore
SplineSet
50 729 m 1,0,-1
 196 729 l 1,1,-1
 212 714 l 1,2,-1
 212 567 l 1,3,-1
 196 552 l 1,4,-1
 50 552 l 1,5,-1
 34 567 l 1,6,-1
 34 714 l 1,7,-1
 50 729 l 1,0,-1
182 699 m 1,8,-1
 64 699 l 1,9,-1
 64 582 l 1,10,-1
 182 582 l 1,11,-1
 182 699 l 1,8,-1
332 729 m 1,12,-1
 480 729 l 1,13,-1
 494 714 l 1,14,-1
 494 446 l 1,15,-1
 764 446 l 1,16,-1
 778 431 l 1,17,-1
 778 284 l 1,18,-1
 764 269 l 1,19,-1
 494 269 l 1,20,-1
 494 0 l 1,21,-1
 480 -15 l 1,22,-1
 332 -15 l 1,23,-1
 318 0 l 1,24,-1
 318 269 l 1,25,-1
 50 269 l 1,26,-1
 34 284 l 1,27,-1
 34 431 l 1,28,-1
 50 446 l 1,29,-1
 318 446 l 1,30,-1
 318 714 l 1,31,-1
 332 729 l 1,12,-1
464 699 m 1,32,-1
 348 699 l 1,33,-1
 348 431 l 1,34,-1
 332 416 l 1,35,-1
 64 416 l 1,36,-1
 64 299 l 1,37,-1
 332 299 l 1,38,-1
 348 284 l 1,39,-1
 348 15 l 1,40,-1
 464 15 l 1,41,-1
 464 284 l 1,42,-1
 480 299 l 1,43,-1
 748 299 l 1,44,-1
 748 416 l 1,45,-1
 480 416 l 1,46,-1
 464 431 l 1,47,-1
 464 699 l 1,32,-1
616 729 m 1,48,-1
 764 729 l 1,49,-1
 778 714 l 1,50,-1
 778 567 l 1,51,-1
 764 552 l 1,52,-1
 616 552 l 1,53,-1
 602 567 l 1,54,-1
 602 714 l 1,55,-1
 616 729 l 1,48,-1
748 699 m 1,56,-1
 632 699 l 1,57,-1
 632 582 l 1,58,-1
 748 582 l 1,59,-1
 748 699 l 1,56,-1
50 162 m 1,60,-1
 196 162 l 1,61,-1
 212 147 l 1,62,-1
 212 0 l 1,63,-1
 196 -15 l 1,64,-1
 50 -15 l 1,65,-1
 34 0 l 1,66,-1
 34 147 l 1,67,-1
 50 162 l 1,60,-1
182 132 m 1,68,-1
 64 132 l 1,69,-1
 64 15 l 1,70,-1
 182 15 l 1,71,-1
 182 132 l 1,68,-1
616 162 m 1,72,-1
 764 162 l 1,73,-1
 778 147 l 1,74,-1
 778 0 l 1,75,-1
 764 -15 l 1,76,-1
 616 -15 l 1,77,-1
 602 0 l 1,78,-1
 602 147 l 1,79,-1
 616 162 l 1,72,-1
748 132 m 1,80,-1
 632 132 l 1,81,-1
 632 15 l 1,82,-1
 748 15 l 1,83,-1
 748 132 l 1,80,-1
EndSplineSet
EndChar

StartChar: onequarter
Encoding: 188 188 159
Width: 813
GlyphClass: 2
Flags: W
LayerCount: 2
Back
Fore
SplineSet
50 729 m 1,0,-1
 196 729 l 1,1,-1
 212 714 l 1,2,-1
 212 567 l 1,3,-1
 196 552 l 1,4,-1
 50 552 l 1,5,-1
 34 567 l 1,6,-1
 34 714 l 1,7,-1
 50 729 l 1,0,-1
182 699 m 1,8,-1
 64 699 l 1,9,-1
 64 582 l 1,10,-1
 182 582 l 1,11,-1
 182 699 l 1,8,-1
332 729 m 1,12,-1
 480 729 l 1,13,-1
 494 714 l 1,14,-1
 494 446 l 1,15,-1
 764 446 l 1,16,-1
 778 431 l 1,17,-1
 778 284 l 1,18,-1
 764 269 l 1,19,-1
 494 269 l 1,20,-1
 494 0 l 1,21,-1
 480 -15 l 1,22,-1
 332 -15 l 1,23,-1
 318 0 l 1,24,-1
 318 269 l 1,25,-1
 50 269 l 1,26,-1
 34 284 l 1,27,-1
 34 431 l 1,28,-1
 50 446 l 1,29,-1
 318 446 l 1,30,-1
 318 714 l 1,31,-1
 332 729 l 1,12,-1
464 699 m 1,32,-1
 348 699 l 1,33,-1
 348 431 l 1,34,-1
 332 416 l 1,35,-1
 64 416 l 1,36,-1
 64 299 l 1,37,-1
 332 299 l 1,38,-1
 348 284 l 1,39,-1
 348 15 l 1,40,-1
 464 15 l 1,41,-1
 464 284 l 1,42,-1
 480 299 l 1,43,-1
 748 299 l 1,44,-1
 748 416 l 1,45,-1
 480 416 l 1,46,-1
 464 431 l 1,47,-1
 464 699 l 1,32,-1
616 729 m 1,48,-1
 764 729 l 1,49,-1
 778 714 l 1,50,-1
 778 567 l 1,51,-1
 764 552 l 1,52,-1
 616 552 l 1,53,-1
 602 567 l 1,54,-1
 602 714 l 1,55,-1
 616 729 l 1,48,-1
748 699 m 1,56,-1
 632 699 l 1,57,-1
 632 582 l 1,58,-1
 748 582 l 1,59,-1
 748 699 l 1,56,-1
50 162 m 1,60,-1
 196 162 l 1,61,-1
 212 147 l 1,62,-1
 212 0 l 1,63,-1
 196 -15 l 1,64,-1
 50 -15 l 1,65,-1
 34 0 l 1,66,-1
 34 147 l 1,67,-1
 50 162 l 1,60,-1
182 132 m 1,68,-1
 64 132 l 1,69,-1
 64 15 l 1,70,-1
 182 15 l 1,71,-1
 182 132 l 1,68,-1
616 162 m 1,72,-1
 764 162 l 1,73,-1
 778 147 l 1,74,-1
 778 0 l 1,75,-1
 764 -15 l 1,76,-1
 616 -15 l 1,77,-1
 602 0 l 1,78,-1
 602 147 l 1,79,-1
 616 162 l 1,72,-1
748 132 m 1,80,-1
 632 132 l 1,81,-1
 632 15 l 1,82,-1
 748 15 l 1,83,-1
 748 132 l 1,80,-1
EndSplineSet
EndChar

StartChar: onehalf
Encoding: 189 189 160
Width: 813
GlyphClass: 2
Flags: W
LayerCount: 2
Back
Fore
SplineSet
50 729 m 1,0,-1
 196 729 l 1,1,-1
 212 714 l 1,2,-1
 212 567 l 1,3,-1
 196 552 l 1,4,-1
 50 552 l 1,5,-1
 34 567 l 1,6,-1
 34 714 l 1,7,-1
 50 729 l 1,0,-1
182 699 m 1,8,-1
 64 699 l 1,9,-1
 64 582 l 1,10,-1
 182 582 l 1,11,-1
 182 699 l 1,8,-1
332 729 m 1,12,-1
 480 729 l 1,13,-1
 494 714 l 1,14,-1
 494 446 l 1,15,-1
 764 446 l 1,16,-1
 778 431 l 1,17,-1
 778 284 l 1,18,-1
 764 269 l 1,19,-1
 494 269 l 1,20,-1
 494 0 l 1,21,-1
 480 -15 l 1,22,-1
 332 -15 l 1,23,-1
 318 0 l 1,24,-1
 318 269 l 1,25,-1
 50 269 l 1,26,-1
 34 284 l 1,27,-1
 34 431 l 1,28,-1
 50 446 l 1,29,-1
 318 446 l 1,30,-1
 318 714 l 1,31,-1
 332 729 l 1,12,-1
464 699 m 1,32,-1
 348 699 l 1,33,-1
 348 431 l 1,34,-1
 332 416 l 1,35,-1
 64 416 l 1,36,-1
 64 299 l 1,37,-1
 332 299 l 1,38,-1
 348 284 l 1,39,-1
 348 15 l 1,40,-1
 464 15 l 1,41,-1
 464 284 l 1,42,-1
 480 299 l 1,43,-1
 748 299 l 1,44,-1
 748 416 l 1,45,-1
 480 416 l 1,46,-1
 464 431 l 1,47,-1
 464 699 l 1,32,-1
616 729 m 1,48,-1
 764 729 l 1,49,-1
 778 714 l 1,50,-1
 778 567 l 1,51,-1
 764 552 l 1,52,-1
 616 552 l 1,53,-1
 602 567 l 1,54,-1
 602 714 l 1,55,-1
 616 729 l 1,48,-1
748 699 m 1,56,-1
 632 699 l 1,57,-1
 632 582 l 1,58,-1
 748 582 l 1,59,-1
 748 699 l 1,56,-1
50 162 m 1,60,-1
 196 162 l 1,61,-1
 212 147 l 1,62,-1
 212 0 l 1,63,-1
 196 -15 l 1,64,-1
 50 -15 l 1,65,-1
 34 0 l 1,66,-1
 34 147 l 1,67,-1
 50 162 l 1,60,-1
182 132 m 1,68,-1
 64 132 l 1,69,-1
 64 15 l 1,70,-1
 182 15 l 1,71,-1
 182 132 l 1,68,-1
616 162 m 1,72,-1
 764 162 l 1,73,-1
 778 147 l 1,74,-1
 778 0 l 1,75,-1
 764 -15 l 1,76,-1
 616 -15 l 1,77,-1
 602 0 l 1,78,-1
 602 147 l 1,79,-1
 616 162 l 1,72,-1
748 132 m 1,80,-1
 632 132 l 1,81,-1
 632 15 l 1,82,-1
 748 15 l 1,83,-1
 748 132 l 1,80,-1
EndSplineSet
EndChar

StartChar: threequarters
Encoding: 190 190 161
Width: 813
GlyphClass: 2
Flags: W
LayerCount: 2
Back
Fore
SplineSet
50 729 m 1,0,-1
 196 729 l 1,1,-1
 212 714 l 1,2,-1
 212 567 l 1,3,-1
 196 552 l 1,4,-1
 50 552 l 1,5,-1
 34 567 l 1,6,-1
 34 714 l 1,7,-1
 50 729 l 1,0,-1
182 699 m 1,8,-1
 64 699 l 1,9,-1
 64 582 l 1,10,-1
 182 582 l 1,11,-1
 182 699 l 1,8,-1
332 729 m 1,12,-1
 480 729 l 1,13,-1
 494 714 l 1,14,-1
 494 446 l 1,15,-1
 764 446 l 1,16,-1
 778 431 l 1,17,-1
 778 284 l 1,18,-1
 764 269 l 1,19,-1
 494 269 l 1,20,-1
 494 0 l 1,21,-1
 480 -15 l 1,22,-1
 332 -15 l 1,23,-1
 318 0 l 1,24,-1
 318 269 l 1,25,-1
 50 269 l 1,26,-1
 34 284 l 1,27,-1
 34 431 l 1,28,-1
 50 446 l 1,29,-1
 318 446 l 1,30,-1
 318 714 l 1,31,-1
 332 729 l 1,12,-1
464 699 m 1,32,-1
 348 699 l 1,33,-1
 348 431 l 1,34,-1
 332 416 l 1,35,-1
 64 416 l 1,36,-1
 64 299 l 1,37,-1
 332 299 l 1,38,-1
 348 284 l 1,39,-1
 348 15 l 1,40,-1
 464 15 l 1,41,-1
 464 284 l 1,42,-1
 480 299 l 1,43,-1
 748 299 l 1,44,-1
 748 416 l 1,45,-1
 480 416 l 1,46,-1
 464 431 l 1,47,-1
 464 699 l 1,32,-1
616 729 m 1,48,-1
 764 729 l 1,49,-1
 778 714 l 1,50,-1
 778 567 l 1,51,-1
 764 552 l 1,52,-1
 616 552 l 1,53,-1
 602 567 l 1,54,-1
 602 714 l 1,55,-1
 616 729 l 1,48,-1
748 699 m 1,56,-1
 632 699 l 1,57,-1
 632 582 l 1,58,-1
 748 582 l 1,59,-1
 748 699 l 1,56,-1
50 162 m 1,60,-1
 196 162 l 1,61,-1
 212 147 l 1,62,-1
 212 0 l 1,63,-1
 196 -15 l 1,64,-1
 50 -15 l 1,65,-1
 34 0 l 1,66,-1
 34 147 l 1,67,-1
 50 162 l 1,60,-1
182 132 m 1,68,-1
 64 132 l 1,69,-1
 64 15 l 1,70,-1
 182 15 l 1,71,-1
 182 132 l 1,68,-1
616 162 m 1,72,-1
 764 162 l 1,73,-1
 778 147 l 1,74,-1
 778 0 l 1,75,-1
 764 -15 l 1,76,-1
 616 -15 l 1,77,-1
 602 0 l 1,78,-1
 602 147 l 1,79,-1
 616 162 l 1,72,-1
748 132 m 1,80,-1
 632 132 l 1,81,-1
 632 15 l 1,82,-1
 748 15 l 1,83,-1
 748 132 l 1,80,-1
EndSplineSet
EndChar

StartChar: questiondown
Encoding: 191 191 162
Width: 813
GlyphClass: 2
Flags: W
LayerCount: 2
Back
Fore
SplineSet
50 729 m 1,0,-1
 196 729 l 1,1,-1
 212 714 l 1,2,-1
 212 567 l 1,3,-1
 196 552 l 1,4,-1
 50 552 l 1,5,-1
 34 567 l 1,6,-1
 34 714 l 1,7,-1
 50 729 l 1,0,-1
182 699 m 1,8,-1
 64 699 l 1,9,-1
 64 582 l 1,10,-1
 182 582 l 1,11,-1
 182 699 l 1,8,-1
332 729 m 1,12,-1
 480 729 l 1,13,-1
 494 714 l 1,14,-1
 494 446 l 1,15,-1
 764 446 l 1,16,-1
 778 431 l 1,17,-1
 778 284 l 1,18,-1
 764 269 l 1,19,-1
 494 269 l 1,20,-1
 494 0 l 1,21,-1
 480 -15 l 1,22,-1
 332 -15 l 1,23,-1
 318 0 l 1,24,-1
 318 269 l 1,25,-1
 50 269 l 1,26,-1
 34 284 l 1,27,-1
 34 431 l 1,28,-1
 50 446 l 1,29,-1
 318 446 l 1,30,-1
 318 714 l 1,31,-1
 332 729 l 1,12,-1
464 699 m 1,32,-1
 348 699 l 1,33,-1
 348 431 l 1,34,-1
 332 416 l 1,35,-1
 64 416 l 1,36,-1
 64 299 l 1,37,-1
 332 299 l 1,38,-1
 348 284 l 1,39,-1
 348 15 l 1,40,-1
 464 15 l 1,41,-1
 464 284 l 1,42,-1
 480 299 l 1,43,-1
 748 299 l 1,44,-1
 748 416 l 1,45,-1
 480 416 l 1,46,-1
 464 431 l 1,47,-1
 464 699 l 1,32,-1
616 729 m 1,48,-1
 764 729 l 1,49,-1
 778 714 l 1,50,-1
 778 567 l 1,51,-1
 764 552 l 1,52,-1
 616 552 l 1,53,-1
 602 567 l 1,54,-1
 602 714 l 1,55,-1
 616 729 l 1,48,-1
748 699 m 1,56,-1
 632 699 l 1,57,-1
 632 582 l 1,58,-1
 748 582 l 1,59,-1
 748 699 l 1,56,-1
50 162 m 1,60,-1
 196 162 l 1,61,-1
 212 147 l 1,62,-1
 212 0 l 1,63,-1
 196 -15 l 1,64,-1
 50 -15 l 1,65,-1
 34 0 l 1,66,-1
 34 147 l 1,67,-1
 50 162 l 1,60,-1
182 132 m 1,68,-1
 64 132 l 1,69,-1
 64 15 l 1,70,-1
 182 15 l 1,71,-1
 182 132 l 1,68,-1
616 162 m 1,72,-1
 764 162 l 1,73,-1
 778 147 l 1,74,-1
 778 0 l 1,75,-1
 764 -15 l 1,76,-1
 616 -15 l 1,77,-1
 602 0 l 1,78,-1
 602 147 l 1,79,-1
 616 162 l 1,72,-1
748 132 m 1,80,-1
 632 132 l 1,81,-1
 632 15 l 1,82,-1
 748 15 l 1,83,-1
 748 132 l 1,80,-1
EndSplineSet
EndChar

StartChar: Agrave
Encoding: 192 192 163
Width: 813
GlyphClass: 2
Flags: W
LayerCount: 2
Back
Fore
SplineSet
50 729 m 1,0,-1
 196 729 l 1,1,-1
 212 714 l 1,2,-1
 212 567 l 1,3,-1
 196 552 l 1,4,-1
 50 552 l 1,5,-1
 34 567 l 1,6,-1
 34 714 l 1,7,-1
 50 729 l 1,0,-1
182 699 m 1,8,-1
 64 699 l 1,9,-1
 64 582 l 1,10,-1
 182 582 l 1,11,-1
 182 699 l 1,8,-1
332 729 m 1,12,-1
 480 729 l 1,13,-1
 494 714 l 1,14,-1
 494 446 l 1,15,-1
 764 446 l 1,16,-1
 778 431 l 1,17,-1
 778 284 l 1,18,-1
 764 269 l 1,19,-1
 494 269 l 1,20,-1
 494 0 l 1,21,-1
 480 -15 l 1,22,-1
 332 -15 l 1,23,-1
 318 0 l 1,24,-1
 318 269 l 1,25,-1
 50 269 l 1,26,-1
 34 284 l 1,27,-1
 34 431 l 1,28,-1
 50 446 l 1,29,-1
 318 446 l 1,30,-1
 318 714 l 1,31,-1
 332 729 l 1,12,-1
464 699 m 1,32,-1
 348 699 l 1,33,-1
 348 431 l 1,34,-1
 332 416 l 1,35,-1
 64 416 l 1,36,-1
 64 299 l 1,37,-1
 332 299 l 1,38,-1
 348 284 l 1,39,-1
 348 15 l 1,40,-1
 464 15 l 1,41,-1
 464 284 l 1,42,-1
 480 299 l 1,43,-1
 748 299 l 1,44,-1
 748 416 l 1,45,-1
 480 416 l 1,46,-1
 464 431 l 1,47,-1
 464 699 l 1,32,-1
616 729 m 1,48,-1
 764 729 l 1,49,-1
 778 714 l 1,50,-1
 778 567 l 1,51,-1
 764 552 l 1,52,-1
 616 552 l 1,53,-1
 602 567 l 1,54,-1
 602 714 l 1,55,-1
 616 729 l 1,48,-1
748 699 m 1,56,-1
 632 699 l 1,57,-1
 632 582 l 1,58,-1
 748 582 l 1,59,-1
 748 699 l 1,56,-1
50 162 m 1,60,-1
 196 162 l 1,61,-1
 212 147 l 1,62,-1
 212 0 l 1,63,-1
 196 -15 l 1,64,-1
 50 -15 l 1,65,-1
 34 0 l 1,66,-1
 34 147 l 1,67,-1
 50 162 l 1,60,-1
182 132 m 1,68,-1
 64 132 l 1,69,-1
 64 15 l 1,70,-1
 182 15 l 1,71,-1
 182 132 l 1,68,-1
616 162 m 1,72,-1
 764 162 l 1,73,-1
 778 147 l 1,74,-1
 778 0 l 1,75,-1
 764 -15 l 1,76,-1
 616 -15 l 1,77,-1
 602 0 l 1,78,-1
 602 147 l 1,79,-1
 616 162 l 1,72,-1
748 132 m 1,80,-1
 632 132 l 1,81,-1
 632 15 l 1,82,-1
 748 15 l 1,83,-1
 748 132 l 1,80,-1
EndSplineSet
EndChar

StartChar: Aacute
Encoding: 193 193 164
Width: 813
GlyphClass: 2
Flags: W
LayerCount: 2
Back
Fore
SplineSet
50 729 m 1,0,-1
 196 729 l 1,1,-1
 212 714 l 1,2,-1
 212 567 l 1,3,-1
 196 552 l 1,4,-1
 50 552 l 1,5,-1
 34 567 l 1,6,-1
 34 714 l 1,7,-1
 50 729 l 1,0,-1
182 699 m 1,8,-1
 64 699 l 1,9,-1
 64 582 l 1,10,-1
 182 582 l 1,11,-1
 182 699 l 1,8,-1
332 729 m 1,12,-1
 480 729 l 1,13,-1
 494 714 l 1,14,-1
 494 446 l 1,15,-1
 764 446 l 1,16,-1
 778 431 l 1,17,-1
 778 284 l 1,18,-1
 764 269 l 1,19,-1
 494 269 l 1,20,-1
 494 0 l 1,21,-1
 480 -15 l 1,22,-1
 332 -15 l 1,23,-1
 318 0 l 1,24,-1
 318 269 l 1,25,-1
 50 269 l 1,26,-1
 34 284 l 1,27,-1
 34 431 l 1,28,-1
 50 446 l 1,29,-1
 318 446 l 1,30,-1
 318 714 l 1,31,-1
 332 729 l 1,12,-1
464 699 m 1,32,-1
 348 699 l 1,33,-1
 348 431 l 1,34,-1
 332 416 l 1,35,-1
 64 416 l 1,36,-1
 64 299 l 1,37,-1
 332 299 l 1,38,-1
 348 284 l 1,39,-1
 348 15 l 1,40,-1
 464 15 l 1,41,-1
 464 284 l 1,42,-1
 480 299 l 1,43,-1
 748 299 l 1,44,-1
 748 416 l 1,45,-1
 480 416 l 1,46,-1
 464 431 l 1,47,-1
 464 699 l 1,32,-1
616 729 m 1,48,-1
 764 729 l 1,49,-1
 778 714 l 1,50,-1
 778 567 l 1,51,-1
 764 552 l 1,52,-1
 616 552 l 1,53,-1
 602 567 l 1,54,-1
 602 714 l 1,55,-1
 616 729 l 1,48,-1
748 699 m 1,56,-1
 632 699 l 1,57,-1
 632 582 l 1,58,-1
 748 582 l 1,59,-1
 748 699 l 1,56,-1
50 162 m 1,60,-1
 196 162 l 1,61,-1
 212 147 l 1,62,-1
 212 0 l 1,63,-1
 196 -15 l 1,64,-1
 50 -15 l 1,65,-1
 34 0 l 1,66,-1
 34 147 l 1,67,-1
 50 162 l 1,60,-1
182 132 m 1,68,-1
 64 132 l 1,69,-1
 64 15 l 1,70,-1
 182 15 l 1,71,-1
 182 132 l 1,68,-1
616 162 m 1,72,-1
 764 162 l 1,73,-1
 778 147 l 1,74,-1
 778 0 l 1,75,-1
 764 -15 l 1,76,-1
 616 -15 l 1,77,-1
 602 0 l 1,78,-1
 602 147 l 1,79,-1
 616 162 l 1,72,-1
748 132 m 1,80,-1
 632 132 l 1,81,-1
 632 15 l 1,82,-1
 748 15 l 1,83,-1
 748 132 l 1,80,-1
EndSplineSet
EndChar

